SplineFontDB: 3.2
FontName: FunctionalCodeaholic
FullName: Functional Codeaholic
FamilyName: FunctionalCodeaholic
Weight: Regular
Copyright: Functional Codeaholic Font Copyright 2022 Functional Codeaholic\n
Version: 1.000
ItalicAngle: 9
UnderlinePosition: -153
UnderlineWidth: 20
Ascent: 860
Descent: 140
InvalidEm: 0
LayerCount: 2
Layer: 0 1 "Back" 1
Layer: 1 1 "Fore" 0
XUID: [1021 103 -48442099 21134]
StyleMap: 0x0040
FSType: 0
OS2Version: 1
OS2_WeightWidthSlopeOnly: 0
OS2_UseTypoMetrics: 0
CreationTime: 1454443961
ModificationTime: 1664227076
PfmFamily: 81
TTFWeight: 400
TTFWidth: 5
LineGap: 200
VLineGap: 0
Panose: 0 0 0 0 0 0 0 0 0 0
OS2TypoAscent: 860
OS2TypoAOffset: 0
OS2TypoDescent: -140
OS2TypoDOffset: 0
OS2TypoLinegap: 200
OS2WinAscent: 1614
OS2WinAOffset: 0
OS2WinDescent: 894
OS2WinDOffset: 0
HheadAscent: 860
HheadAOffset: 0
HheadDescent: -140
HheadDOffset: 0
OS2SubXSize: 650
OS2SubYSize: 600
OS2SubXOff: 0
OS2SubYOff: 75
OS2SupXSize: 650
OS2SupYSize: 600
OS2SupXOff: 0
OS2SupYOff: 350
OS2StrikeYSize: 0
OS2StrikeYPos: 300
OS2CapHeight: 720
OS2XHeight: 500
OS2FamilyClass: 2048
OS2Vendor: 'FCFF'
OS2CodePages: 20000193.00000000
OS2UnicodeRanges: 20000007.00000001.00000000.00000000
Lookup: 1 0 0 "'locl' Localized Forms in Latin lookup 0" { "'locl' Localized Forms in Latin lookup 0 subtable"  } ['locl' ('latn' <'ROM ' > ) ]
Lookup: 6 0 0 "'locl' Localized Forms in Latin lookup 1" { "'locl' Localized Forms in Latin lookup 1 contextual 0"  "'locl' Localized Forms in Latin lookup 1 contextual 1"  } ['locl' ('latn' <'CAT ' > ) ]
Lookup: 6 0 0 "'ordn' Ordinals in Latin lookup 2" { "'ordn' Ordinals in Latin lookup 2 contextual 0"  "'ordn' Ordinals in Latin lookup 2 contextual 1"  } ['ordn' ('DFLT' <'dflt' > 'latn' <'CAT ' 'ROM ' 'dflt' > ) ]
Lookup: 1 0 0 "'sups' Superscript in Latin lookup 3" { "'sups' Superscript in Latin lookup 3 subtable" ("superior") } ['sups' ('DFLT' <'dflt' > 'latn' <'CAT ' 'ROM ' 'dflt' > ) ]

StartChar: .notdef
Encoding: 65536 -1 0
Width: 1000
GlyphClass: 1
Flags: W
LayerCount: 2
Fore
SplineSet
84.6446609407 -20 m 1,0,-1
 84.6446609407 740 l 1,1,-1
 120 775.355339059 l 1,2,-1
 880 775.355339059 l 1,3,-1
 915.355339059 740 l 1,4,-1
 915.355339059 -20 l 1,5,-1
 880 -55.3553390593 l 1,6,-1
 120 -55.3553390593 l 1,7,-1
 84.6446609407 -20 l 1,0,-1
834.644660941 694.644660941 m 1,8,-1
 165.355339059 694.644660941 l 1,9,-1
 165.355339059 25.3553390593 l 1,10,-1
 834.644660941 25.3553390593 l 1,11,-1
 834.644660941 694.644660941 l 1,8,-1
EndSplineSet
Validated: 524289
Position2: "'ss11' Style Set 11 in Latin lookup 1 per glyph data 21" dx=140 dy=0 dh=280 dv=0
EndChar

StartChar: A
Encoding: 65 65 2
Width: 730
GlyphClass: 1
Flags: W
LayerCount: 2
Fore
SplineSet
205.355339059 226.644660941 m 1,0,-1
 205.355339059 90 l 1,1,-1
 170 54.6446609407 l 1,2,-1
 160 54.6446609407 l 1,3,-1
 124.644660941 90 l 1,4,-1
 124.644660941 303 l 2,5,6
 124.644660941 353.25 124.644660941 353.25 141.644660941 400 c 1,7,-1
 205.644660941 564 l 2,8,9
 216.644660941 592 216.644660941 592 230.644660941 611 c 0,10,11
 232.439532736 613.435897436 232.439532736 613.435897436 234.563135628 615.559500329 c 2,12,-1
 269.918474688 650.914839388 l 2,13,14
 284.358974359 665.355339059 284.358974359 665.355339059 314 665.355339059 c 2,15,-1
 412 665.355339059 l 2,16,17
 440.285714286 665.355339059 440.285714286 665.355339059 454.244897959 651.396155386 c 2,18,-1
 489.600237019 616.040816327 l 2,19,20
 491.926767631 613.714285714 491.926767631 613.714285714 493.855339059 611 c 0,21,22
 507.355339059 592 507.355339059 592 519.355339059 563 c 2,23,-1
 588.355339059 400 l 1,24,25
 605.355339059 353.25 605.355339059 353.25 605.355339059 303 c 2,26,-1
 605.355339059 90 l 1,27,-1
 570 54.6446609407 l 1,28,-1
 560 54.6446609407 l 1,29,-1
 524.644660941 90 l 1,30,-1
 524.644660941 226.644660941 l 1,31,-1
 205.355339059 226.644660941 l 1,0,-1
428.425151544 582.817314726 m 1,32,33
 422.039567009 584.6944106 422.039567009 584.6944106 417.649811257 584.6944106 c 128,-1,34
 413.260055505 584.6944106 413.260055505 584.6944106 412 584.644660941 c 2,35,-1
 314 584.644660941 l 2,36,37
 303.738540923 584.644660941 303.738540923 584.644660941 295.583032694 582.597208727 c 1,38,39
 290.231423848 572.190211971 290.231423848 572.190211971 285.355339059 560 c 2,40,-1
 221.355339059 396 l 1,41,42
 205.997731876 352.121122334 205.997731876 352.121122334 205.384967266 307.355339059 c 1,43,-1
 524.615032734 307.355339059 l 1,44,45
 524.002268124 352.121122334 524.002268124 352.121122334 508.644660941 396 c 1,46,-1
 439.644660941 559 l 2,47,48
 434.159244244 571.965530375 434.159244244 571.965530375 428.425151544 582.817314726 c 1,32,33
EndSplineSet
Validated: 524289
Substitution2: "'ss12' Style Set 12 in Latin lookup 26 subtable" A.v
Substitution2: "'ss01' Style Set 1 in Latin lookup 22 subtable" A.v
Substitution2: "'vert' Vertical Alternates in Latin lookup 21 subtable" A.v
Substitution2: "'ss02' Style Set 2 in Latin lookup 5 subtable" A.salt
Position2: "'ss11' Style Set 11 in Latin lookup 1 per glyph data 46" dx=275 dy=0 dh=550 dv=0
EndChar

StartChar: Aring
Encoding: 197 197 8
Width: 730
GlyphClass: 1
Flags: W
LayerCount: 2
Fore
SplineSet
189.644660941 760 m 2,0,-1
 189.644660941 805 l 2,1,2
 189.644660941 852.258064516 189.644660941 852.258064516 211.931861773 874.545265349 c 0,3,4
 249.064516129 911.677919704 249.064516129 911.677919704 251 913.355339059 c 0,5,6
 283.307692308 941.355339059 283.307692308 941.355339059 368.416277093 941.355339059 c 128,-1,7
 453.524861878 941.355339059 453.524861878 941.355339059 481.087939929 913.792261009 c 0,8,9
 516.907825247 877.972375691 516.907825247 877.972375691 517.355339059 877.5 c 0,10,11
 544.355339059 849 544.355339059 849 544.355339059 805 c 2,12,-1
 544.355339059 760 l 2,13,14
 544.356735707 714.998603352 544.356735707 714.998603352 517.356735707 687.498603352 c 2,15,-1
 481.696389002 651.838256646 l 2,16,17
 475.208470094 645.350337739 475.208470094 645.350337739 465.230729918 640.410323427 c 1,18,-1
 489.600237019 616.040816327 l 2,19,20
 491.926767631 613.714285714 491.926767631 613.714285714 493.855339059 611 c 0,21,22
 507.355339059 592 507.355339059 592 519.355339059 563 c 2,23,-1
 588.355339059 400 l 1,24,25
 605.355339059 353.25 605.355339059 353.25 605.355339059 303 c 2,26,-1
 605.355339059 90 l 1,27,-1
 570 54.6446609407 l 1,28,-1
 560 54.6446609407 l 1,29,-1
 524.644660941 90 l 1,30,-1
 524.644660941 226.644660941 l 1,31,-1
 205.355339059 226.644660941 l 1,32,-1
 205.355339059 90 l 1,33,-1
 170 54.6446609407 l 1,34,-1
 160 54.6446609407 l 1,35,-1
 124.644660941 90 l 1,36,-1
 124.644660941 303 l 2,37,38
 124.644660941 353.25 124.644660941 353.25 141.644660941 400 c 1,39,-1
 205.644660941 564 l 2,40,41
 216.644660941 592 216.644660941 592 230.644660941 611 c 0,42,43
 232.439532736 613.435897436 232.439532736 613.435897436 234.563135628 615.559500329 c 2,44,-1
 262.713485303 643.709850003 l 1,45,46
 254.515009746 648.474478781 254.515009746 648.474478781 247.998216409 654.991272118 c 2,47,-1
 212.64287735 690.346611177 l 2,48,49
 189.644660941 713.344827586 189.644660941 713.344827586 189.644660941 760 c 2,0,-1
428.425151544 582.817314726 m 1,50,51
 422.039567009 584.6944106 422.039567009 584.6944106 417.649811257 584.6944106 c 128,-1,52
 413.260055505 584.6944106 413.260055505 584.6944106 412 584.644660941 c 2,53,-1
 314 584.644660941 l 2,54,55
 303.738540923 584.644660941 303.738540923 584.644660941 295.583032694 582.597208727 c 1,56,57
 290.231423848 572.190211971 290.231423848 572.190211971 285.355339059 560 c 2,58,-1
 221.355339059 396 l 1,59,60
 205.997731876 352.121122334 205.997731876 352.121122334 205.384967266 307.355339059 c 1,61,-1
 524.615032734 307.355339059 l 1,62,63
 524.002268124 352.121122334 524.002268124 352.121122334 508.644660941 396 c 1,64,-1
 439.644660941 559 l 2,65,66
 434.159244244 571.965530375 434.159244244 571.965530375 428.425151544 582.817314726 c 1,50,51
368.925156233 860.653524383 m 0,67,68
 367.471673532 860.653524383 367.471673532 860.653524383 366 860.644660941 c 0,69,70
 308.316721135 860.644660941 308.316721135 860.644660941 278.967997895 847.907108412 c 1,71,72
 270.355339059 829.408878316 270.355339059 829.408878316 270.355339059 805 c 2,73,-1
 270.355339059 760 l 2,74,75
 270.355339059 736.063983187 270.355339059 736.063983187 278.637532354 717.974220465 c 1,76,77
 307.991077914 705.355339059 307.991077914 705.355339059 366.70849973 705.355339059 c 128,-1,78
 425.425921546 705.355339059 425.425921546 705.355339059 455.331210575 718.598239628 c 1,79,80
 463.644660941 736.475683841 463.644660941 736.475683841 463.644660941 760 c 2,81,-1
 463.644660941 805 l 2,82,83
 463.644660941 828.736096708 463.644660941 828.736096708 454.762947316 847.10964934 c 1,84,85
 425.742395624 860.653524383 425.742395624 860.653524383 368.925156233 860.653524383 c 0,67,68
EndSplineSet
Validated: 524321
Substitution2: "'ss12' Style Set 12 in Latin lookup 26 subtable" Aring.v
Substitution2: "'ss01' Style Set 1 in Latin lookup 22 subtable" Aring.v
Substitution2: "'vert' Vertical Alternates in Latin lookup 21 subtable" Aring.v
Substitution2: "'ss02' Style Set 2 in Latin lookup 5 subtable" Aring.salt
Position2: "'ss11' Style Set 11 in Latin lookup 1 per glyph data 46" dx=275 dy=0 dh=550 dv=0
EndChar

StartChar: Aogonek
Encoding: 260 260 11
Width: 730
GlyphClass: 1
Flags: W
LayerCount: 2
Fore
SplineSet
562 -151.355339059 m 2,0,1
 532.239130435 -151.355339059 532.239130435 -151.355339059 519.946597353 -139.062805978 c 2,2,-1
 484.591258294 -103.707466919 l 2,3,4
 473.394660941 -92.5108695652 473.394660941 -92.5108695652 473.394660941 -66.21875 c 0,5,6
 473.394660941 -54.875 473.394660941 -54.875 475.644660941 -41 c 2,7,-1
 487.644660941 42 l 2,8,9
 491.644660941 66 491.644660941 66 497.644660941 76 c 0,10,11
 499.490814787 79.0769230769 499.490814787 79.0769230769 502.757086976 82.3431952663 c 2,12,-1
 524.644660941 104.230769231 l 1,13,-1
 524.644660941 226.644660941 l 1,14,-1
 205.355339059 226.644660941 l 1,15,-1
 205.355339059 90 l 1,16,-1
 170 54.6446609407 l 1,17,-1
 160 54.6446609407 l 1,18,-1
 124.644660941 90 l 1,19,-1
 124.644660941 303 l 2,20,21
 124.644660941 353.25 124.644660941 353.25 141.644660941 400 c 1,22,-1
 205.644660941 564 l 2,23,24
 216.644660941 592 216.644660941 592 230.644660941 611 c 0,25,26
 232.439532736 613.435897436 232.439532736 613.435897436 234.563135628 615.559500329 c 2,27,-1
 269.918474688 650.914839388 l 2,28,29
 284.358974359 665.355339059 284.358974359 665.355339059 314 665.355339059 c 2,30,-1
 412 665.355339059 l 2,31,32
 440.285714286 665.355339059 440.285714286 665.355339059 454.244897959 651.396155386 c 2,33,-1
 489.600237019 616.040816327 l 2,34,35
 491.926767631 613.714285714 491.926767631 613.714285714 493.855339059 611 c 0,36,37
 507.355339059 592 507.355339059 592 519.355339059 563 c 2,38,-1
 588.355339059 400 l 1,39,40
 605.355339059 353.25 605.355339059 353.25 605.355339059 303 c 2,41,-1
 605.355339059 90 l 1,42,-1
 570.680717809 55.3253787499 l 1,43,44
 569.471781434 49.9081334845 569.471781434 49.9081334845 556.355339059 -43 c 0,45,46
 554.900793605 -53.9090909091 554.900793605 -53.9090909091 554.900793605 -62.1580990732 c 128,-1,47
 554.900793605 -70.4071072373 554.900793605 -70.4071072373 555.160474378 -70.4246351382 c 0,48,49
 556.915880399 -70.7803279817 556.915880399 -70.7803279817 558.694348146 -70.7803279817 c 128,-1,50
 560.472815892 -70.7803279817 560.472815892 -70.7803279817 562 -70.6446609407 c 2,51,-1
 586 -70.6446609407 l 1,52,-1
 621.355339059 -106 l 1,53,-1
 621.355339059 -116 l 1,54,-1
 586 -151.355339059 l 1,55,-1
 562 -151.355339059 l 2,0,1
428.425151544 582.817314726 m 1,56,57
 422.039567009 584.6944106 422.039567009 584.6944106 417.649811257 584.6944106 c 128,-1,58
 413.260055505 584.6944106 413.260055505 584.6944106 412 584.644660941 c 2,59,-1
 314 584.644660941 l 2,60,61
 303.738540923 584.644660941 303.738540923 584.644660941 295.583032694 582.597208727 c 1,62,63
 290.231423848 572.190211971 290.231423848 572.190211971 285.355339059 560 c 2,64,-1
 221.355339059 396 l 1,65,66
 205.997731876 352.121122334 205.997731876 352.121122334 205.384967266 307.355339059 c 1,67,-1
 524.615032734 307.355339059 l 1,68,69
 524.002268124 352.121122334 524.002268124 352.121122334 508.644660941 396 c 1,70,-1
 439.644660941 559 l 2,71,72
 434.159244244 571.965530375 434.159244244 571.965530375 428.425151544 582.817314726 c 1,56,57
EndSplineSet
Validated: 524289
Substitution2: "'ss12' Style Set 12 in Latin lookup 26 subtable" Aogonek.v
Substitution2: "'ss01' Style Set 1 in Latin lookup 22 subtable" Aogonek.v
Substitution2: "'vert' Vertical Alternates in Latin lookup 21 subtable" Aogonek.v
Substitution2: "'ss02' Style Set 2 in Latin lookup 5 subtable" Aogonek.salt
Position2: "'ss11' Style Set 11 in Latin lookup 1 per glyph data 46" dx=275 dy=0 dh=550 dv=0
EndChar

StartChar: B
Encoding: 66 66 12
Width: 725
GlyphClass: 1
Flags: W
LayerCount: 2
Fore
SplineSet
449 54.6446609407 m 2,0,-1
 180 54.6446609407 l 1,1,-1
 144.644660941 90 l 1,2,-1
 144.644660941 630 l 1,3,-1
 180 665.355339059 l 1,4,-1
 383 665.355339059 l 2,5,6
 458.513888889 665.355339059 458.513888889 665.355339059 489.212962963 634.656264985 c 0,7,8
 524.96645017 598.902777778 524.96645017 598.902777778 525.355339059 598.5 c 0,9,10
 539.355339059 584 539.355339059 584 544.17766953 565 c 128,-1,11
 549 546 549 546 549.355339059 524 c 2,12,-1
 549.355339059 460 l 2,13,14
 549.355339059 430 549.355339059 430 538.855339059 405 c 0,15,16
 535.659238738 397.39023733 535.659238738 397.39023733 529.451897046 391.077624788 c 1,17,18
 544.749890804 384.223869307 544.749890804 384.223869307 554.71468144 374.259078672 c 0,19,20
 591.250075901 337.723684211 591.250075901 337.723684211 592.355339059 336.5 c 0,21,22
 606.355339059 321 606.355339059 321 610.855339059 300 c 128,-1,23
 615.355339059 279 615.355339059 279 615.355339059 254 c 2,24,-1
 615.355339059 190 l 2,25,26
 615.355339059 168 615.355339059 168 610.444624774 149.830357143 c 128,-1,27
 605.533910488 131.660714286 605.533910488 131.660714286 592.808782937 118.935586735 c 0,28,29
 556.982142857 83.108946655 556.982142857 83.108946655 556.5 82.6446609407 c 0,30,31
 527.423076923 54.6446609407 527.423076923 54.6446609407 449 54.6446609407 c 2,0,-1
450 323.644660941 m 2,32,-1
 225.355339059 323.644660941 l 1,33,-1
 225.355339059 135.355339059 l 1,34,-1
 449 135.355339059 l 2,35,36
 499.28975838 135.355339059 499.28975838 135.355339059 526.199763962 146.370799513 c 1,37,38
 534.644660941 165.156251927 534.644660941 165.156251927 534.644660941 190 c 2,39,-1
 534.644660941 254 l 2,40,41
 534.644660941 287.251108257 534.644660941 287.251108257 522.359814271 312.312318733 c 1,42,43
 496.095706567 323.644660941 496.095706567 323.644660941 450 323.644660941 c 2,32,-1
383 584.644660941 m 2,44,-1
 225.355339059 584.644660941 l 1,45,-1
 225.355339059 404.355339059 l 1,46,-1
 383 404.355339059 l 2,47,48
 434.073545029 404.355339059 434.073545029 404.355339059 462.81469437 417.452981239 c 1,49,50
 468.644660941 433.125177412 468.644660941 433.125177412 468.644660941 460 c 2,51,-1
 468.644660941 524 l 2,52,53
 468.644660941 551.352967447 468.644660941 551.352967447 457.889504036 573.094548682 c 1,54,55
 431.169856258 584.644660941 431.169856258 584.644660941 383 584.644660941 c 2,44,-1
EndSplineSet
Validated: 524289
Substitution2: "'ss12' Style Set 12 in Latin lookup 26 subtable" B.v
Substitution2: "'ss01' Style Set 1 in Latin lookup 22 subtable" B.v
Substitution2: "'vert' Vertical Alternates in Latin lookup 21 subtable" B.v
Position2: "'ss11' Style Set 11 in Latin lookup 1 per glyph data 48" dx=278 dy=0 dh=555 dv=0
EndChar

StartChar: C
Encoding: 67 67 13
Width: 628
GlyphClass: 1
Flags: W
LayerCount: 2
Fore
SplineSet
326 54.6446609407 m 2,0,1
 227.468085106 54.6446609407 227.468085106 54.6446609407 196.173834314 85.9389117329 c 2,2,-1
 160.818495255 121.294250792 l 2,3,4
 130.644660941 151.468085106 130.644660941 151.468085106 130.644660941 219 c 2,5,-1
 130.644660941 499 l 2,6,7
 130.644660941 568.054794521 130.644660941 568.054794521 160.915255799 598.325389379 c 0,8,9
 197.123287671 634.533421251 197.123287671 634.533421251 198 635.355339059 c 0,10,11
 230 665.355339059 230 665.355339059 326 665.355339059 c 2,12,-1
 493 665.355339059 l 1,13,-1
 528.355339059 630 l 1,14,-1
 528.355339059 620 l 1,15,-1
 493 584.644660941 l 1,16,-1
 326 584.644660941 l 2,17,18
 258.3474131 584.644660941 258.3474131 584.644660941 224.383066555 568.391562524 c 1,19,20
 211.35533906 541.785579787 211.35533906 541.785579787 211.355339059 499 c 2,21,-1
 211.355339059 219 l 2,22,23
 211.355339059 177.075817894 211.355339059 177.075817894 223.83560216 150.959969004 c 1,24,25
 257.255916901 135.347599956 257.255916901 135.347599956 323.054039392 135.347599956 c 0,26,27
 324.518994803 135.347599956 324.518994803 135.347599956 326 135.355339059 c 2,28,-1
 493 135.355339059 l 1,29,-1
 528.355339059 100 l 1,30,-1
 528.355339059 90 l 1,31,-1
 493 54.6446609407 l 1,32,-1
 326 54.6446609407 l 2,0,1
EndSplineSet
Validated: 524289
Substitution2: "'ss12' Style Set 12 in Latin lookup 26 subtable" C.v
Substitution2: "'ss01' Style Set 1 in Latin lookup 22 subtable" C.v
Substitution2: "'vert' Vertical Alternates in Latin lookup 21 subtable" C.v
Position2: "'ss11' Style Set 11 in Latin lookup 1 per glyph data 80" dx=326 dy=0 dh=652 dv=0
EndChar

StartChar: Ccedilla
Encoding: 199 199 14
Width: 628
GlyphClass: 1
Flags: W
LayerCount: 2
Fore
SplineSet
323.054039392 135.347599956 m 0,0,1
 324.518994803 135.347599956 324.518994803 135.347599956 326 135.355339059 c 2,2,-1
 493 135.355339059 l 1,3,-1
 528.355339059 100 l 1,4,-1
 528.355339059 90 l 1,5,-1
 493 54.6446609407 l 1,6,-1
 427.447834323 54.6446609407 l 1,7,-1
 394.355339059 -36 l 1,8,-1
 359 -71.3553390593 l 1,9,-1
 349 -71.3553390593 l 1,10,-1
 313.644660941 -36 l 1,11,-1
 346.017754134 54.6446609407 l 1,12,-1
 326 54.6446609407 l 2,13,14
 227.468085106 54.6446609407 227.468085106 54.6446609407 196.173834314 85.9389117329 c 2,15,-1
 160.818495255 121.294250792 l 2,16,17
 130.644660941 151.468085106 130.644660941 151.468085106 130.644660941 219 c 2,18,-1
 130.644660941 499 l 2,19,20
 130.644660941 568.054794521 130.644660941 568.054794521 160.915255799 598.325389379 c 0,21,22
 197.123287671 634.533421251 197.123287671 634.533421251 198 635.355339059 c 0,23,24
 230 665.355339059 230 665.355339059 326 665.355339059 c 2,25,-1
 493 665.355339059 l 1,26,-1
 528.355339059 630 l 1,27,-1
 528.355339059 620 l 1,28,-1
 493 584.644660941 l 1,29,-1
 326 584.644660941 l 2,30,31
 258.3474131 584.644660941 258.3474131 584.644660941 224.383066555 568.391562524 c 1,32,33
 211.35533906 541.785579787 211.35533906 541.785579787 211.355339059 499 c 2,34,-1
 211.355339059 219 l 2,35,36
 211.355339059 177.075817894 211.355339059 177.075817894 223.83560216 150.959969004 c 1,37,38
 257.255916901 135.347599956 257.255916901 135.347599956 323.054039392 135.347599956 c 0,0,1
EndSplineSet
Validated: 524289
Substitution2: "'ss12' Style Set 12 in Latin lookup 26 subtable" Ccedilla.v
Substitution2: "'ss01' Style Set 1 in Latin lookup 22 subtable" Ccedilla.v
Substitution2: "'vert' Vertical Alternates in Latin lookup 21 subtable" Ccedilla.v
Position2: "'ss11' Style Set 11 in Latin lookup 1 per glyph data 80" dx=326 dy=0 dh=652 dv=0
EndChar

StartChar: D
Encoding: 68 68 19
Width: 746
GlyphClass: 1
Flags: W
LayerCount: 2
Fore
SplineSet
420 665.355339059 m 2,0,1
 471 665.355339059 471 665.355339059 501.426136364 654.730339059 c 128,-1,2
 531.852272727 644.105339059 531.852272727 644.105339059 548.614411157 627.34320063 c 0,3,4
 585.19624815 590.761363636 585.19624815 590.761363636 586.355339059 589.5 c 0,5,6
 603.355339059 571 603.355339059 571 609.355339059 545.5 c 128,-1,7
 615.355339059 520 615.355339059 520 615.355339059 491 c 2,8,-1
 615.355339059 226 l 2,9,10
 615.355339059 197 615.355339059 197 609.855339059 172 c 0,11,12
 604.060752165 145.660968661 604.060752165 145.660968661 585.814598319 127.414814815 c 2,13,-1
 550.459259259 92.0594757555 l 2,14,15
 513.044444444 54.6446609407 513.044444444 54.6446609407 420 54.6446609407 c 2,16,-1
 178 54.6446609407 l 1,17,-1
 142.644660941 90 l 1,18,-1
 142.644660941 630 l 1,19,-1
 178 665.355339059 l 1,20,-1
 420 665.355339059 l 2,0,1
420 584.644660941 m 2,21,-1
 223.355339059 584.644660941 l 1,22,-1
 223.355339059 135.355339059 l 1,23,-1
 420 135.355339059 l 2,24,25
 468 135.355339059 468 135.355339059 497.5 144.855339059 c 0,26,27
 511.011712269 149.206568434 511.011712269 149.206568434 521.691311957 155.026300629 c 1,28,29
 534.644660941 180.172567564 534.644660941 180.172567564 534.644660941 226 c 2,30,-1
 534.644660941 491 l 2,31,32
 534.644660941 537.313608877 534.644660941 537.313608877 520.088367924 564.354742253 c 1,33,34
 483.749403554 584.644660941 483.749403554 584.644660941 420 584.644660941 c 2,21,-1
EndSplineSet
Validated: 524289
Substitution2: "'ss12' Style Set 12 in Latin lookup 26 subtable" D.v
Substitution2: "'ss01' Style Set 1 in Latin lookup 22 subtable" D.v
Substitution2: "'vert' Vertical Alternates in Latin lookup 21 subtable" D.v
Position2: "'ss11' Style Set 11 in Latin lookup 1 per glyph data 38" dx=267 dy=0 dh=534 dv=0
EndChar

StartChar: E
Encoding: 69 69 21
Width: 654
GlyphClass: 1
Flags: W
LayerCount: 2
Fore
SplineSet
223.355339059 584.644660941 m 1,0,-1
 223.355339059 404.355339059 l 1,1,-1
 434 404.355339059 l 1,2,-1
 469.355339059 369 l 1,3,-1
 469.355339059 359 l 1,4,-1
 434 323.644660941 l 1,5,-1
 223.355339059 323.644660941 l 1,6,-1
 223.355339059 135.355339059 l 1,7,-1
 515 135.355339059 l 1,8,-1
 550.355339059 100 l 1,9,-1
 550.355339059 90 l 1,10,-1
 515 54.6446609407 l 1,11,-1
 178 54.6446609407 l 1,12,-1
 142.644660941 90 l 1,13,-1
 142.644660941 630 l 1,14,-1
 178 665.355339059 l 1,15,-1
 515 665.355339059 l 1,16,-1
 550.355339059 630 l 1,17,-1
 550.355339059 620 l 1,18,-1
 515 584.644660941 l 1,19,-1
 223.355339059 584.644660941 l 1,0,-1
EndSplineSet
Validated: 524289
Substitution2: "'ss12' Style Set 12 in Latin lookup 26 subtable" E.v
Substitution2: "'ss01' Style Set 1 in Latin lookup 22 subtable" E.v
Substitution2: "'vert' Vertical Alternates in Latin lookup 21 subtable" E.v
Substitution2: "'ss03' Style Set 3 in Latin lookup 11 subtable" E.salt
Position2: "'ss11' Style Set 11 in Latin lookup 1 per glyph data 70" dx=313 dy=0 dh=626 dv=0
EndChar

StartChar: Eogonek
Encoding: 280 280 29
Width: 654
GlyphClass: 1
Flags: W
LayerCount: 2
Fore
SplineSet
491 -151.355339059 m 2,0,1
 461.239130435 -151.355339059 461.239130435 -151.355339059 448.946597353 -139.062805978 c 2,2,-1
 413.591258294 -103.707466919 l 2,3,4
 402.394660941 -92.5108695652 402.394660941 -92.5108695652 402.394660941 -66.21875 c 0,5,6
 402.394660941 -54.875 402.394660941 -54.875 404.644660941 -41 c 2,7,-1
 416.644660941 42 l 2,8,9
 417.73714986 48.9190964899 417.73714986 48.9190964899 419.028560786 54.6446609407 c 1,10,-1
 178 54.6446609407 l 1,11,-1
 142.644660941 90 l 1,12,-1
 142.644660941 630 l 1,13,-1
 178 665.355339059 l 1,14,-1
 515 665.355339059 l 1,15,-1
 550.355339059 630 l 1,16,-1
 550.355339059 620 l 1,17,-1
 515 584.644660941 l 1,18,-1
 223.355339059 584.644660941 l 1,19,-1
 223.355339059 404.355339059 l 1,20,-1
 434 404.355339059 l 1,21,-1
 469.355339059 369 l 1,22,-1
 469.355339059 359 l 1,23,-1
 434 323.644660941 l 1,24,-1
 223.355339059 323.644660941 l 1,25,-1
 223.355339059 135.355339059 l 1,26,-1
 515 135.355339059 l 1,27,-1
 550.355339059 100 l 1,28,-1
 550.355339059 90 l 1,29,-1
 515 54.6446609407 l 1,30,-1
 499.53096188 54.6446609407 l 1,31,32
 498.412243896 49.4864092622 498.412243896 49.4864092622 485.355339059 -43 c 0,33,34
 483.900793605 -53.9090909091 483.900793605 -53.9090909091 483.900793605 -60.3986434847 c 128,-1,35
 483.900793605 -66.8881960603 483.900793605 -66.8881960603 484.160474378 -70.4246351382 c 0,36,37
 487.420218424 -70.6446609407 487.420218424 -70.6446609407 491 -70.6446609407 c 2,38,-1
 515 -70.6446609407 l 1,39,-1
 550.355339059 -106 l 1,40,-1
 550.355339059 -116 l 1,41,-1
 515 -151.355339059 l 1,42,-1
 491 -151.355339059 l 2,0,1
EndSplineSet
Validated: 524289
Substitution2: "'ss12' Style Set 12 in Latin lookup 26 subtable" Eogonek.v
Substitution2: "'ss01' Style Set 1 in Latin lookup 22 subtable" Eogonek.v
Substitution2: "'vert' Vertical Alternates in Latin lookup 21 subtable" Eogonek.v
Substitution2: "'ss03' Style Set 3 in Latin lookup 11 subtable" Eogonek.salt
Position2: "'ss11' Style Set 11 in Latin lookup 1 per glyph data 70" dx=313 dy=0 dh=626 dv=0
EndChar

StartChar: F
Encoding: 70 70 31
Width: 618
GlyphClass: 1
Flags: W
LayerCount: 2
Fore
SplineSet
223.355339059 584.644660941 m 1,0,-1
 223.355339059 369.355339059 l 1,1,-1
 416 369.355339059 l 1,2,-1
 451.355339059 334 l 1,3,-1
 451.355339059 324 l 1,4,-1
 416 288.644660941 l 1,5,-1
 223.355339059 288.644660941 l 1,6,-1
 223.355339059 90 l 1,7,-1
 188 54.6446609407 l 1,8,-1
 178 54.6446609407 l 1,9,-1
 142.644660941 90 l 1,10,-1
 142.644660941 630 l 1,11,-1
 178 665.355339059 l 1,12,-1
 497 665.355339059 l 1,13,-1
 532.355339059 630 l 1,14,-1
 532.355339059 620 l 1,15,-1
 497 584.644660941 l 1,16,-1
 223.355339059 584.644660941 l 1,0,-1
EndSplineSet
Validated: 524289
Substitution2: "'ss12' Style Set 12 in Latin lookup 26 subtable" F.v
Substitution2: "'ss01' Style Set 1 in Latin lookup 22 subtable" F.v
Substitution2: "'vert' Vertical Alternates in Latin lookup 21 subtable" F.v
Position2: "'ss11' Style Set 11 in Latin lookup 1 per glyph data 83" dx=331 dy=0 dh=662 dv=0
EndChar

StartChar: G
Encoding: 71 71 32
Width: 708
GlyphClass: 1
Flags: W
LayerCount: 2
Fore
SplineSet
347 54.6446609407 m 2,0,1
 292 54.6446609407 292 54.6446609407 257 61.6446609407 c 0,2,3
 215.197674419 70.005126057 215.197674419 70.005126057 194.17550027 91.0273002051 c 2,4,-1
 158.820161211 126.382639264 l 2,5,6
 145.074893499 140.127906977 145.074893499 140.127906977 138.35977722 162.063953488 c 128,-1,7
 131.644660941 184 131.644660941 184 131.644660941 219 c 2,8,-1
 131.644660941 499 l 2,9,10
 131.644660941 568.054794521 131.644660941 568.054794521 161.915255799 598.325389379 c 0,11,12
 198.123287671 634.533421251 198.123287671 634.533421251 199 635.355339059 c 0,13,14
 231 665.355339059 231 665.355339059 327 665.355339059 c 2,15,-1
 500 665.355339059 l 1,16,-1
 535.355339059 630 l 1,17,-1
 535.355339059 620 l 1,18,-1
 500 584.644660941 l 1,19,-1
 327 584.644660941 l 2,20,21
 259.3474131 584.644660941 259.3474131 584.644660941 225.383066555 568.391562524 c 1,22,23
 212.35533906 541.785579787 212.35533906 541.785579787 212.355339059 499 c 2,24,-1
 212.355339059 219 l 2,25,26
 212.355339059 179.448650227 212.355339059 179.448650227 225.128988711 153.966827606 c 1,27,28
 262.30354345 135.348804293 262.30354345 135.348804293 343.926042466 135.348804293 c 0,29,30
 345.455220809 135.348804293 345.455220809 135.348804293 347 135.355339059 c 2,31,-1
 500.644660941 135.355339059 l 1,32,-1
 500.644660941 291 l 1,33,-1
 536 326.355339059 l 1,34,-1
 546 326.355339059 l 1,35,-1
 581.355339059 291 l 1,36,-1
 581.355339059 90 l 1,37,-1
 546 54.6446609407 l 1,38,-1
 347 54.6446609407 l 2,0,1
EndSplineSet
Validated: 524289
Substitution2: "'ss12' Style Set 12 in Latin lookup 26 subtable" G.v
Substitution2: "'ss01' Style Set 1 in Latin lookup 22 subtable" G.v
Substitution2: "'vert' Vertical Alternates in Latin lookup 21 subtable" G.v
Position2: "'ss11' Style Set 11 in Latin lookup 1 per glyph data 57" dx=286 dy=0 dh=572 dv=0
EndChar

StartChar: H
Encoding: 72 72 37
Width: 759
GlyphClass: 1
Flags: W
LayerCount: 2
Fore
SplineSet
222.355339059 400.355339059 m 1,0,-1
 535.644660941 400.355339059 l 1,1,-1
 535.644660941 630 l 1,2,-1
 571 665.355339059 l 1,3,-1
 581 665.355339059 l 1,4,-1
 616.355339059 630 l 1,5,-1
 616.355339059 90 l 1,6,-1
 581 54.6446609407 l 1,7,-1
 571 54.6446609407 l 1,8,-1
 535.644660941 90 l 1,9,-1
 535.644660941 319.644660941 l 1,10,-1
 222.355339059 319.644660941 l 1,11,-1
 222.355339059 90 l 1,12,-1
 187 54.6446609407 l 1,13,-1
 177 54.6446609407 l 1,14,-1
 141.644660941 90 l 1,15,-1
 141.644660941 630 l 1,16,-1
 177 665.355339059 l 1,17,-1
 187 665.355339059 l 1,18,-1
 222.355339059 630 l 1,19,-1
 222.355339059 400.355339059 l 1,0,-1
EndSplineSet
Validated: 524289
Substitution2: "'ss12' Style Set 12 in Latin lookup 26 subtable" H.v
Substitution2: "'ss01' Style Set 1 in Latin lookup 22 subtable" H.v
Substitution2: "'vert' Vertical Alternates in Latin lookup 21 subtable" H.v
Position2: "'ss11' Style Set 11 in Latin lookup 1 per glyph data 33" dx=261 dy=0 dh=521 dv=0
EndChar

StartChar: I
Encoding: 73 73 39
Width: 605
GlyphClass: 1
Flags: W
LayerCount: 2
Fore
SplineSet
262.644660941 135.355339059 m 1,0,-1
 262.644660941 584.644660941 l 1,1,-1
 143 584.644660941 l 1,2,-1
 107.644660941 620 l 1,3,-1
 107.644660941 630 l 1,4,-1
 143 665.355339059 l 1,5,-1
 461 665.355339059 l 1,6,-1
 496.355339059 630 l 1,7,-1
 496.355339059 620 l 1,8,-1
 461 584.644660941 l 1,9,-1
 343.355339059 584.644660941 l 1,10,-1
 343.355339059 135.355339059 l 1,11,-1
 461 135.355339059 l 1,12,-1
 496.355339059 100 l 1,13,-1
 496.355339059 90 l 1,14,-1
 461 54.6446609407 l 1,15,-1
 143 54.6446609407 l 1,16,-1
 107.644660941 90 l 1,17,-1
 107.644660941 100 l 1,18,-1
 143 135.355339059 l 1,19,-1
 262.644660941 135.355339059 l 1,0,-1
EndSplineSet
Validated: 524289
Substitution2: "'ss12' Style Set 12 in Latin lookup 26 subtable" I.v
Substitution2: "'ss01' Style Set 1 in Latin lookup 22 subtable" I.v
Substitution2: "'vert' Vertical Alternates in Latin lookup 21 subtable" I.v
Substitution2: "'ss04' Style Set 4 in Latin lookup 12 subtable" I.salt
Position2: "'ss11' Style Set 11 in Latin lookup 1 per glyph data 86" dx=338 dy=0 dh=675 dv=0
EndChar

StartChar: Iogonek
Encoding: 302 302 47
Width: 605
GlyphClass: 1
Flags: W
LayerCount: 2
Fore
SplineSet
437 -151.355339059 m 2,0,1
 407.239130435 -151.355339059 407.239130435 -151.355339059 394.946597353 -139.062805978 c 2,2,-1
 359.591258294 -103.707466919 l 2,3,4
 348.394660941 -92.5108695652 348.394660941 -92.5108695652 348.394660941 -66.21875 c 0,5,6
 348.394660941 -54.875 348.394660941 -54.875 350.644660941 -41 c 2,7,-1
 362.644660941 42 l 2,8,9
 363.73714986 48.9190964899 363.73714986 48.9190964899 365.028560786 54.6446609407 c 1,10,-1
 143 54.6446609407 l 1,11,-1
 107.644660941 90 l 1,12,-1
 107.644660941 100 l 1,13,-1
 143 135.355339059 l 1,14,-1
 262.644660941 135.355339059 l 1,15,-1
 262.644660941 584.644660941 l 1,16,-1
 143 584.644660941 l 1,17,-1
 107.644660941 620 l 1,18,-1
 107.644660941 630 l 1,19,-1
 143 665.355339059 l 1,20,-1
 461 665.355339059 l 1,21,-1
 496.355339059 630 l 1,22,-1
 496.355339059 620 l 1,23,-1
 461 584.644660941 l 1,24,-1
 343.355339059 584.644660941 l 1,25,-1
 343.355339059 135.355339059 l 1,26,-1
 461 135.355339059 l 1,27,-1
 496.355339059 100 l 1,28,-1
 496.355339059 90 l 1,29,-1
 461 54.6446609407 l 1,30,-1
 445.53096188 54.6446609407 l 1,31,32
 444.412243896 49.4864092622 444.412243896 49.4864092622 431.355339059 -43 c 0,33,34
 429.900793605 -53.9090909091 429.900793605 -53.9090909091 429.900793605 -60.3986434847 c 128,-1,35
 429.900793605 -66.8881960603 429.900793605 -66.8881960603 430.160474378 -70.4246351382 c 0,36,37
 433.420218424 -70.6446609407 433.420218424 -70.6446609407 437 -70.6446609407 c 2,38,-1
 461 -70.6446609407 l 1,39,-1
 496.355339059 -106 l 1,40,-1
 496.355339059 -116 l 1,41,-1
 461 -151.355339059 l 1,42,-1
 437 -151.355339059 l 2,0,1
EndSplineSet
Validated: 524289
Substitution2: "'ss12' Style Set 12 in Latin lookup 26 subtable" Iogonek.v
Substitution2: "'ss01' Style Set 1 in Latin lookup 22 subtable" Iogonek.v
Substitution2: "'vert' Vertical Alternates in Latin lookup 21 subtable" Iogonek.v
Substitution2: "'ss04' Style Set 4 in Latin lookup 12 subtable" Iogonek.salt
Position2: "'ss11' Style Set 11 in Latin lookup 1 per glyph data 86" dx=338 dy=0 dh=675 dv=0
EndChar

StartChar: J
Encoding: 74 74 49
Width: 688
GlyphClass: 1
Flags: W
LayerCount: 2
Fore
SplineSet
549.355339059 213 m 2,0,1
 549.355339059 154 549.355339059 154 511.855339059 116 c 2,2,-1
 476.146377482 80.2886910053 l 2,3,4
 438.502347418 42.6446609407 438.502347418 42.6446609407 333 42.6446609407 c 0,5,6
 219.8875 42.6446609407 219.8875 42.6446609407 176.0328125 86.4993484407 c 2,7,-1
 140.677473441 121.8546875 l 2,8,9
 109.644660941 152.8875 109.644660941 152.8875 109.644660941 213 c 2,10,-1
 109.644660941 292 l 1,11,-1
 145 327.355339059 l 1,12,-1
 155 327.355339059 l 1,13,-1
 190.355339059 292 l 1,14,-1
 190.355339059 213 l 2,15,16
 190.355339059 174.605605687 190.355339059 174.605605687 207.369761366 146.64672372 c 1,17,18
 247.39848875 123.350078435 247.39848875 123.350078435 330.492956003 123.350078435 c 0,19,20
 331.741615655 123.350078435 331.741615655 123.350078435 333 123.355339059 c 0,21,22
 412.370017768 123.355339059 412.370017768 123.355339059 451.246740808 145.530238459 c 1,23,24
 468.644660863 174.069907059 468.644660863 174.069907059 468.644660941 213 c 2,25,-1
 468.644660941 630 l 1,26,-1
 504 665.355339059 l 1,27,-1
 514 665.355339059 l 1,28,-1
 549.355339059 630 l 1,29,-1
 549.355339059 213 l 2,0,1
EndSplineSet
Validated: 524289
Substitution2: "'ss12' Style Set 12 in Latin lookup 26 subtable" J.v
Substitution2: "'ss01' Style Set 1 in Latin lookup 22 subtable" J.v
Substitution2: "'vert' Vertical Alternates in Latin lookup 21 subtable" J.v
Position2: "'ss11' Style Set 11 in Latin lookup 1 per glyph data 64" dx=296 dy=0 dh=592 dv=0
EndChar

StartChar: K
Encoding: 75 75 51
Width: 746
GlyphClass: 1
Flags: W
LayerCount: 2
Fore
SplineSet
223.355339059 399.355339059 m 1,0,-1
 384.929863917 399.355339059 l 1,1,-1
 484.644660941 630 l 1,2,-1
 520 665.355339059 l 1,3,-1
 531 665.355339059 l 1,4,-1
 566.355339059 630 l 1,5,-1
 466.576697538 399.20766396 l 1,6,7
 527.909877882 397.275969652 527.909877882 397.275969652 554.696351623 370.489495911 c 2,8,-1
 590.051690682 335.134156851 l 2,9,10
 613.355339059 311.830508475 613.355339059 311.830508475 613.355339059 266 c 2,11,-1
 613.355339059 90 l 1,12,-1
 578 54.6446609407 l 1,13,-1
 568 54.6446609407 l 1,14,-1
 532.644660941 90 l 1,15,-1
 532.644660941 266 l 2,16,17
 532.644660941 289.833897372 532.644660941 289.833897372 525.741218844 306.764352647 c 1,18,19
 499.754682694 318.654689214 499.754682694 318.654689214 459.358469844 318.654689214 c 0,20,21
 458.18531146 318.654689214 458.18531146 318.654689214 457 318.644660941 c 2,22,-1
 223.355339059 318.644660941 l 1,23,-1
 223.355339059 90 l 1,24,-1
 188 54.6446609407 l 1,25,-1
 178 54.6446609407 l 1,26,-1
 142.644660941 90 l 1,27,-1
 142.644660941 630 l 1,28,-1
 178 665.355339059 l 1,29,-1
 188 665.355339059 l 1,30,-1
 223.355339059 630 l 1,31,-1
 223.355339059 399.355339059 l 1,0,-1
EndSplineSet
Validated: 524289
Substitution2: "'ss12' Style Set 12 in Latin lookup 26 subtable" K.v
Substitution2: "'ss01' Style Set 1 in Latin lookup 22 subtable" K.v
Substitution2: "'vert' Vertical Alternates in Latin lookup 21 subtable" K.v
Position2: "'ss11' Style Set 11 in Latin lookup 1 per glyph data 38" dx=267 dy=0 dh=534 dv=0
EndChar

StartChar: L
Encoding: 76 76 53
Width: 695
GlyphClass: 1
Flags: W
LayerCount: 2
Fore
SplineSet
223.355339059 135.355339059 m 1,0,-1
 500.644660941 135.355339059 l 1,1,-1
 500.644660941 297 l 1,2,-1
 536 332.355339059 l 1,3,-1
 546 332.355339059 l 1,4,-1
 581.355339059 297 l 1,5,-1
 581.355339059 90 l 1,6,-1
 546 54.6446609407 l 1,7,-1
 178 54.6446609407 l 1,8,-1
 142.644660941 90 l 1,9,-1
 142.644660941 630 l 1,10,-1
 178 665.355339059 l 1,11,-1
 188 665.355339059 l 1,12,-1
 223.355339059 630 l 1,13,-1
 223.355339059 135.355339059 l 1,0,-1
EndSplineSet
Validated: 524289
Substitution2: "Single Substitution lookup 27 subtable" Ldot
Substitution2: "'ss12' Style Set 12 in Latin lookup 26 subtable" L.v
Substitution2: "'ss01' Style Set 1 in Latin lookup 22 subtable" L.v
Substitution2: "'vert' Vertical Alternates in Latin lookup 21 subtable" L.v
Substitution2: "'ss05' Style Set 5 in Latin lookup 13 subtable" L.salt
Position2: "'ss11' Style Set 11 in Latin lookup 1 per glyph data 61" dx=293 dy=0 dh=585 dv=0
EndChar

StartChar: M
Encoding: 77 77 57
Width: 849
GlyphClass: 1
Flags: W
LayerCount: 2
Fore
SplineSet
409.012958685 421.458015365 m 0,0,1
 413.022755538 420.285707968 413.022755538 420.285707968 416.325529106 420.285707968 c 0,2,3
 427.347737798 420.285707968 427.347737798 420.285707968 432.987041304 421.458015359 c 0,4,5
 434.389952108 423.562493092 434.389952108 423.562493092 558.644660941 613 c 0,6,7
 561.644660941 618 561.644660941 618 565.019660941 621.375 c 2,8,-1
 600.375 656.730339059 l 2,9,10
 603.75 660.105339059 603.75 660.105339059 607.5 661.855339059 c 0,11,12
 619.242537195 665.365024734 619.242537195 665.365024734 621.042893701 665.365024734 c 128,-1,13
 622.843250207 665.365024734 622.843250207 665.365024734 623 665.355339059 c 2,14,-1
 640 665.355339059 l 2,15,16
 653.066666667 665.355339059 653.066666667 665.355339059 659.6 658.822005726 c 0,17,18
 695.422005726 623 695.422005726 623 695.855339059 622.5 c 0,19,20
 702 615 702 615 702.355339059 599 c 2,21,-1
 702.355339059 90 l 1,22,-1
 667 54.6446609407 l 1,23,-1
 657 54.6446609407 l 1,24,-1
 621.644660941 90 l 1,25,-1
 621.644660941 582.305206772 l 1,26,-1
 515.355339059 422 l 2,27,28
 496.333116837 393.466666667 496.333116837 393.466666667 487.426943998 384.560493827 c 2,29,-1
 452.071604938 349.205154768 l 2,30,31
 443 340 443 340 421.244444444 339.82233047 c 128,-1,32
 399.488888889 339.644660941 399.488888889 339.644660941 389.928395062 349.205154768 c 0,33,34
 354.355772052 384.777777778 354.355772052 384.777777778 354.144660941 385 c 0,35,36
 344.644660941 395 344.644660941 395 326.644660941 422 c 2,37,-1
 220.355339059 582.305206772 l 1,38,-1
 220.355339059 90 l 1,39,-1
 185 54.6446609407 l 1,40,-1
 175 54.6446609407 l 1,41,-1
 139.644660941 90 l 1,42,-1
 139.644660941 599 l 2,43,44
 139.644660941 616.071428571 139.644660941 616.071428571 147.106395635 623.533163265 c 2,45,-1
 182.461734694 658.888502325 l 2,46,47
 188.928571429 665.355339059 188.928571429 665.355339059 201 665.355339059 c 2,48,-1
 218 665.355339059 l 2,49,50
 232.882352941 665.355339059 232.882352941 665.355339059 241.910034602 656.327657398 c 2,51,-1
 277.265373661 620.972318339 l 2,52,53
 280.531809648 617.705882353 280.531809648 617.705882353 283.355339059 613 c 0,54,55
 408.986843362 421.46344426 408.986843362 421.46344426 409.012958685 421.458015365 c 0,0,1
EndSplineSet
Validated: 524321
Substitution2: "'ss12' Style Set 12 in Latin lookup 26 subtable" M.v
Substitution2: "'ss01' Style Set 1 in Latin lookup 22 subtable" M.v
Substitution2: "'vert' Vertical Alternates in Latin lookup 21 subtable" M.v
Substitution2: "'ss02' Style Set 2 in Latin lookup 6 subtable" M.salt
Position2: "'ss11' Style Set 11 in Latin lookup 1 per glyph data 26" dx=216 dy=0 dh=431 dv=0
EndChar

StartChar: N
Encoding: 78 78 58
Width: 753
GlyphClass: 1
Flags: W
LayerCount: 2
Fore
SplineSet
138.644660941 619 m 2,0,1
 138.644660941 624.142857143 138.644660941 624.142857143 141.583436451 627.081632653 c 0,2,3
 177.428571429 662.926767631 177.428571429 662.926767631 178 663.355339059 c 0,4,5
 182 666.355339059 182 666.355339059 186 666.355339059 c 128,-1,6
 190 666.355339059 190 666.355339059 193 664.355339059 c 128,-1,7
 196 662.355339059 196 662.355339059 201 657.355339059 c 2,8,-1
 236.355339059 622 l 1,9,-1
 533.644660941 287.549512883 l 1,10,-1
 533.644660941 630 l 1,11,-1
 569 665.355339059 l 1,12,-1
 579 665.355339059 l 1,13,-1
 614.355339059 630 l 1,14,-1
 614.355339059 90 l 1,15,-1
 579 54.6446609407 l 1,16,-1
 569 54.6446609407 l 1,17,-1
 533.644660941 90 l 1,18,-1
 533.644660941 193 l 1,19,-1
 219.355339059 545.536170576 l 1,20,-1
 219.355339059 90 l 1,21,-1
 184 54.6446609407 l 1,22,-1
 174 54.6446609407 l 1,23,-1
 138.644660941 90 l 1,24,-1
 138.644660941 619 l 2,0,1
EndSplineSet
Validated: 524289
Substitution2: "'ss12' Style Set 12 in Latin lookup 26 subtable" N.v
Substitution2: "'ss01' Style Set 1 in Latin lookup 22 subtable" N.v
Substitution2: "'vert' Vertical Alternates in Latin lookup 21 subtable" N.v
Substitution2: "'ss02' Style Set 2 in Latin lookup 7 subtable" N.salt
Position2: "'ss11' Style Set 11 in Latin lookup 1 per glyph data 35" dx=264 dy=0 dh=527 dv=0
EndChar

StartChar: O
Encoding: 79 79 63
Width: 737
GlyphClass: 1
Flags: W
LayerCount: 2
Fore
SplineSet
605.355339059 212 m 2,0,1
 605.355339059 157.038167939 605.355339059 157.038167939 569.273525645 120.956354525 c 0,2,3
 530.610687023 82.2935159025 530.610687023 82.2935159025 527 79.1446609407 c 0,4,5
 484 41.6446609407 484 41.6446609407 367 41.6446609407 c 128,-1,6
 250 41.6446609407 250 41.6446609407 208 79.1446609407 c 0,7,8
 205.069767442 81.7609400104 205.069767442 81.7609400104 167.857214191 118.973493261 c 128,-1,9
 130.644660941 156.186046512 130.644660941 156.186046512 130.644660941 212 c 2,10,-1
 130.644660941 507 l 2,11,12
 130.644660941 562.813953488 130.644660941 562.813953488 166.988630654 599.157923202 c 0,13,14
 205.069767442 637.23905999 205.069767442 637.23905999 208 639.855339059 c 0,15,16
 250 677.355339059 250 677.355339059 367 677.355339059 c 128,-1,17
 484 677.355339059 484 677.355339059 527 639.855339059 c 0,18,19
 530.610687023 636.706484097 530.610687023 636.706484097 567.983013041 599.334158079 c 128,-1,20
 605.355339059 561.961832061 605.355339059 561.961832061 605.355339059 507 c 2,21,-1
 605.355339059 212 l 2,0,1
211.348253323 508.4716619 m 0,22,23
 211.348253323 507.737808634 211.348253323 507.737808634 211.355339059 507 c 2,24,-1
 211.355339059 212 l 2,25,26
 211.355339059 175.375567896 211.355339059 175.375567896 228.464382075 147.947246352 c 1,27,28
 271.398490125 122.355339493 271.398490125 122.355339493 367.736615229 122.355339276 c 128,-1,29
 464.074740332 122.355339059 464.074740332 122.355339059 507.611183243 148.742071153 c 1,30,31
 524.644660762 175.904941009 524.644660762 175.904941009 524.644660941 212 c 2,32,-1
 524.644660941 507 l 2,33,34
 524.644660941 543.095060375 524.644660941 543.095060375 507.611181655 570.257930317 c 1,35,36
 464.571890708 596.649320643 464.571890708 596.649320643 369.534818077 596.649320643 c 0,37,38
 368.27199944 596.649320643 368.27199944 596.649320643 367 596.644660941 c 0,39,40
 271.398491668 596.644660941 271.398491668 596.644660941 228.464383554 571.052755006 c 1,41,42
 211.348253323 544.539452871 211.348253323 544.539452871 211.348253323 508.4716619 c 0,22,23
EndSplineSet
Validated: 524321
Substitution2: "'ss12' Style Set 12 in Latin lookup 26 subtable" O.v
Substitution2: "'ss01' Style Set 1 in Latin lookup 22 subtable" O.v
Substitution2: "'vert' Vertical Alternates in Latin lookup 21 subtable" O.v
Position2: "'ss11' Style Set 11 in Latin lookup 1 per glyph data 42" dx=272 dy=0 dh=543 dv=0
EndChar

StartChar: P
Encoding: 80 80 72
Width: 682
GlyphClass: 1
Flags: W
LayerCount: 2
Fore
SplineSet
226.355339059 584.644660941 m 1,0,-1
 226.355339059 332.355339059 l 1,1,-1
 397 332.355339059 l 2,2,3
 455.760539932 332.355339059 455.760539932 332.355339059 488.36613359 349.684068802 c 1,4,5
 501.644660941 375.0933853 501.644660941 375.0933853 501.644660941 420 c 2,6,-1
 501.644660941 494 l 2,7,8
 501.644660941 540.492791318 501.644660941 540.492791318 487.556656811 566.862465675 c 1,9,10
 454.768041431 584.644660941 454.768041431 584.644660941 397 584.644660941 c 2,11,-1
 226.355339059 584.644660941 l 1,0,-1
226.355339059 251.644660941 m 1,12,-1
 226.355339059 90 l 1,13,-1
 191 54.6446609407 l 1,14,-1
 181 54.6446609407 l 1,15,-1
 145.644660941 90 l 1,16,-1
 145.644660941 630 l 1,17,-1
 181 665.355339059 l 1,18,-1
 397 665.355339059 l 2,19,20
 444 665.355339059 444 665.355339059 472.095238095 655.355339059 c 128,-1,21
 500.19047619 645.355339059 500.19047619 645.355339059 515.829931973 629.715883277 c 0,22,23
 552.831529536 592.714285714 552.831529536 592.714285714 554.355339059 591 c 0,24,25
 570.355339059 573 570.355339059 573 576.355339059 548 c 128,-1,26
 582.355339059 523 582.355339059 523 582.355339059 494 c 2,27,-1
 582.355339059 420 l 2,28,29
 582.355339059 391 582.355339059 391 576.355339059 366.5 c 0,30,31
 569.834103538 339.871621622 569.834103538 339.871621622 552.000747223 322.038265306 c 2,32,-1
 516.645408163 286.682926247 l 2,33,34
 481.607142857 251.644660941 481.607142857 251.644660941 397 251.644660941 c 2,35,-1
 226.355339059 251.644660941 l 1,12,-1
EndSplineSet
Validated: 524289
Substitution2: "'ss12' Style Set 12 in Latin lookup 26 subtable" P.v
Substitution2: "'ss01' Style Set 1 in Latin lookup 22 subtable" P.v
Substitution2: "'vert' Vertical Alternates in Latin lookup 21 subtable" P.v
Position2: "'ss11' Style Set 11 in Latin lookup 1 per glyph data 66" dx=299 dy=0 dh=598 dv=0
EndChar

StartChar: Q
Encoding: 81 81 73
Width: 737
GlyphClass: 1
Flags: W
LayerCount: 2
Fore
SplineSet
211.348253323 508.4716619 m 0,0,1
 211.348253323 507.737808634 211.348253323 507.737808634 211.355339059 507 c 2,2,-1
 211.355339059 212 l 2,3,4
 211.355339059 175.375567896 211.355339059 175.375567896 228.464382075 147.947246352 c 1,5,6
 271.398490125 122.355339493 271.398490125 122.355339493 367.736615229 122.355339276 c 128,-1,7
 464.074740332 122.355339059 464.074740332 122.355339059 507.611183243 148.742071153 c 1,8,9
 524.644660762 175.904941009 524.644660762 175.904941009 524.644660941 212 c 2,10,-1
 524.644660941 507 l 2,11,12
 524.644660941 543.095060375 524.644660941 543.095060375 507.611181655 570.257930317 c 1,13,14
 464.571890708 596.649320643 464.571890708 596.649320643 369.534818077 596.649320643 c 0,15,16
 368.27199944 596.649320643 368.27199944 596.649320643 367 596.644660941 c 0,17,18
 271.398491668 596.644660941 271.398491668 596.644660941 228.464383554 571.052755006 c 1,19,20
 211.348253323 544.539452871 211.348253323 544.539452871 211.348253323 508.4716619 c 0,0,1
130.644660941 212 m 2,21,-1
 130.644660941 507 l 2,22,23
 130.644660941 562.813953488 130.644660941 562.813953488 166.988630654 599.157923202 c 0,24,25
 205.069767442 637.23905999 205.069767442 637.23905999 208 639.855339059 c 0,26,27
 250 677.355339059 250 677.355339059 367 677.355339059 c 128,-1,28
 484 677.355339059 484 677.355339059 527 639.855339059 c 0,29,30
 530.610687023 636.706484097 530.610687023 636.706484097 567.983013041 599.334158079 c 128,-1,31
 605.355339059 561.961832061 605.355339059 561.961832061 605.355339059 507 c 2,32,-1
 605.355339059 212 l 2,33,34
 605.355339059 156.615384615 605.355339059 156.615384615 569.568356811 120.828402367 c 0,35,36
 531.230769231 82.4908147868 531.230769231 82.4908147868 528 79.6446609407 c 0,37,38
 492.867423391 48.6945339278 492.867423391 48.6945339278 407.355339059 42.9341607762 c 1,39,-1
 407.355339059 3.72965547335e-16 l 1,40,-1
 372 -35.3553390593 l 1,41,-1
 362 -35.3553390593 l 1,42,-1
 326.644660941 7.47839290494e-15 l 1,43,-1
 326.644660941 42.9359653573 l 1,44,45
 241.290716475 48.6993802196 241.290716475 48.6993802196 207 79.6446609407 c 0,46,47
 204.4375 81.9571609407 204.4375 81.9571609407 167.54108047 118.85358047 c 128,-1,48
 130.644660941 155.75 130.644660941 155.75 130.644660941 212 c 2,21,-1
EndSplineSet
Validated: 524321
Substitution2: "'ss12' Style Set 12 in Latin lookup 26 subtable" Q.v
Substitution2: "'ss01' Style Set 1 in Latin lookup 22 subtable" Q.v
Substitution2: "'vert' Vertical Alternates in Latin lookup 21 subtable" Q.v
Position2: "'ss11' Style Set 11 in Latin lookup 1 per glyph data 42" dx=272 dy=0 dh=543 dv=0
EndChar

StartChar: R
Encoding: 82 82 74
Width: 743
GlyphClass: 1
Flags: W
LayerCount: 2
Fore
SplineSet
405 665.355339059 m 2,0,1
 458.824 665.355339059 458.824 665.355339059 486.81248 637.366859059 c 0,2,3
 524.339339059 599.84 524.339339059 599.84 526.355339059 597.5 c 0,4,5
 554.355339059 565 554.355339059 565 554.355339059 516 c 2,6,-1
 554.355339059 447 l 2,7,8
 554.355339059 401 554.355339059 401 542.355339059 371.5 c 0,9,10
 538.871426856 362.935382501 538.871426856 362.935382501 533.364573947 355.93011513 c 1,11,12
 551.275615293 348.694402666 551.275615293 348.694402666 563.689167578 336.28085038 c 2,13,-1
 599.044506638 300.925511321 l 2,14,15
 626.355339059 273.614678899 626.355339059 273.614678899 626.355339059 224 c 2,16,-1
 626.355339059 90 l 1,17,-1
 591 54.6446609407 l 1,18,-1
 581 54.6446609407 l 1,19,-1
 545.644660941 90 l 1,20,-1
 545.644660941 224 l 2,21,22
 545.644660941 253.643698154 545.644660941 253.643698154 535.762853907 274.320571408 c 1,23,24
 510.702317718 286.654347791 510.702317718 286.654347791 472.170288907 286.654347791 c 0,25,26
 471.090434655 286.654347791 471.090434655 286.654347791 470 286.644660941 c 2,27,-1
 222.355339059 286.644660941 l 1,28,-1
 222.355339059 90 l 1,29,-1
 187 54.6446609407 l 1,30,-1
 177 54.6446609407 l 1,31,-1
 141.644660941 90 l 1,32,-1
 141.644660941 630 l 1,33,-1
 177 665.355339059 l 1,34,-1
 405 665.355339059 l 2,0,1
222.355339059 584.644660941 m 1,35,-1
 222.355339059 366.355339059 l 1,36,-1
 405 366.355339059 l 2,37,38
 439.178099728 366.355339059 439.178099728 366.355339059 460.896823145 375.471955873 c 1,39,40
 473.644660941 403.147979248 473.644660941 403.147979248 473.644660941 446 c 2,41,-1
 473.644660941 516 l 2,42,43
 473.644660941 549.055201617 473.644660941 549.055201617 460.477136359 573.332053512 c 1,44,45
 438.102304457 584.644660938 438.102304457 584.644660938 405 584.644660941 c 2,46,-1
 222.355339059 584.644660941 l 1,35,-1
EndSplineSet
Validated: 524289
Substitution2: "'ss12' Style Set 12 in Latin lookup 26 subtable" R.v
Substitution2: "'ss01' Style Set 1 in Latin lookup 22 subtable" R.v
Substitution2: "'vert' Vertical Alternates in Latin lookup 21 subtable" R.v
Position2: "'ss11' Style Set 11 in Latin lookup 1 per glyph data 40" dx=269 dy=0 dh=537 dv=0
EndChar

StartChar: S
Encoding: 83 83 78
Width: 650
GlyphClass: 1
Flags: W
LayerCount: 2
Fore
SplineSet
262 584.644660941 m 2,0,1
 233.664668801 584.644660941 233.664668801 584.644660941 213.066949224 574.17612757 c 1,2,3
 205.355339059 558.438850224 205.355339059 558.438850224 205.355339059 539 c 2,4,-1
 205.355339059 457 l 2,5,6
 205.355339059 440.371466121 205.355339059 440.371466121 208.515432076 428.483071767 c 1,7,8
 214.385542682 426.505679462 214.385542682 426.505679462 221 425.355339059 c 2,9,-1
 432 382.355339059 l 2,10,11
 461.387755102 376.477788039 461.387755102 376.477788039 480.699708455 357.165834686 c 0,12,13
 516.457379876 321.408163265 516.457379876 321.408163265 516.855339059 321 c 0,14,15
 536.355339059 301 536.355339059 301 536.355339059 249 c 2,16,-1
 536.355339059 191 l 2,17,18
 536.355339059 148.450549451 536.355339059 148.450549451 508.300756279 120.395966671 c 0,19,20
 471.989010989 84.0842213802 471.989010989 84.0842213802 471 83.1446609407 c 0,21,22
 441 54.6446609407 441 54.6446609407 390 54.6446609407 c 2,23,-1
 141 54.6446609407 l 1,24,-1
 105.644660941 90 l 1,25,-1
 105.644660941 100 l 1,26,-1
 141 135.355339059 l 1,27,-1
 390 135.355339059 l 2,28,29
 422.409244021 135.355339059 422.409244021 135.355339059 445.635291768 148.013258246 c 1,30,31
 455.656439419 166.370643546 455.656439419 166.370643546 455.656439419 189.41444484 c 0,32,33
 455.656439419 190.204468302 455.656439419 190.204468302 455.644660941 191 c 2,34,-1
 455.644660941 249 l 2,35,36
 455.644660941 277.776288169 455.644660941 277.776288169 449.45940356 295.49408587 c 1,37,38
 440.545285319 299.384956944 440.545285319 299.384956944 430 301.644660941 c 2,39,-1
 219 344.644660941 l 2,40,41
 191.732426304 349.888425113 191.732426304 349.888425113 175.723639456 365.897211961 c 2,42,-1
 140.368300396 401.25255102 l 2,43,44
 124.644660941 416.976190476 124.644660941 416.976190476 124.644660941 457 c 2,45,-1
 124.644660941 539 l 2,46,47
 124.644660941 576.647058824 124.644660941 576.647058824 149.447429107 601.44982699 c 0,48,49
 186.352941176 638.355339059 186.352941176 638.355339059 188 639.855339059 c 0,50,51
 216 665.355339059 216 665.355339059 262 665.355339059 c 2,52,-1
 484 665.355339059 l 1,53,-1
 519.355339059 630 l 1,54,-1
 519.355339059 620 l 1,55,-1
 484 584.644660941 l 1,56,-1
 262 584.644660941 l 2,0,1
EndSplineSet
Validated: 524289
Substitution2: "'ss12' Style Set 12 in Latin lookup 26 subtable" S.v
Substitution2: "'ss01' Style Set 1 in Latin lookup 22 subtable" S.v
Substitution2: "'vert' Vertical Alternates in Latin lookup 21 subtable" S.v
Position2: "'ss11' Style Set 11 in Latin lookup 1 per glyph data 71" dx=315 dy=0 dh=630 dv=0
EndChar

StartChar: Scedilla
Encoding: 350 350 81
Width: 650
GlyphClass: 1
Flags: W
LayerCount: 2
Fore
SplineSet
536.355339059 249 m 2,0,-1
 536.355339059 191 l 2,1,2
 536.355339059 148.450549451 536.355339059 148.450549451 508.300756279 120.395966671 c 0,3,4
 471.989010989 84.0842213802 471.989010989 84.0842213802 471 83.1446609407 c 0,5,6
 441 54.6446609407 441 54.6446609407 390 54.6446609407 c 2,7,-1
 377.447834323 54.6446609407 l 1,8,-1
 344.355339059 -36 l 1,9,-1
 309 -71.3553390593 l 1,10,-1
 299 -71.3553390593 l 1,11,-1
 263.644660941 -36 l 1,12,-1
 296.017754134 54.6446609407 l 1,13,-1
 141 54.6446609407 l 1,14,-1
 105.644660941 90 l 1,15,-1
 105.644660941 100 l 1,16,-1
 141 135.355339059 l 1,17,-1
 390 135.355339059 l 2,18,19
 422.409244021 135.355339059 422.409244021 135.355339059 445.635291768 148.013258246 c 1,20,21
 455.656439419 166.370643546 455.656439419 166.370643546 455.656439419 189.41444484 c 0,22,23
 455.656439419 190.204468302 455.656439419 190.204468302 455.644660941 191 c 2,24,-1
 455.644660941 249 l 2,25,26
 455.644660941 277.776288169 455.644660941 277.776288169 449.45940356 295.49408587 c 1,27,28
 440.545285319 299.384956944 440.545285319 299.384956944 430 301.644660941 c 2,29,-1
 219 344.644660941 l 2,30,31
 191.732426304 349.888425113 191.732426304 349.888425113 175.723639456 365.897211961 c 2,32,-1
 140.368300396 401.25255102 l 2,33,34
 124.644660941 416.976190476 124.644660941 416.976190476 124.644660941 457 c 2,35,-1
 124.644660941 539 l 2,36,37
 124.644660941 576.647058824 124.644660941 576.647058824 149.447429107 601.44982699 c 0,38,39
 186.352941176 638.355339059 186.352941176 638.355339059 188 639.855339059 c 0,40,41
 216 665.355339059 216 665.355339059 262 665.355339059 c 2,42,-1
 484 665.355339059 l 1,43,-1
 519.355339059 630 l 1,44,-1
 519.355339059 620 l 1,45,-1
 484 584.644660941 l 1,46,-1
 262 584.644660941 l 2,47,48
 233.664668801 584.644660941 233.664668801 584.644660941 213.066949224 574.17612757 c 1,49,50
 205.355339059 558.438850224 205.355339059 558.438850224 205.355339059 539 c 2,51,-1
 205.355339059 457 l 2,52,53
 205.355339059 440.371466121 205.355339059 440.371466121 208.515432076 428.483071767 c 1,54,55
 214.385542682 426.505679462 214.385542682 426.505679462 221 425.355339059 c 2,56,-1
 432 382.355339059 l 2,57,58
 461.387755102 376.477788039 461.387755102 376.477788039 480.699708455 357.165834686 c 0,59,60
 516.457379876 321.408163265 516.457379876 321.408163265 516.855339059 321 c 0,61,62
 536.355339059 301 536.355339059 301 536.355339059 249 c 2,0,-1
EndSplineSet
Validated: 524289
Substitution2: "'ss12' Style Set 12 in Latin lookup 26 subtable" Scedilla.v
Substitution2: "'ss01' Style Set 1 in Latin lookup 22 subtable" Scedilla.v
Substitution2: "'vert' Vertical Alternates in Latin lookup 21 subtable" Scedilla.v
Substitution2: "'locl' Localized Forms in Latin lookup 0 subtable" Scommaaccent
Position2: "'ss11' Style Set 11 in Latin lookup 1 per glyph data 71" dx=315 dy=0 dh=630 dv=0
EndChar

StartChar: T
Encoding: 84 84 84
Width: 656
GlyphClass: 1
Flags: W
LayerCount: 2
Fore
SplineSet
368.355339059 584.644660941 m 1,0,-1
 368.355339059 90 l 1,1,-1
 333 54.6446609407 l 1,2,-1
 323 54.6446609407 l 1,3,-1
 287.644660941 90 l 1,4,-1
 287.644660941 584.644660941 l 1,5,-1
 118 584.644660941 l 1,6,-1
 82.6446609407 620 l 1,7,-1
 82.6446609407 630 l 1,8,-1
 118 665.355339059 l 1,9,-1
 538 665.355339059 l 1,10,-1
 573.355339059 630 l 1,11,-1
 573.355339059 620 l 1,12,-1
 538 584.644660941 l 1,13,-1
 368.355339059 584.644660941 l 1,0,-1
EndSplineSet
Validated: 524289
Substitution2: "'ss12' Style Set 12 in Latin lookup 26 subtable" T.v
Substitution2: "'ss01' Style Set 1 in Latin lookup 22 subtable" T.v
Substitution2: "'vert' Vertical Alternates in Latin lookup 21 subtable" T.v
Position2: "'ss11' Style Set 11 in Latin lookup 1 per glyph data 69" dx=312 dy=0 dh=624 dv=0
EndChar

StartChar: U
Encoding: 85 85 87
Width: 730
GlyphClass: 1
Flags: W
LayerCount: 2
Fore
SplineSet
205.355339059 417 m 2,0,1
 205.355339059 390 205.355339059 390 210.355339059 365 c 128,-1,2
 215.355339059 340 215.355339059 340 221.355339059 324 c 2,3,-1
 285.355339059 160 l 2,4,5
 290.116542847 147.799415294 290.116542847 147.799415294 295.430905827 137.441207575 c 1,6,7
 303.642720534 135.355339059 303.642720534 135.355339059 314 135.355339059 c 2,8,-1
 412 135.355339059 l 2,9,10
 421.047934041 135.355339059 421.047934041 135.355339059 428.425151544 137.182685274 c 1,11,12
 434.159244244 148.034469625 434.159244244 148.034469625 439.644660941 161 c 2,13,-1
 508.644660941 324 l 2,14,15
 514.704416486 338.315074694 514.704416486 338.315074694 519.674538713 364.157537347 c 128,-1,16
 524.644660941 390 524.644660941 390 524.644660941 417 c 2,17,-1
 524.644660941 630 l 1,18,-1
 560 665.355339059 l 1,19,-1
 570 665.355339059 l 1,20,-1
 605.355339059 630 l 1,21,-1
 605.355339059 417 l 2,22,23
 605.355339059 389 605.355339059 389 600.355339059 362.5 c 128,-1,24
 595.355339059 336 595.355339059 336 588.355339059 320 c 2,25,-1
 519.355339059 157 l 2,26,27
 507.125295062 128.108736644 507.125295062 128.108736644 493.855339059 109 c 0,28,29
 491.926767631 106.285714286 491.926767631 106.285714286 489.600237019 103.959183673 c 2,30,-1
 454.244897959 68.6038446141 l 2,31,32
 440.285714286 54.6446609407 440.285714286 54.6446609407 412 54.6446609407 c 2,33,-1
 314 54.6446609407 l 2,34,35
 284.358974359 54.6446609407 284.358974359 54.6446609407 269.918474688 69.0851606119 c 2,36,-1
 234.563135628 104.440499671 l 2,37,38
 232.439532736 106.564102564 232.439532736 106.564102564 230.644660941 109 c 0,39,40
 216.644660941 128 216.644660941 128 205.644660941 156 c 2,41,-1
 141.644660941 320 l 2,42,43
 135.115693686 336.730478589 135.115693686 336.730478589 129.880177313 362.865239295 c 128,-1,44
 124.644660941 389 124.644660941 389 124.644660941 417 c 2,45,-1
 124.644660941 630 l 1,46,-1
 160 665.355339059 l 1,47,-1
 170 665.355339059 l 1,48,-1
 205.355339059 630 l 1,49,-1
 205.355339059 417 l 2,0,1
EndSplineSet
Validated: 524289
Substitution2: "'ss12' Style Set 12 in Latin lookup 26 subtable" U.v
Substitution2: "'ss01' Style Set 1 in Latin lookup 22 subtable" U.v
Substitution2: "'vert' Vertical Alternates in Latin lookup 21 subtable" U.v
Position2: "'ss11' Style Set 11 in Latin lookup 1 per glyph data 38" dx=267 dy=0 dh=534 dv=0
EndChar

StartChar: Uogonek
Encoding: 370 370 97
Width: 746
GlyphClass: 1
Flags: W
LayerCount: 2
Fore
SplineSet
407 -161.355339059 m 2,0,1
 377.239130435 -161.355339059 377.239130435 -161.355339059 364.946597353 -149.062805978 c 2,2,-1
 329.591258294 -113.707466919 l 2,3,4
 318.394660941 -102.510869565 318.394660941 -102.510869565 318.394660941 -76.21875 c 0,5,6
 318.394660941 -64.875 318.394660941 -64.875 320.644660941 -51 c 0,7,8
 333.394213288 37.1844037339 333.394213288 37.1844037339 334.801752881 43.8288435737 c 1,9,10
 249.625343326 49.3085073327 249.625343326 49.3085073327 215.5 80.1446609407 c 0,11,12
 212.90625 82.4884109407 212.90625 82.4884109407 175.119270316 120.275390625 c 0,13,14
 139 157 139 157 138.644660941 213 c 2,15,-1
 138.644660941 630 l 1,16,-1
 174 665.355339059 l 1,17,-1
 184 665.355339059 l 1,18,-1
 219.355339059 630 l 1,19,-1
 219.355339059 213 l 2,20,21
 219.355339059 176.113380878 219.355339059 176.113380878 236.4932839 148.555010202 c 1,22,23
 279.13393941 123.35533915 279.13393941 123.35533915 374.367723871 123.355339104 c 128,-1,24
 469.601508332 123.355339059 469.601508332 123.355339059 512.535616446 148.947244994 c 1,25,26
 529.651746677 175.460547129 529.651746677 175.460547129 529.651746677 211.5283381 c 0,27,28
 529.651746677 212.262191366 529.651746677 212.262191366 529.644660941 213 c 2,29,-1
 529.644660941 630 l 1,30,-1
 565 665.355339059 l 1,31,-1
 575 665.355339059 l 1,32,-1
 610.355339059 630 l 1,33,-1
 610.355339059 213 l 2,34,35
 610.355339059 155.989010989 610.355339059 155.989010989 574.57874203 120.21241396 c 2,36,-1
 539.223402971 84.8570749003 l 2,37,38
 505.171177533 50.804849463 505.171177533 50.804849463 415.527683025 44.0925924212 c 1,39,40
 414.283737629 38.5761565349 414.283737629 38.5761565349 401.355339059 -53 c 0,41,42
 399.900793605 -63.9090909091 399.900793605 -63.9090909091 399.900793605 -70.3986434847 c 128,-1,43
 399.900793605 -76.8881960603 399.900793605 -76.8881960603 400.160474378 -80.4246351382 c 0,44,45
 403.420218424 -80.6446609407 403.420218424 -80.6446609407 407 -80.6446609407 c 2,46,-1
 431 -80.6446609407 l 1,47,-1
 466.355339059 -116 l 1,48,-1
 466.355339059 -126 l 1,49,-1
 431 -161.355339059 l 1,50,-1
 407 -161.355339059 l 2,0,1
EndSplineSet
Validated: 524321
Substitution2: "'ss12' Style Set 12 in Latin lookup 26 subtable" Uogonek.v
Substitution2: "'ss01' Style Set 1 in Latin lookup 22 subtable" Uogonek.v
Substitution2: "'vert' Vertical Alternates in Latin lookup 21 subtable" Uogonek.v
Position2: "'ss11' Style Set 11 in Latin lookup 1 per glyph data 38" dx=267 dy=0 dh=534 dv=0
EndChar

StartChar: V
Encoding: 86 86 98
Width: 730
GlyphClass: 1
Flags: W
LayerCount: 2
Fore
SplineSet
132.644660941 468 m 1,0,-1
 131.644660941 630 l 1,1,-1
 167 665.355339059 l 1,2,-1
 177 665.355339059 l 1,3,-1
 212.355339059 630 l 1,4,-1
 213.355339059 468 l 1,5,6
 217.855339059 441 217.855339059 441 217.855339059 426.65625 c 2,7,8
 217.855339059 426.65625 217.855339059 426.65625 217.283910488 416.75255102 c 0,9,10
 217.283910488 404.714285714 217.283910488 404.714285714 229.355339059 375 c 2,11,-1
 317.855339059 160.5 l 2,12,13
 323.462239845 146.91039301 323.462239845 146.91039301 328.853221551 136.3686543 c 1,14,15
 335.442794092 134.827462291 335.442794092 134.827462291 339.927800068 134.827462291 c 128,-1,16
 344.412806045 134.827462291 344.412806045 134.827462291 368.794133734 135.45262454 c 128,-1,17
 393.175461423 136.077786788 393.175461423 136.077786788 400.137227751 137.491936088 c 1,18,19
 409.002749035 154.248127656 409.002749035 154.248127656 412.144660941 161.5 c 2,20,-1
 504.644660941 375 l 2,21,22
 515.644660941 400 515.644660941 400 516.644660941 418.5 c 0,23,24
 520.645740814 460.005463469 520.645740814 460.005463469 520.645740814 463.915262 c 128,-1,25
 520.645740814 467.82506053 520.645740814 467.82506053 519.644660941 630 c 1,26,-1
 555 665.355339059 l 1,27,-1
 565 665.355339059 l 1,28,-1
 600.355339059 630 l 1,29,-1
 601.355339059 468 l 2,30,31
 601.355339059 432 601.355339059 432 597.833854684 416.357421875 c 0,32,33
 585.355339059 372 585.355339059 372 585.355339059 371 c 2,34,-1
 492.855339059 157.5 l 1,35,36
 476.355339059 130 476.355339059 130 470.20108374 117.781914894 c 128,-1,37
 464.046828421 105.563829787 464.046828421 105.563829787 460.925506556 102.442507922 c 2,38,-1
 425.570167497 67.0871688628 l 2,39,40
 414.021276596 55.5382779619 414.021276596 55.5382779619 384.5 55.1446609407 c 0,41,42
 344.496042273 54.1189184348 344.496042273 54.1189184348 343.505420946 54.1189184348 c 0,43,44
 318.393904448 54.1189184348 318.393904448 54.1189184348 301.852158194 70.6606646882 c 0,45,46
 265.298243948 107.214578935 265.298243948 107.214578935 264.144660941 108.5 c 0,47,48
 249.811807915 125.798270893 249.811807915 125.798270893 237.144660941 156.5 c 2,49,-1
 148.644660941 371 l 2,50,51
 135.998323169 401.651293242 135.998323169 401.651293242 135.998323169 414.703673248 c 128,-1,52
 135.998323169 427.756053255 135.998323169 427.756053255 132.644660941 468 c 1,0,-1
EndSplineSet
Validated: 524289
Substitution2: "'ss12' Style Set 12 in Latin lookup 26 subtable" V.v
Substitution2: "'ss01' Style Set 1 in Latin lookup 22 subtable" V.v
Substitution2: "'vert' Vertical Alternates in Latin lookup 21 subtable" V.v
Position2: "'ss11' Style Set 11 in Latin lookup 1 per glyph data 46" dx=275 dy=0 dh=550 dv=0
EndChar

StartChar: W
Encoding: 87 87 99
Width: 831
GlyphClass: 1
Flags: W
LayerCount: 2
Fore
SplineSet
439 380.355339059 m 2,0,1
 455.516129032 380.355339059 455.516129032 380.355339059 465.648283039 370.223185053 c 2,2,-1
 501.003622098 334.867845994 l 2,3,4
 510.774693898 325.096774194 510.774693898 325.096774194 523.355339059 298 c 2,5,-1
 593.797164479 139.935416133 l 1,6,-1
 614.644660941 235 l 2,7,8
 618.644660941 254 618.644660941 254 619.144152482 289.447120274 c 128,-1,9
 619.643644023 324.894240547 619.643644023 324.894240547 619.644660941 336 c 2,10,-1
 619.644660941 630 l 1,11,-1
 655 665.355339059 l 1,12,-1
 665 665.355339059 l 1,13,-1
 700.355339059 630 l 1,14,-1
 700.355339059 335 l 2,15,16
 700.355339059 313 700.355339059 313 699.855339059 283 c 128,-1,17
 699.355339059 253 699.355339059 253 695.355339059 234 c 2,18,-1
 670.355339059 121 l 2,19,20
 666.663031367 106.230769231 666.663031367 106.230769231 659.136404148 98.7041420118 c 0,21,22
 623.153846154 62.7215840176 623.153846154 62.7215840176 622.5 62.1446609407 c 0,23,24
 614 54.6446609407 614 54.6446609407 602 54.6446609407 c 2,25,-1
 595 54.6446609407 l 2,26,27
 586 54.6446609407 586 54.6446609407 578.4 57.3046609407 c 128,-1,28
 570.8 59.9646609407 570.8 59.9646609407 567.2224 63.5422609407 c 2,29,-1
 531.867060941 98.8976 l 2,30,31
 528.564660941 102.2 528.564660941 102.2 526.644660941 107 c 0,32,33
 443.309919065 296.027585231 443.309919065 296.027585231 441.649968975 299.550155453 c 0,34,35
 440.347035768 299.644660941 440.347035768 299.644660941 439 299.644660941 c 2,36,-1
 394 299.644660941 l 2,37,38
 392.65296407 299.644660941 392.65296407 299.644660941 391.350030835 299.550155372 c 0,39,40
 389.690083099 296.027590138 389.690083099 296.027590138 306.355339059 107 c 0,41,42
 304.435339059 102.2 304.435339059 102.2 301.132939059 98.8976 c 2,43,-1
 265.7776 63.5422609407 l 2,44,45
 262.2 59.9646609407 262.2 59.9646609407 254.6 57.3046609407 c 128,-1,46
 247 54.6446609407 247 54.6446609407 238 54.6446609407 c 2,47,-1
 231 54.6446609407 l 2,48,49
 217.923076923 54.6446609407 217.923076923 54.6446609407 209.218934911 63.3488029525 c 2,50,-1
 173.863595852 98.7041420118 l 2,51,52
 166.336968633 106.230769231 166.336968633 106.230769231 162.644660941 121 c 2,53,-1
 137.644660941 234 l 2,54,55
 133.644660941 253 133.644660941 253 133.144660941 283 c 128,-1,56
 132.644660941 313 132.644660941 313 132.644660941 335 c 2,57,-1
 132.644660941 630 l 1,58,-1
 168 665.355339059 l 1,59,-1
 178 665.355339059 l 1,60,-1
 213.355339059 630 l 1,61,-1
 213.355339059 336 l 2,62,63
 213.355339059 314 213.355339059 314 213.855339059 284 c 128,-1,64
 214.355339059 254 214.355339059 254 218.355339059 235 c 2,65,-1
 239.202835521 139.935416133 l 1,66,-1
 309.644660941 298 l 2,67,68
 322.225306102 325.096774194 322.225306102 325.096774194 331.996377902 334.867845994 c 0,69,70
 367.677419355 370.548887446 367.677419355 370.548887446 368 370.855339059 c 0,71,72
 378 380.355339059 378 380.355339059 394 380.355339059 c 2,73,-1
 439 380.355339059 l 2,0,1
EndSplineSet
Validated: 524289
Substitution2: "'ss12' Style Set 12 in Latin lookup 26 subtable" W.v
Substitution2: "'ss01' Style Set 1 in Latin lookup 22 subtable" W.v
Substitution2: "'vert' Vertical Alternates in Latin lookup 21 subtable" W.v
Substitution2: "'ss02' Style Set 2 in Latin lookup 8 subtable" W.salt
Position2: "'ss11' Style Set 11 in Latin lookup 1 per glyph data 27" dx=225 dy=0 dh=449 dv=0
EndChar

StartChar: X
Encoding: 88 88 104
Width: 737
GlyphClass: 1
Flags: W
LayerCount: 2
Fore
SplineSet
212.355339059 135 m 2,0,-1
 212.355339059 90 l 1,1,-1
 177 54.6446609407 l 1,2,-1
 167 54.6446609407 l 1,3,-1
 131.644660941 90 l 1,4,-1
 131.644660941 135 l 2,5,6
 131.644660941 157 131.644660941 157 133.144660941 176.5 c 128,-1,7
 134.644660941 196 134.644660941 196 146.644660941 212 c 2,8,-1
 266.644660941 376 l 1,9,-1
 146.644660941 538 l 2,10,11
 135.644660941 554 135.644660941 554 133.644660941 573.5 c 128,-1,12
 131.644660941 593 131.644660941 593 131.644660941 615 c 2,13,-1
 131.644660941 630 l 1,14,-1
 167 665.355339059 l 1,15,-1
 177 665.355339059 l 1,16,-1
 212.355339059 630 l 1,17,-1
 212.355339059 615 l 2,18,19
 212.355339059 594 212.355339059 594 214.355339059 575 c 128,-1,20
 216.355339059 556 216.355339059 556 226.355339059 542 c 2,21,-1
 320.166199015 415.355339059 l 1,22,-1
 419.96082965 415.355339059 l 1,23,-1
 510.644660941 542 l 2,24,25
 520.644660941 556 520.644660941 556 522.667951394 573.754658091 c 128,-1,26
 524.691241848 591.509316182 524.691241848 591.509316182 524.691241848 601.87822756 c 128,-1,27
 524.691241848 612.247138937 524.691241848 612.247138937 524.644660941 615 c 2,28,-1
 524.644660941 630 l 1,29,-1
 560 665.355339059 l 1,30,-1
 570 665.355339059 l 1,31,-1
 605.355339059 630 l 1,32,-1
 605.355339059 615 l 2,33,34
 605.355339059 593 605.355339059 593 603.355339059 573.5 c 128,-1,35
 601.355339059 554 601.355339059 554 590.355339059 538 c 2,36,-1
 472.355339059 374 l 1,37,-1
 590.355339059 212 l 2,38,39
 601.355339059 196 601.355339059 196 603.17766953 176.5 c 128,-1,40
 605 157 605 157 605.355339059 135 c 2,41,-1
 605.355339059 90 l 1,42,-1
 570 54.6446609407 l 1,43,-1
 560 54.6446609407 l 1,44,-1
 524.644660941 90 l 1,45,-1
 524.644660941 135 l 2,46,47
 524.644660941 156 524.644660941 156 522.644660941 175 c 128,-1,48
 520.644660941 194 520.644660941 194 510.644660941 208 c 2,49,-1
 419.179072484 334.644660941 l 1,50,-1
 318.602684683 334.644660941 l 1,51,-1
 226.355339059 208 l 2,52,53
 216.355339059 195 216.355339059 195 214.355339059 175.5 c 128,-1,54
 212.355339059 156 212.355339059 156 212.355339059 135 c 2,0,-1
EndSplineSet
Validated: 524289
Substitution2: "'ss12' Style Set 12 in Latin lookup 26 subtable" X.v
Substitution2: "'ss01' Style Set 1 in Latin lookup 22 subtable" X.v
Substitution2: "'vert' Vertical Alternates in Latin lookup 21 subtable" X.v
Substitution2: "'ss02' Style Set 2 in Latin lookup 9 subtable" X.salt
Position2: "'ss11' Style Set 11 in Latin lookup 1 per glyph data 42" dx=272 dy=0 dh=543 dv=0
EndChar

StartChar: Y
Encoding: 89 89 105
Width: 705
GlyphClass: 1
Flags: W
LayerCount: 2
Fore
SplineSet
494.644660941 442 m 2,0,1
 504.644660941 455 504.644660941 455 506.667951394 473.221885935 c 128,-1,2
 508.691241848 491.443771871 508.691241848 491.443771871 508.691241848 501.845455404 c 128,-1,3
 508.691241848 512.247138937 508.691241848 512.247138937 508.644660941 515 c 2,4,-1
 508.644660941 630 l 1,5,-1
 544 665.355339059 l 1,6,-1
 554 665.355339059 l 1,7,-1
 589.355339059 630 l 1,8,-1
 589.355339059 515 l 2,9,10
 589.355339059 493 589.355339059 493 587.855339059 473.5 c 128,-1,11
 586.355339059 454 586.355339059 454 574.355339059 438 c 2,12,-1
 474.355339059 303 l 2,13,14
 467.244227948 293.222222222 467.244227948 293.222222222 459.836820541 285.814814815 c 2,15,-1
 424.481481481 250.459475755 l 2,16,17
 409.895881023 235.873875297 409.895881023 235.873875297 393.355339059 230.135148879 c 1,18,-1
 393.355339059 90 l 1,19,-1
 358 54.6446609407 l 1,20,-1
 348 54.6446609407 l 1,21,-1
 312.644660941 90 l 1,22,-1
 312.644660941 229.4260641 l 1,23,24
 294.868284564 235.10970971 294.868284564 235.10970971 279.518518519 250.459475755 c 2,25,-1
 244.163179459 285.814814815 l 2,26,27
 236.755772052 293.222222222 236.755772052 293.222222222 229.644660941 303 c 2,28,-1
 132.644660941 438 l 2,29,30
 121.644660941 453 121.644660941 453 119.644660941 473 c 0,31,32
 118 493 118 493 117.644660941 515 c 2,33,-1
 117.644660941 630 l 1,34,-1
 153 665.355339059 l 1,35,-1
 163 665.355339059 l 1,36,-1
 198.355339059 630 l 1,37,-1
 198.355339059 515 l 2,38,39
 198.355339059 494 198.355339059 494 200.355339059 475.5 c 128,-1,40
 202.355339059 457 202.355339059 457 212.355339059 442 c 2,41,-1
 304.106267388 314.305409027 l 1,42,43
 321.053133694 306.355339059 321.053133694 306.355339059 338 306.355339059 c 2,44,-1
 365 306.355339059 l 2,45,46
 385.041256254 306.355339059 385.041256254 306.355339059 401.161179716 315.797300347 c 1,47,-1
 494.644660941 442 l 2,0,1
EndSplineSet
Validated: 524289
Substitution2: "'ss12' Style Set 12 in Latin lookup 26 subtable" Y.v
Substitution2: "'ss01' Style Set 1 in Latin lookup 22 subtable" Y.v
Substitution2: "'vert' Vertical Alternates in Latin lookup 21 subtable" Y.v
Substitution2: "'ss02' Style Set 2 in Latin lookup 10 subtable" Y.salt
Position2: "'ss11' Style Set 11 in Latin lookup 1 per glyph data 59" dx=288 dy=0 dh=575 dv=0
EndChar

StartChar: Z
Encoding: 90 90 110
Width: 660
GlyphClass: 1
Flags: W
LayerCount: 2
Fore
SplineSet
201.355339059 137 m 2,0,-1
 201.355339059 135.355339059 l 1,1,-1
 524 135.355339059 l 1,2,-1
 559.355339059 100 l 1,3,-1
 559.355339059 90 l 1,4,-1
 524 54.6446609407 l 1,5,-1
 187 54.6446609407 l 2,6,7
 171.484848485 54.6446609407 171.484848485 54.6446609407 163.962350781 62.167158645 c 0,8,9
 128.371933668 97.7575757576 128.371933668 97.7575757576 128.144660941 98 c 0,10,11
 120.644660941 106 120.644660941 106 120.644660941 123 c 2,12,-1
 120.644660941 139 l 2,13,14
 120.644660941 150 120.644660941 150 125.644660941 158.5 c 128,-1,15
 130.644660941 167 130.644660941 167 137.644660941 176 c 2,16,-1
 430.644660941 552 l 2,17,18
 437.644660941 561 437.644660941 561 441.144660941 567 c 128,-1,19
 444.644660941 573 444.644660941 573 444.644660941 583 c 2,20,-1
 444.644660941 584.644660941 l 1,21,-1
 154 584.644660941 l 1,22,-1
 118.644660941 620 l 1,23,-1
 118.644660941 630 l 1,24,-1
 154 665.355339059 l 1,25,-1
 459 665.355339059 l 2,26,27
 474.515151515 665.355339059 474.515151515 665.355339059 482.037649219 657.832841355 c 0,28,29
 517.628066332 622.242424242 517.628066332 622.242424242 517.855339059 622 c 0,30,31
 525.355339059 614 525.355339059 614 525.355339059 597 c 2,32,-1
 525.355339059 581 l 2,33,34
 525.355339059 570 525.355339059 570 520.355339059 561.5 c 128,-1,35
 515.355339059 553 515.355339059 553 508.355339059 544 c 2,36,-1
 215.355339059 168 l 2,37,38
 208.355339059 159 208.355339059 159 204.855339059 153 c 128,-1,39
 201.355339059 147 201.355339059 147 201.355339059 137 c 2,0,-1
EndSplineSet
Validated: 524289
Substitution2: "'ss12' Style Set 12 in Latin lookup 26 subtable" Z.v
Substitution2: "'ss01' Style Set 1 in Latin lookup 22 subtable" Z.v
Substitution2: "'vert' Vertical Alternates in Latin lookup 21 subtable" Z.v
Position2: "'ss11' Style Set 11 in Latin lookup 1 per glyph data 68" dx=310 dy=0 dh=620 dv=0
EndChar

StartChar: AE
Encoding: 198 198 114
Width: 1005
GlyphClass: 1
Flags: W
LayerCount: 2
Fore
SplineSet
122.644660941 291 m 2,0,1
 122.644660941 320 122.644660941 320 124.644660941 341 c 128,-1,2
 126.644660941 362 126.644660941 362 133.644660941 383 c 2,3,-1
 207.644660941 586 l 2,4,5
 216.293309589 608.486486486 216.293309589 608.486486486 226.06394509 618.257121987 c 0,6,7
 262.945945946 655.139122843 262.945945946 655.139122843 264.5 656.355339059 c 0,8,9
 276 665.355339059 276 665.355339059 294 665.355339059 c 2,10,-1
 866 665.355339059 l 1,11,-1
 901.355339059 630 l 1,12,-1
 901.355339059 620 l 1,13,-1
 866 584.644660941 l 1,14,-1
 594.355339059 584.644660941 l 1,15,-1
 594.355339059 405.355339059 l 1,16,-1
 785 405.355339059 l 1,17,-1
 820.355339059 370 l 1,18,-1
 820.355339059 360 l 1,19,-1
 785 324.644660941 l 1,20,-1
 594.355339059 324.644660941 l 1,21,-1
 594.355339059 135.355339059 l 1,22,-1
 866 135.355339059 l 1,23,-1
 901.355339059 100 l 1,24,-1
 901.355339059 90 l 1,25,-1
 866 54.6446609407 l 1,26,-1
 549 54.6446609407 l 1,27,-1
 513.644660941 90 l 1,28,-1
 513.644660941 227.644660941 l 1,29,-1
 203.355339059 227.644660941 l 1,30,-1
 203.355339059 90 l 1,31,-1
 168 54.6446609407 l 1,32,-1
 158 54.6446609407 l 1,33,-1
 122.644660941 90 l 1,34,-1
 122.644660941 291 l 2,0,1
513.644660941 308.355339059 m 1,35,-1
 513.644660941 584.644660941 l 1,36,-1
 294 584.644660941 l 2,37,38
 291.497353861 584.644660941 291.497353861 584.644660941 289.147809089 584.421968045 c 0,39,40
 288.060210682 581.190391072 288.060210682 581.190391072 214.355339059 379 c 0,41,42
 207.355339059 360 207.355339059 360 205.679312838 342.820731236 c 128,-1,43
 204.003286618 325.641462472 204.003286618 325.641462472 203.565257078 308.355339059 c 1,44,-1
 513.644660941 308.355339059 l 1,35,-1
EndSplineSet
Validated: 524289
Substitution2: "'ss12' Style Set 12 in Latin lookup 26 subtable" AE.v
Substitution2: "'ss01' Style Set 1 in Latin lookup 22 subtable" AE.v
Substitution2: "'vert' Vertical Alternates in Latin lookup 21 subtable" AE.v
Substitution2: "'ss02' Style Set 2 in Latin lookup 5 subtable" AE.salt
Position2: "'ss11' Style Set 11 in Latin lookup 1 per glyph data 20" dx=138 dy=0 dh=275 dv=0
EndChar

StartChar: Eth
Encoding: 208 208 115
Width: 756
GlyphClass: 1
Flags: W
LayerCount: 2
Fore
SplineSet
231.355339059 313.644660941 m 1,0,-1
 231.355339059 135.355339059 l 1,1,-1
 430 135.355339059 l 2,2,3
 478 135.355339059 478 135.355339059 507.5 144.855339059 c 0,4,5
 521.011712269 149.206568434 521.011712269 149.206568434 531.691311957 155.026300629 c 1,6,7
 544.644660941 180.172567564 544.644660941 180.172567564 544.644660941 226 c 2,8,-1
 544.644660941 491 l 2,9,10
 544.644660941 537.313608877 544.644660941 537.313608877 530.088367924 564.354742253 c 1,11,12
 493.749403554 584.644660941 493.749403554 584.644660941 430 584.644660941 c 2,13,-1
 231.355339059 584.644660941 l 1,14,-1
 231.355339059 394.355339059 l 1,15,-1
 290 394.355339059 l 1,16,-1
 325.355339059 359 l 1,17,-1
 325.355339059 349 l 1,18,-1
 290 313.644660941 l 1,19,-1
 231.355339059 313.644660941 l 1,0,-1
150.644660941 394.355339059 m 1,20,-1
 150.644660941 630 l 1,21,-1
 186 665.355339059 l 1,22,-1
 430 665.355339059 l 2,23,24
 481 665.355339059 481 665.355339059 511.426136364 654.730339059 c 128,-1,25
 541.852272727 644.105339059 541.852272727 644.105339059 558.614411157 627.34320063 c 0,26,27
 595.19624815 590.761363636 595.19624815 590.761363636 596.355339059 589.5 c 0,28,29
 613.355339059 571 613.355339059 571 619.355339059 545.5 c 128,-1,30
 625.355339059 520 625.355339059 520 625.355339059 491 c 2,31,-1
 625.355339059 226 l 2,32,33
 625.355339059 197 625.355339059 197 619.855339059 172 c 0,34,35
 614.060752165 145.660968661 614.060752165 145.660968661 595.814598319 127.414814815 c 2,36,-1
 560.459259259 92.0594757555 l 2,37,38
 523.044444444 54.6446609407 523.044444444 54.6446609407 430 54.6446609407 c 2,39,-1
 186 54.6446609407 l 1,40,-1
 150.644660941 90 l 1,41,-1
 150.644660941 313.644660941 l 1,42,-1
 110 313.644660941 l 1,43,-1
 74.6446609407 349 l 1,44,-1
 74.6446609407 359 l 1,45,-1
 110 394.355339059 l 1,46,-1
 150.644660941 394.355339059 l 1,20,-1
EndSplineSet
Validated: 524289
Substitution2: "'ss12' Style Set 12 in Latin lookup 26 subtable" Eth.v
Substitution2: "'ss01' Style Set 1 in Latin lookup 22 subtable" Eth.v
Substitution2: "'vert' Vertical Alternates in Latin lookup 21 subtable" Eth.v
Position2: "'ss11' Style Set 11 in Latin lookup 1 per glyph data 34" dx=262 dy=0 dh=524 dv=0
EndChar

StartChar: Oslash
Encoding: 216 216 116
Width: 737
GlyphClass: 1
Flags: W
LayerCount: 2
Fore
SplineSet
373.551436222 41.6446609407 m 0,0,1
 318.102872443 41.6446609407 318.102872443 41.6446609407 277.640944958 48.8076276252 c 1,2,-1
 265.355339059 20 l 1,3,-1
 230 -15.3553390593 l 1,4,-1
 219 -15.3553390593 l 1,5,-1
 183.644660941 20 l 1,6,-1
 206.258020468 73.5182842157 l 1,7,8
 195.231593633 80.2413501361 195.231593633 80.2413501361 187.074074074 88.3988696949 c 2,9,-1
 151.718735015 123.754208754 l 2,10,11
 145.291125587 130.181818182 145.291125587 130.181818182 140.644660941 137.5 c 0,12,13
 121 169 121 169 120.644660941 212 c 2,14,-1
 120.644660941 507 l 2,15,16
 120.644660941 563.674418605 120.644660941 563.674418605 151.378571162 594.408328826 c 2,17,-1
 186.733910222 629.763667886 l 2,18,19
 213.011074197 656.040831861 213.011074197 656.040831861 264 667.855339059 c 0,20,21
 305 677 305 677 361.037623688 677.17766953 c 128,-1,22
 417.075247376 677.355339059 417.075247376 677.355339059 459.082620456 670.111007123 c 1,23,-1
 471.644660941 700 l 1,24,-1
 507 735.355339059 l 1,25,-1
 518 735.355339059 l 1,26,-1
 553.355339059 700 l 1,27,-1
 529.607389084 644.843471025 l 1,28,29
 540.539238927 638.042904256 540.539238927 638.042904256 548.660112658 629.922030525 c 2,30,-1
 584.015451717 594.566691466 l 2,31,32
 590.613071018 587.969072165 590.613071018 587.969072165 595.355339059 580.5 c 0,33,34
 615 549 615 549 615.355339059 507 c 2,35,-1
 615.355339059 212 l 2,36,37
 615.355339059 156.285714286 615.355339059 156.285714286 583.926767631 124.857142857 c 2,38,-1
 548.571428571 89.5018037978 l 2,39,40
 500.714285714 41.6446609407 500.714285714 41.6446609407 373.551436222 41.6446609407 c 0,0,1
367 122.355339059 m 0,41,42
 472.842944473 122.355339059 472.842944473 122.355339059 517.771396351 149.648196532 c 1,43,44
 534.651841688 176.447270486 534.651841688 176.447270486 534.651841688 210.588552363 c 0,45,46
 534.651841688 211.292714536 534.651841688 211.292714536 534.644660941 212 c 2,47,-1
 534.644660941 507 l 2,48,49
 534.644660941 541.077874591 534.644660941 541.077874591 520.137935631 567.520630597 c 1,50,51
 511.404244614 572.52708636 511.404244614 572.52708636 500.892335818 576.644433233 c 1,52,-1
 310.267946589 125.211220559 l 1,53,54
 335.778091795 122.355339059 335.778091795 122.355339059 367 122.355339059 c 0,41,42
427.016068894 593.585988885 m 1,55,56
 400.226534589 596.644660941 400.226534589 596.644660941 367 596.644660941 c 0,57,58
 308 596.644660941 308 596.644660941 272.066350033 588.352280179 c 128,-1,59
 236.132700066 580.059899417 236.132700066 580.059899417 214.62907566 567.14841499 c 1,60,61
 201.355339059 542.911565514 201.355339059 542.911565514 201.355339059 507 c 2,62,-1
 201.355339059 212 l 2,63,64
 201.355339059 177.337493524 201.355339059 177.337493524 215.969114909 150.17935843 c 1,65,66
 224.660405309 145.268334652 224.660405309 145.268334652 235.136034115 141.23531866 c 1,67,-1
 427.016068894 593.585988885 l 1,55,56
EndSplineSet
Validated: 524321
Substitution2: "'ss12' Style Set 12 in Latin lookup 26 subtable" Oslash.v
Substitution2: "'ss01' Style Set 1 in Latin lookup 22 subtable" Oslash.v
Substitution2: "'vert' Vertical Alternates in Latin lookup 21 subtable" Oslash.v
Position2: "'ss11' Style Set 11 in Latin lookup 1 per glyph data 42" dx=272 dy=0 dh=543 dv=0
EndChar

StartChar: Thorn
Encoding: 222 222 117
Width: 692
GlyphClass: 1
Flags: W
LayerCount: 2
Fore
SplineSet
222.355339059 566.355339059 m 1,0,-1
 393 566.355339059 l 2,1,2
 440 566.355339059 440 566.355339059 468.095238095 556.355339059 c 128,-1,3
 496.19047619 546.355339059 496.19047619 546.355339059 511.829931973 530.715883277 c 0,4,5
 548.831529536 493.714285714 548.831529536 493.714285714 550.355339059 492 c 0,6,7
 566.355339059 474 566.355339059 474 572.355339059 449 c 128,-1,8
 578.355339059 424 578.355339059 424 578.355339059 395 c 2,9,-1
 578.355339059 320 l 2,10,11
 578.355339059 291 578.355339059 291 572.355339059 266.5 c 0,12,13
 565.834103538 239.871621622 565.834103538 239.871621622 548.000747223 222.038265306 c 2,14,-1
 512.645408163 186.682926247 l 2,15,16
 477.607142857 151.644660941 477.607142857 151.644660941 393 151.644660941 c 2,17,-1
 222.355339059 151.644660941 l 1,18,-1
 222.355339059 90 l 1,19,-1
 187 54.6446609407 l 1,20,-1
 177 54.6446609407 l 1,21,-1
 141.644660941 90 l 1,22,-1
 141.644660941 630 l 1,23,-1
 177 665.355339059 l 1,24,-1
 187 665.355339059 l 1,25,-1
 222.355339059 630 l 1,26,-1
 222.355339059 566.355339059 l 1,0,-1
222.355339059 485.644660941 m 1,27,-1
 222.355339059 232.355339059 l 1,28,-1
 393 232.355339059 l 2,29,30
 451.760539932 232.355339059 451.760539932 232.355339059 484.36613359 249.684068802 c 1,31,32
 497.644660941 275.0933853 497.644660941 275.0933853 497.644660941 320 c 2,33,-1
 497.644660941 395 l 2,34,35
 497.644660941 441.492791318 497.644660941 441.492791318 483.556656811 467.862465675 c 1,36,37
 450.745239637 485.657027 450.745239637 485.657027 396.042481301 485.657027 c 0,38,39
 394.53123215 485.657027 394.53123215 485.657027 393 485.644660941 c 2,40,-1
 222.355339059 485.644660941 l 1,27,-1
EndSplineSet
Validated: 524289
Substitution2: "'ss12' Style Set 12 in Latin lookup 26 subtable" Thorn.v
Substitution2: "'ss01' Style Set 1 in Latin lookup 22 subtable" Thorn.v
Substitution2: "'vert' Vertical Alternates in Latin lookup 21 subtable" Thorn.v
Position2: "'ss11' Style Set 11 in Latin lookup 1 per glyph data 63" dx=294 dy=0 dh=588 dv=0
EndChar

StartChar: Hbar
Encoding: 294 294 119
Width: 779
GlyphClass: 1
Flags: W
LayerCount: 2
Fore
SplineSet
231.355339059 206.644660941 m 1,0,-1
 231.355339059 90 l 1,1,-1
 196 54.6446609407 l 1,2,-1
 186 54.6446609407 l 1,3,-1
 150.644660941 90 l 1,4,-1
 150.644660941 468.644660941 l 1,5,-1
 120 468.644660941 l 1,6,-1
 84.6446609407 504 l 1,7,-1
 84.6446609407 514 l 1,8,-1
 120 549.355339059 l 1,9,-1
 150.644660941 549.355339059 l 1,10,-1
 150.644660941 630 l 1,11,-1
 186 665.355339059 l 1,12,-1
 196 665.355339059 l 1,13,-1
 231.355339059 630 l 1,14,-1
 231.355339059 549.355339059 l 1,15,-1
 547.644660941 549.355339059 l 1,16,-1
 547.644660941 630 l 1,17,-1
 583 665.355339059 l 1,18,-1
 593 665.355339059 l 1,19,-1
 628.355339059 630 l 1,20,-1
 628.355339059 549.355339059 l 1,21,-1
 659 549.355339059 l 1,22,-1
 694.355339059 514 l 1,23,-1
 694.355339059 504 l 1,24,-1
 659 468.644660941 l 1,25,-1
 628.355339059 468.644660941 l 1,26,-1
 628.355339059 90 l 1,27,-1
 593 54.6446609407 l 1,28,-1
 583 54.6446609407 l 1,29,-1
 547.644660941 90 l 1,30,-1
 547.644660941 206.644660941 l 1,31,-1
 231.355339059 206.644660941 l 1,0,-1
547.644660941 287.355339059 m 1,32,-1
 547.644660941 468.644660941 l 1,33,-1
 231.355339059 468.644660941 l 1,34,-1
 231.355339059 287.355339059 l 1,35,-1
 547.644660941 287.355339059 l 1,32,-1
EndSplineSet
Validated: 524289
Substitution2: "'ss12' Style Set 12 in Latin lookup 26 subtable" Hbar.v
Substitution2: "'ss01' Style Set 1 in Latin lookup 22 subtable" Hbar.v
Substitution2: "'vert' Vertical Alternates in Latin lookup 21 subtable" Hbar.v
Position2: "'ss11' Style Set 11 in Latin lookup 1 per glyph data 30" dx=251 dy=0 dh=501 dv=0
EndChar

StartChar: IJ
Encoding: 306 306 120
Width: 744
GlyphClass: 1
Flags: W
LayerCount: 2
Fore
SplineSet
420 54.6446609407 m 2,0,-1
 159 54.6446609407 l 1,1,-1
 123.644660941 90 l 1,2,-1
 123.644660941 100 l 1,3,-1
 159 135.355339059 l 1,4,-1
 420 135.355339059 l 2,5,6
 475.283840527 135.355339059 475.283840527 135.355339059 506.492979925 150.944694903 c 1,7,8
 526.650713269 188.351821324 526.650713269 188.351821324 526.650713269 253.726036119 c 0,9,10
 526.650713269 254.858819522 526.650713269 254.858819522 526.644660941 256 c 2,11,-1
 526.644660941 630 l 1,12,-1
 562 665.355339059 l 1,13,-1
 572 665.355339059 l 1,14,-1
 607.355339059 630 l 1,15,-1
 607.355339059 256 l 2,16,17
 607.355339059 216 607.355339059 216 601.355339059 185 c 0,18,19
 593.905339059 146.508333333 593.905339059 146.508333333 572.081033504 124.684027778 c 2,20,-1
 536.725694444 89.3286887185 l 2,21,22
 521.75 74.352994274 521.75 74.352994274 494.875 64.4988276073 c 128,-1,23
 468 54.6446609407 468 54.6446609407 420 54.6446609407 c 2,0,-1
187 364.644660941 m 1,24,-1
 177 364.644660941 l 1,25,-1
 141.644660941 400 l 1,26,-1
 141.644660941 630 l 1,27,-1
 177 665.355339059 l 1,28,-1
 187 665.355339059 l 1,29,-1
 222.355339059 630 l 1,30,-1
 222.355339059 400 l 1,31,-1
 187 364.644660941 l 1,24,-1
EndSplineSet
Validated: 524289
Substitution2: "'ss12' Style Set 12 in Latin lookup 26 subtable" IJ.v
Substitution2: "'ss01' Style Set 1 in Latin lookup 22 subtable" IJ.v
Substitution2: "'vert' Vertical Alternates in Latin lookup 21 subtable" IJ.v
Substitution2: "'ss08' Style Set 8 in Latin lookup 16 subtable" IJ.stack
Position2: "'ss11' Style Set 11 in Latin lookup 1 per glyph data 39" dx=268 dy=0 dh=536 dv=0
EndChar

StartChar: Ldot
Encoding: 319 319 121
Width: 695
GlyphClass: 1
Flags: W
LayerCount: 2
Fore
SplineSet
491.644660941 442 m 1,0,-1
 491.644660941 497 l 1,1,-1
 527 532.355339059 l 1,2,-1
 537 532.355339059 l 1,3,-1
 572.355339059 497 l 1,4,-1
 572.355339059 442 l 1,5,-1
 537 406.644660941 l 1,6,-1
 527 406.644660941 l 1,7,-1
 491.644660941 442 l 1,0,-1
223.355339059 135.355339059 m 1,8,-1
 500.644660941 135.355339059 l 1,9,-1
 500.644660941 217 l 1,10,-1
 536 252.355339059 l 1,11,-1
 546 252.355339059 l 1,12,-1
 581.355339059 217 l 1,13,-1
 581.355339059 90 l 1,14,-1
 546 54.6446609407 l 1,15,-1
 178 54.6446609407 l 1,16,-1
 142.644660941 90 l 1,17,-1
 142.644660941 630 l 1,18,-1
 178 665.355339059 l 1,19,-1
 188 665.355339059 l 1,20,-1
 223.355339059 630 l 1,21,-1
 223.355339059 135.355339059 l 1,8,-1
532 466.644660941 m 1,22,-1
 534.855339059 469.5 l 1,23,-1
 532 472.355339059 l 1,24,-1
 529.144660941 469.5 l 1,25,-1
 532 466.644660941 l 1,22,-1
EndSplineSet
Validated: 524289
Substitution2: "'ss12' Style Set 12 in Latin lookup 26 subtable" Ldot.v
Substitution2: "'ss01' Style Set 1 in Latin lookup 22 subtable" Ldot.v
Substitution2: "'vert' Vertical Alternates in Latin lookup 21 subtable" Ldot.v
Substitution2: "'ss05' Style Set 5 in Latin lookup 13 subtable" Ldot.salt
Position2: "'ss11' Style Set 11 in Latin lookup 1 per glyph data 61" dx=293 dy=0 dh=585 dv=0
EndChar

StartChar: Lslash
Encoding: 321 321 122
Width: 705
GlyphClass: 1
Flags: W
LayerCount: 2
Fore
SplineSet
233.355339059 135.355339059 m 1,0,-1
 510.644660941 135.355339059 l 1,1,-1
 510.644660941 297 l 1,2,-1
 546 332.355339059 l 1,3,-1
 556 332.355339059 l 1,4,-1
 591.355339059 297 l 1,5,-1
 591.355339059 90 l 1,6,-1
 556 54.6446609407 l 1,7,-1
 188 54.6446609407 l 1,8,-1
 152.644660941 90 l 1,9,-1
 152.644660941 349.752104431 l 1,10,-1
 110 342.644660941 l 1,11,-1
 74.6446609407 378 l 1,12,-1
 74.6446609407 388 l 1,13,-1
 110 423.355339059 l 1,14,-1
 152.644660941 430.462782549 l 1,15,-1
 152.644660941 630 l 1,16,-1
 188 665.355339059 l 1,17,-1
 198 665.355339059 l 1,18,-1
 233.355339059 630 l 1,19,-1
 233.355339059 444.037447122 l 1,20,-1
 310 456.355339059 l 1,21,-1
 345.355339059 421 l 1,22,-1
 345.355339059 411 l 1,23,-1
 310 375.644660941 l 1,24,-1
 233.355339059 363.326769004 l 1,25,-1
 233.355339059 135.355339059 l 1,0,-1
EndSplineSet
Validated: 524289
Substitution2: "'ss12' Style Set 12 in Latin lookup 26 subtable" Lslash.v
Substitution2: "'ss01' Style Set 1 in Latin lookup 22 subtable" Lslash.v
Substitution2: "'vert' Vertical Alternates in Latin lookup 21 subtable" Lslash.v
Substitution2: "'ss05' Style Set 5 in Latin lookup 13 subtable" Lslash.salt
Position2: "'ss11' Style Set 11 in Latin lookup 1 per glyph data 59" dx=288 dy=0 dh=575 dv=0
EndChar

StartChar: Eng
Encoding: 330 330 123
Width: 746
GlyphClass: 1
Flags: W
LayerCount: 2
Fore
SplineSet
526.644660941 100 m 2,0,-1
 526.644660941 507 l 2,1,2
 526.644660941 543.886619122 526.644660941 543.886619122 509.5067161 571.444989798 c 1,3,4
 466.86606059 596.64466085 466.86606059 596.64466085 371.632276129 596.644660896 c 128,-1,5
 276.398491668 596.644660941 276.398491668 596.644660941 233.464383554 571.052755006 c 1,6,7
 216.348253323 544.539452871 216.348253323 544.539452871 216.348253323 508.4716619 c 0,8,9
 216.348253323 507.737808634 216.348253323 507.737808634 216.355339059 507 c 2,10,-1
 216.355339059 90 l 1,11,-1
 181 54.6446609407 l 1,12,-1
 171 54.6446609407 l 1,13,-1
 135.644660941 90 l 1,14,-1
 135.644660941 507 l 2,15,16
 135.644660941 562.813953488 135.644660941 562.813953488 171.988630654 599.157923202 c 0,17,18
 210.069767442 637.23905999 210.069767442 637.23905999 213 639.855339059 c 0,19,20
 255 677.355339059 255 677.355339059 372 677.355339059 c 128,-1,21
 489 677.355339059 489 677.355339059 530.5 639.855339059 c 0,22,23
 533.09375 637.511589059 533.09375 637.511589059 570.22454453 600.38079453 c 128,-1,24
 607.355339059 563.25 607.355339059 563.25 607.355339059 507 c 2,25,-1
 607.355339059 100 l 2,26,27
 607.355339059 52.9739130435 607.355339059 52.9739130435 583.637834333 29.2564083176 c 0,28,29
 545.773913043 -8.60751297237 545.773913043 -8.60751297237 543 -10.8553390593 c 0,30,31
 514 -34.3553390593 514 -34.3553390593 445 -34.3553390593 c 1,32,-1
 409.644660941 1 l 1,33,-1
 409.644660941 11 l 1,34,-1
 445 46.3553390593 l 1,35,36
 492.096133708 46.3553390593 492.096133708 46.3553390593 519.521342467 58.5751560737 c 1,37,38
 526.644660941 75.7895198576 526.644660941 75.7895198576 526.644660941 100 c 2,0,-1
EndSplineSet
Validated: 524321
Substitution2: "'ss12' Style Set 12 in Latin lookup 26 subtable" Eng.v
Substitution2: "'ss01' Style Set 1 in Latin lookup 22 subtable" Eng.v
Substitution2: "'vert' Vertical Alternates in Latin lookup 21 subtable" Eng.v
Position2: "'ss11' Style Set 11 in Latin lookup 1 per glyph data 38" dx=267 dy=0 dh=534 dv=0
EndChar

StartChar: OE
Encoding: 338 338 124
Width: 1015
GlyphClass: 1
Flags: W
LayerCount: 2
Fore
SplineSet
326 54.6446609407 m 2,0,1
 232.955555556 54.6446609407 232.955555556 54.6446609407 195.540740741 92.0594757555 c 0,2,3
 159.400216496 128.2 159.400216496 128.2 158.644660941 129 c 0,4,5
 141.644660941 147 141.644660941 147 136.144660941 172 c 128,-1,6
 130.644660941 197 130.644660941 197 130.644660941 226 c 2,7,-1
 130.644660941 491 l 2,8,9
 130.644660941 520 130.644660941 520 136.644660941 545.5 c 0,10,11
 143.137667934 573.09527972 143.137667934 573.09527972 162.030249784 591.98786157 c 2,12,-1
 197.385588843 627.34320063 l 2,13,14
 214.147727273 644.105339059 214.147727273 644.105339059 244.573863636 654.55266953 c 128,-1,15
 275 665 275 665 326 665.355339059 c 2,16,-1
 866 665.355339059 l 1,17,-1
 901.355339059 630 l 1,18,-1
 901.355339059 620 l 1,19,-1
 866 584.644660941 l 1,20,-1
 594.355339059 584.644660941 l 1,21,-1
 594.355339059 405.355339059 l 1,22,-1
 785 405.355339059 l 1,23,-1
 820.355339059 370 l 1,24,-1
 820.355339059 360 l 1,25,-1
 785 324.644660941 l 1,26,-1
 594.355339059 324.644660941 l 1,27,-1
 594.355339059 135.355339059 l 1,28,-1
 866 135.355339059 l 1,29,-1
 901.355339059 100 l 1,30,-1
 901.355339059 90 l 1,31,-1
 866 54.6446609407 l 1,32,-1
 326 54.6446609407 l 2,0,1
326 135.355339059 m 2,33,-1
 513.644660941 135.355339059 l 1,34,-1
 513.644660941 584.644660941 l 1,35,-1
 326 584.644660941 l 2,36,37
 262.250596446 584.644660941 262.250596446 584.644660941 225.911632076 564.354742253 c 1,38,39
 211.355339059 537.313608877 211.355339059 537.313608877 211.355339059 491 c 2,40,-1
 211.355339059 221 l 2,41,42
 211.355339059 179.569466127 211.355339059 179.569466127 224.033676784 155.155572579 c 1,43,44
 235.441761864 148.873412964 235.441761864 148.873412964 250 144.355339059 c 0,45,46
 279 135.355339059 279 135.355339059 326 135.355339059 c 2,33,-1
EndSplineSet
Validated: 524289
Substitution2: "'ss12' Style Set 12 in Latin lookup 26 subtable" OE.v
Substitution2: "'ss01' Style Set 1 in Latin lookup 22 subtable" OE.v
Substitution2: "'vert' Vertical Alternates in Latin lookup 21 subtable" OE.v
Position2: "'ss11' Style Set 11 in Latin lookup 1 per glyph data 18" dx=133 dy=0 dh=265 dv=0
EndChar

StartChar: Tbar
Encoding: 358 358 125
Width: 656
GlyphClass: 1
Flags: W
LayerCount: 2
Fore
SplineSet
368.355339059 351.355339059 m 1,0,-1
 467 351.355339059 l 1,1,-1
 502.355339059 316 l 1,2,-1
 502.355339059 306 l 1,3,-1
 467 270.644660941 l 1,4,-1
 368.355339059 270.644660941 l 1,5,-1
 368.355339059 90 l 1,6,-1
 333 54.6446609407 l 1,7,-1
 323 54.6446609407 l 1,8,-1
 287.644660941 90 l 1,9,-1
 287.644660941 270.644660941 l 1,10,-1
 188 270.644660941 l 1,11,-1
 152.644660941 306 l 1,12,-1
 152.644660941 316 l 1,13,-1
 188 351.355339059 l 1,14,-1
 287.644660941 351.355339059 l 1,15,-1
 287.644660941 584.644660941 l 1,16,-1
 118 584.644660941 l 1,17,-1
 82.6446609407 620 l 1,18,-1
 82.6446609407 630 l 1,19,-1
 118 665.355339059 l 1,20,-1
 538 665.355339059 l 1,21,-1
 573.355339059 630 l 1,22,-1
 573.355339059 620 l 1,23,-1
 538 584.644660941 l 1,24,-1
 368.355339059 584.644660941 l 1,25,-1
 368.355339059 351.355339059 l 1,0,-1
EndSplineSet
Validated: 524289
Substitution2: "'ss12' Style Set 12 in Latin lookup 26 subtable" Tbar.v
Substitution2: "'ss01' Style Set 1 in Latin lookup 22 subtable" Tbar.v
Substitution2: "'vert' Vertical Alternates in Latin lookup 21 subtable" Tbar.v
Position2: "'ss11' Style Set 11 in Latin lookup 1 per glyph data 69" dx=312 dy=0 dh=624 dv=0
EndChar

StartChar: Germandbls
Encoding: 7838 7838 126
Width: 759
GlyphClass: 1
Flags: W
LayerCount: 2
Fore
SplineSet
431 665.355339059 m 2,0,1
 474.35 665.355339059 474.35 665.355339059 494.58 645.125339059 c 2,2,-1
 529.935339059 609.77 l 2,3,4
 546.972986118 592.732352941 546.972986118 592.732352941 546.972986118 561.961937716 c 0,5,6
 546.972986118 542.705882353 546.972986118 542.705882353 540.355339059 518 c 2,7,-1
 510.176266576 409.355339059 l 1,8,-1
 511 409.355339059 l 2,9,10
 566.166666667 409.355339059 566.166666667 409.355339059 592.362654321 383.159351405 c 2,11,-1
 627.71799338 347.804012346 l 2,12,13
 651.355339059 324.166666667 651.355339059 324.166666667 651.355339059 276 c 2,14,-1
 651.355339059 188 l 2,15,16
 651.355339059 139.38317757 651.355339059 139.38317757 627.728472084 115.756310595 c 0,17,18
 591.214953271 79.2427917818 591.214953271 79.2427917818 590 78.1446609407 c 0,19,20
 564 55 564 55 502 54.6446609407 c 2,21,-1
 446 54.6446609407 l 1,22,-1
 410.644660941 90 l 1,23,-1
 410.644660941 100 l 1,24,-1
 446 135.355339059 l 1,25,-1
 502 135.355339059 l 2,26,27
 540.142732237 135.355339059 540.142732237 135.355339059 563.439872408 145.097758853 c 1,28,29
 570.644660941 162.796385399 570.644660941 162.796385399 570.644660941 188 c 2,30,-1
 570.644660941 276 l 2,31,32
 570.644660941 301.542462727 570.644660941 301.542462727 563.408705145 319.258279389 c 1,33,34
 542.126479484 328.644660941 542.126479484 328.644660941 511 328.644660941 c 2,35,-1
 451 328.644660941 l 1,36,-1
 415.644660941 364 l 1,37,-1
 459.644660941 520 l 2,38,39
 465.574485502 542.350877193 465.574485502 542.350877193 465.574485502 556.780920099 c 128,-1,40
 465.574485502 571.210963006 465.574485502 571.210963006 463.047535069 580.526050293 c 1,41,42
 449.486858216 584.644660941 449.486858216 584.644660941 431 584.644660941 c 2,43,-1
 228.355339059 584.644660941 l 1,44,-1
 228.355339059 90 l 1,45,-1
 193 54.6446609407 l 1,46,-1
 183 54.6446609407 l 1,47,-1
 147.644660941 90 l 1,48,-1
 147.644660941 630 l 1,49,-1
 183 665.355339059 l 1,50,-1
 431 665.355339059 l 2,0,1
EndSplineSet
Validated: 524289
Substitution2: "'ss12' Style Set 12 in Latin lookup 26 subtable" Germandbls.v
Substitution2: "'ss01' Style Set 1 in Latin lookup 22 subtable" Germandbls.v
Substitution2: "'vert' Vertical Alternates in Latin lookup 21 subtable" Germandbls.v
Position2: "'ss11' Style Set 11 in Latin lookup 1 per glyph data 33" dx=261 dy=0 dh=521 dv=0
EndChar

StartChar: A.salt
Encoding: 57600 57600 127
Width: 736
GlyphClass: 1
Flags: W
LayerCount: 2
Fore
SplineSet
600.355339059 507 m 2,0,-1
 600.355339059 90 l 1,1,-1
 565 54.6446609407 l 1,2,-1
 555 54.6446609407 l 1,3,-1
 519.644660941 90 l 1,4,-1
 519.644660941 235.644660941 l 1,5,-1
 219.355339059 235.644660941 l 1,6,-1
 219.355339059 90 l 1,7,-1
 184 54.6446609407 l 1,8,-1
 174 54.6446609407 l 1,9,-1
 138.644660941 90 l 1,10,-1
 138.644660941 507 l 2,11,12
 138.644660941 567.1125 138.644660941 567.1125 170.017785941 598.485625 c 2,13,-1
 205.373125 633.840964059 l 2,14,15
 228.4921875 656.960026559 228.4921875 656.960026559 268.74609375 666.98001328 c 128,-1,16
 309 677 309 677 368 677.17766953 c 0,17,18
 479.58423957 677.513688502 479.58423957 677.513688502 525 640.355339059 c 0,19,20
 529.4 636.755339059 529.4 636.755339059 533.28 632.875339059 c 2,21,-1
 568.635339059 597.52 l 2,22,23
 600.355339059 565.8 600.355339059 565.8 600.355339059 507 c 2,0,-1
219.355339059 507 m 2,24,-1
 219.355339059 316.355339059 l 1,25,-1
 519.644660941 316.355339059 l 1,26,-1
 519.644660941 507 l 2,27,28
 519.644660941 544.815697455 519.644660941 544.815697455 505.700175068 569.844430693 c 1,29,30
 487.100211855 580.869607977 487.100211855 580.869607977 455.550105927 588.757134459 c 128,-1,31
 424 596.644660941 424 596.644660941 368 596.644660941 c 0,32,33
 277.331871211 596.644660941 277.331871211 596.644660941 232.997525579 570.704103489 c 1,34,35
 219.355339059 545.852629122 219.355339059 545.852629122 219.355339059 507 c 2,24,-1
EndSplineSet
Validated: 524321
Substitution2: "'ss12' Style Set 12 in Latin lookup 26 subtable" A.salt_v
Substitution2: "'ss01' Style Set 1 in Latin lookup 22 subtable" A.salt_v
Substitution2: "'vert' Vertical Alternates in Latin lookup 21 subtable" A.salt_v
Position2: "'ss11' Style Set 11 in Latin lookup 1 per glyph data 43" dx=272 dy=0 dh=544 dv=0
EndChar

StartChar: Aring.salt
Encoding: 57606 57606 133
Width: 736
GlyphClass: 1
Flags: W
LayerCount: 2
Fore
SplineSet
189.644660941 760 m 2,0,-1
 189.644660941 805 l 2,1,2
 189.644660941 852.258064516 189.644660941 852.258064516 211.931861773 874.545265349 c 0,3,4
 249.064516129 911.677919704 249.064516129 911.677919704 251 913.355339059 c 0,5,6
 283.307692308 941.355339059 283.307692308 941.355339059 368.416277093 941.355339059 c 128,-1,7
 453.524861878 941.355339059 453.524861878 941.355339059 481.087939929 913.792261009 c 0,8,9
 516.907825247 877.972375691 516.907825247 877.972375691 517.355339059 877.5 c 0,10,11
 544.355339059 849 544.355339059 849 544.355339059 805 c 2,12,-1
 544.355339059 760 l 2,13,14
 544.355339059 714.497206704 544.355339059 714.497206704 517.051728061 687.193595706 c 2,15,-1
 489.915773877 660.057641521 l 1,16,17
 516.312082374 649.843256685 516.312082374 649.843256685 533.28 632.875339059 c 2,18,-1
 568.635339059 597.52 l 2,19,20
 600.355339059 565.8 600.355339059 565.8 600.355339059 507 c 2,21,-1
 600.355339059 90 l 1,22,-1
 565 54.6446609407 l 1,23,-1
 555 54.6446609407 l 1,24,-1
 519.644660941 90 l 1,25,-1
 519.644660941 235.644660941 l 1,26,-1
 219.355339059 235.644660941 l 1,27,-1
 219.355339059 90 l 1,28,-1
 184 54.6446609407 l 1,29,-1
 174 54.6446609407 l 1,30,-1
 138.644660941 90 l 1,31,-1
 138.644660941 507 l 2,32,33
 138.644660941 567.1125 138.644660941 567.1125 170.017785941 598.485625 c 2,34,-1
 205.373125 633.840964059 l 2,35,36
 220.772421946 649.240261005 220.772421946 649.240261005 244.084139076 658.905349451 c 1,37,-1
 212.64287735 690.346611177 l 2,38,39
 189.644660941 713.344827586 189.644660941 713.344827586 189.644660941 760 c 2,0,-1
219.355339059 507 m 2,40,-1
 219.355339059 316.355339059 l 1,41,-1
 519.644660941 316.355339059 l 1,42,-1
 519.644660941 507 l 2,43,44
 519.644660941 544.815697455 519.644660941 544.815697455 505.700175068 569.844430693 c 1,45,46
 487.100211855 580.869607977 487.100211855 580.869607977 455.550105927 588.757134459 c 128,-1,47
 424 596.644660941 424 596.644660941 368 596.644660941 c 0,48,49
 277.331871211 596.644660941 277.331871211 596.644660941 232.997525579 570.704103489 c 1,50,51
 219.355339059 545.852629122 219.355339059 545.852629122 219.355339059 507 c 2,40,-1
368.925156233 860.653524383 m 0,52,53
 367.471673532 860.653524383 367.471673532 860.653524383 366 860.644660941 c 0,54,55
 308.316721135 860.644660941 308.316721135 860.644660941 278.967997895 847.907108412 c 1,56,57
 270.355339059 829.408878316 270.355339059 829.408878316 270.355339059 805 c 2,58,-1
 270.355339059 760 l 2,59,60
 270.355339059 736.063983187 270.355339059 736.063983187 278.637532354 717.974220465 c 1,61,62
 307.991077914 705.355339059 307.991077914 705.355339059 366.70849973 705.355339059 c 128,-1,63
 425.425921546 705.355339059 425.425921546 705.355339059 455.331210575 718.598239628 c 1,64,65
 463.644660941 736.475683841 463.644660941 736.475683841 463.644660941 760 c 2,66,-1
 463.644660941 805 l 2,67,68
 463.644660941 828.736096708 463.644660941 828.736096708 454.762947316 847.10964934 c 1,69,70
 425.742395624 860.653524383 425.742395624 860.653524383 368.925156233 860.653524383 c 0,52,53
EndSplineSet
Validated: 524289
Substitution2: "'ss12' Style Set 12 in Latin lookup 26 subtable" Aring.salt_v
Substitution2: "'ss01' Style Set 1 in Latin lookup 22 subtable" Aring.salt_v
Substitution2: "'vert' Vertical Alternates in Latin lookup 21 subtable" Aring.salt_v
Position2: "'ss11' Style Set 11 in Latin lookup 1 per glyph data 43" dx=272 dy=0 dh=544 dv=0
EndChar

StartChar: Aogonek.salt
Encoding: 57609 57609 136
Width: 736
GlyphClass: 1
Flags: W
LayerCount: 2
Fore
SplineSet
558 -151.355339059 m 2,0,1
 528.239130435 -151.355339059 528.239130435 -151.355339059 515.946597353 -139.062805978 c 2,2,-1
 480.591258294 -103.707466919 l 2,3,4
 469.394660941 -92.5108695652 469.394660941 -92.5108695652 469.394660941 -66.21875 c 0,5,6
 469.394660941 -54.875 469.394660941 -54.875 471.644660941 -41 c 2,7,-1
 483.644660941 42 l 2,8,9
 487.644660941 66 487.644660941 66 493.644660941 76 c 0,10,11
 495.490814787 79.0769230769 495.490814787 79.0769230769 498.66241242 82.2485207101 c 2,12,-1
 519.644660941 103.230769231 l 1,13,-1
 519.644660941 235.644660941 l 1,14,-1
 219.355339059 235.644660941 l 1,15,-1
 219.355339059 90 l 1,16,-1
 184 54.6446609407 l 1,17,-1
 174 54.6446609407 l 1,18,-1
 138.644660941 90 l 1,19,-1
 138.644660941 507 l 2,20,21
 138.644660941 567.1125 138.644660941 567.1125 170.017785941 598.485625 c 2,22,-1
 205.373125 633.840964059 l 2,23,24
 228.4921875 656.960026559 228.4921875 656.960026559 268.74609375 666.98001328 c 128,-1,25
 309 677 309 677 368 677.17766953 c 0,26,27
 479.58423957 677.513688502 479.58423957 677.513688502 525 640.355339059 c 0,28,29
 529.4 636.755339059 529.4 636.755339059 533.28 632.875339059 c 2,30,-1
 568.635339059 597.52 l 2,31,32
 600.355339059 565.8 600.355339059 565.8 600.355339059 507 c 2,33,-1
 600.355339059 90 l 1,34,-1
 566.978566993 56.6232279341 l 1,35,36
 565.488585362 50.3104728869 565.488585362 50.3104728869 564.355339059 42 c 2,37,-1
 552.355339059 -43 l 2,38,39
 550.900793605 -53.9090909091 550.900793605 -53.9090909091 550.900793605 -60.3986434847 c 128,-1,40
 550.900793605 -66.8881960603 550.900793605 -66.8881960603 551.160474378 -70.4246351382 c 0,41,42
 554.420218424 -70.6446609407 554.420218424 -70.6446609407 558 -70.6446609407 c 2,43,-1
 582 -70.6446609407 l 1,44,-1
 617.355339059 -106 l 1,45,-1
 617.355339059 -116 l 1,46,-1
 582 -151.355339059 l 1,47,-1
 558 -151.355339059 l 2,0,1
219.355339059 507 m 2,48,-1
 219.355339059 316.355339059 l 1,49,-1
 519.644660941 316.355339059 l 1,50,-1
 519.644660941 507 l 2,51,52
 519.644660941 544.815697455 519.644660941 544.815697455 505.700175068 569.844430693 c 1,53,54
 487.100211855 580.869607977 487.100211855 580.869607977 455.550105927 588.757134459 c 128,-1,55
 424 596.644660941 424 596.644660941 368 596.644660941 c 0,56,57
 277.331871211 596.644660941 277.331871211 596.644660941 232.997525579 570.704103489 c 1,58,59
 219.355339059 545.852629122 219.355339059 545.852629122 219.355339059 507 c 2,48,-1
EndSplineSet
Validated: 524321
Substitution2: "'ss12' Style Set 12 in Latin lookup 26 subtable" Aogonek.salt_v
Substitution2: "'ss01' Style Set 1 in Latin lookup 22 subtable" Aogonek.salt_v
Substitution2: "'vert' Vertical Alternates in Latin lookup 21 subtable" Aogonek.salt_v
Position2: "'ss11' Style Set 11 in Latin lookup 1 per glyph data 43" dx=272 dy=0 dh=544 dv=0
EndChar

StartChar: E.salt
Encoding: 57610 57610 137
Width: 643
GlyphClass: 1
Flags: W
LayerCount: 2
Fore
SplineSet
322 54.6446609407 m 2,0,1
 223.468085106 54.6446609407 223.468085106 54.6446609407 192.173834314 85.9389117329 c 2,2,-1
 156.818495255 121.294250792 l 2,3,4
 127 151 127 151 126.644660941 219 c 2,5,-1
 126.644660941 499 l 2,6,7
 126.644660941 568.054794521 126.644660941 568.054794521 156.915255799 598.325389379 c 0,8,9
 193.123287671 634.533421251 193.123287671 634.533421251 194 635.355339059 c 0,10,11
 226 665.355339059 226 665.355339059 322 665.355339059 c 2,12,-1
 504 665.355339059 l 1,13,-1
 539.355339059 630 l 1,14,-1
 539.355339059 620 l 1,15,-1
 504 584.644660941 l 1,16,-1
 322 584.644660941 l 2,17,18
 254.3474131 584.644660941 254.3474131 584.644660941 220.383066555 568.391562524 c 1,19,20
 207.35533906 541.785579787 207.35533906 541.785579787 207.355339059 499 c 2,21,-1
 207.355339059 404.355339059 l 1,22,-1
 434 404.355339059 l 1,23,-1
 469.355339059 369 l 1,24,-1
 469.355339059 359 l 1,25,-1
 434 323.644660941 l 1,26,-1
 207.355339059 323.644660941 l 1,27,-1
 207.355339059 219 l 2,28,29
 207.355339059 177.075817894 207.355339059 177.075817894 219.83560216 150.959969004 c 1,30,31
 253.255916901 135.347599956 253.255916901 135.347599956 319.054039392 135.347599956 c 0,32,33
 320.518994803 135.347599956 320.518994803 135.347599956 322 135.355339059 c 2,34,-1
 504 135.355339059 l 1,35,-1
 539.355339059 100 l 1,36,-1
 539.355339059 90 l 1,37,-1
 504 54.6446609407 l 1,38,-1
 322 54.6446609407 l 2,0,1
EndSplineSet
Validated: 524289
Substitution2: "'ss12' Style Set 12 in Latin lookup 26 subtable" E.salt_v
Substitution2: "'ss01' Style Set 1 in Latin lookup 22 subtable" E.salt_v
Substitution2: "'vert' Vertical Alternates in Latin lookup 21 subtable" E.salt_v
Position2: "'ss11' Style Set 11 in Latin lookup 1 per glyph data 76" dx=319 dy=0 dh=637 dv=0
EndChar

StartChar: Eogonek.salt
Encoding: 57618 57618 145
Width: 643
GlyphClass: 1
Flags: W
LayerCount: 2
Fore
SplineSet
480 -151.355339059 m 2,0,1
 450.239130435 -151.355339059 450.239130435 -151.355339059 437.946597353 -139.062805978 c 2,2,-1
 402.591258294 -103.707466919 l 2,3,4
 391.394660941 -92.5108695652 391.394660941 -92.5108695652 391.394660941 -66.21875 c 0,5,6
 391.394660941 -54.875 391.394660941 -54.875 393.644660941 -41 c 2,7,-1
 405.644660941 42 l 2,8,9
 406.73714986 48.9190964899 406.73714986 48.9190964899 408.028560786 54.6446609407 c 1,10,-1
 322 54.6446609407 l 2,11,12
 223.468085106 54.6446609407 223.468085106 54.6446609407 192.173834314 85.9389117329 c 2,13,-1
 156.818495255 121.294250792 l 2,14,15
 127 151 127 151 126.644660941 219 c 2,16,-1
 126.644660941 499 l 2,17,18
 126.644660941 568.054794521 126.644660941 568.054794521 156.915255799 598.325389379 c 0,19,20
 193.123287671 634.533421251 193.123287671 634.533421251 194 635.355339059 c 0,21,22
 226 665.355339059 226 665.355339059 322 665.355339059 c 2,23,-1
 504 665.355339059 l 1,24,-1
 539.355339059 630 l 1,25,-1
 539.355339059 620 l 1,26,-1
 504 584.644660941 l 1,27,-1
 322 584.644660941 l 2,28,29
 254.3474131 584.644660941 254.3474131 584.644660941 220.383066555 568.391562524 c 1,30,31
 207.35533906 541.785579787 207.35533906 541.785579787 207.355339059 499 c 2,32,-1
 207.355339059 404.355339059 l 1,33,-1
 434 404.355339059 l 1,34,-1
 469.355339059 369 l 1,35,-1
 469.355339059 359 l 1,36,-1
 434 323.644660941 l 1,37,-1
 207.355339059 323.644660941 l 1,38,-1
 207.355339059 219 l 2,39,40
 207.355339059 177.075817894 207.355339059 177.075817894 219.83560216 150.959969004 c 1,41,42
 253.255916901 135.347599956 253.255916901 135.347599956 319.054039392 135.347599956 c 0,43,44
 320.518994803 135.347599956 320.518994803 135.347599956 322 135.355339059 c 2,45,-1
 504 135.355339059 l 1,46,-1
 539.355339059 100 l 1,47,-1
 539.355339059 90 l 1,48,-1
 504 54.6446609407 l 1,49,-1
 488.53096188 54.6446609407 l 1,50,51
 487.412243896 49.4864092622 487.412243896 49.4864092622 474.355339059 -43 c 0,52,53
 472.900793605 -53.9090909091 472.900793605 -53.9090909091 472.900793605 -60.3986434847 c 128,-1,54
 472.900793605 -66.8881960603 472.900793605 -66.8881960603 473.160474378 -70.4246351382 c 0,55,56
 476.420218424 -70.6446609407 476.420218424 -70.6446609407 480 -70.6446609407 c 2,57,-1
 504 -70.6446609407 l 1,58,-1
 539.355339059 -106 l 1,59,-1
 539.355339059 -116 l 1,60,-1
 504 -151.355339059 l 1,61,-1
 480 -151.355339059 l 2,0,1
EndSplineSet
Validated: 524289
Substitution2: "'ss12' Style Set 12 in Latin lookup 26 subtable" Eogonek.salt_v
Substitution2: "'ss01' Style Set 1 in Latin lookup 22 subtable" Eogonek.salt_v
Substitution2: "'vert' Vertical Alternates in Latin lookup 21 subtable" Eogonek.salt_v
Position2: "'ss11' Style Set 11 in Latin lookup 1 per glyph data 76" dx=319 dy=0 dh=637 dv=0
EndChar

StartChar: I.salt
Encoding: 57620 57620 147
Width: 371
GlyphClass: 1
Flags: W
LayerCount: 2
Fore
SplineSet
181 665.355339059 m 1,0,-1
 191 665.355339059 l 1,1,-1
 226.355339059 630 l 1,2,-1
 226.355339059 90 l 1,3,-1
 191 54.6446609407 l 1,4,-1
 181 54.6446609407 l 1,5,-1
 145.644660941 90 l 1,6,-1
 145.644660941 630 l 1,7,-1
 181 665.355339059 l 1,0,-1
EndSplineSet
Validated: 524289
Substitution2: "'ss12' Style Set 12 in Latin lookup 26 subtable" I.salt_v
Substitution2: "'ss01' Style Set 1 in Latin lookup 22 subtable" I.salt_v
Substitution2: "'vert' Vertical Alternates in Latin lookup 21 subtable" I.salt_v
Position2: "'ss11' Style Set 11 in Latin lookup 1 per glyph data 115" dx=455 dy=0 dh=909 dv=0
EndChar

StartChar: Igrave.salt
Encoding: 57621 57621 148
Width: 371
GlyphClass: 1
Flags: W
LayerCount: 2
Fore
SplineSet
181 665.355339059 m 1,0,-1
 191 665.355339059 l 1,1,-1
 226.355339059 630 l 1,2,-1
 226.355339059 90 l 1,3,-1
 191 54.6446609407 l 1,4,-1
 181 54.6446609407 l 1,5,-1
 145.644660941 90 l 1,6,-1
 145.644660941 630 l 1,7,-1
 181 665.355339059 l 1,0,-1
44.6446609407 865 m 1,8,-1
 44.6446609407 875 l 1,9,-1
 80 910.355339059 l 1,10,-1
 289 884.355339059 l 1,11,-1
 324.355339059 849 l 1,12,-1
 324.355339059 839 l 1,13,-1
 289 803.644660941 l 1,14,-1
 80 829.644660941 l 1,15,-1
 44.6446609407 865 l 1,8,-1
EndSplineSet
Validated: 524289
Substitution2: "'ss12' Style Set 12 in Latin lookup 26 subtable" Igrave.salt_v
Substitution2: "'ss01' Style Set 1 in Latin lookup 22 subtable" Igrave.salt_v
Substitution2: "'vert' Vertical Alternates in Latin lookup 21 subtable" Igrave.salt_v
Position2: "'ss11' Style Set 11 in Latin lookup 1 per glyph data 115" dx=455 dy=0 dh=909 dv=0
EndChar

StartChar: Iacute.salt
Encoding: 57622 57622 149
Width: 371
GlyphClass: 1
Flags: W
LayerCount: 2
Fore
SplineSet
181 665.355339059 m 1,0,-1
 191 665.355339059 l 1,1,-1
 226.355339059 630 l 1,2,-1
 226.355339059 90 l 1,3,-1
 191 54.6446609407 l 1,4,-1
 181 54.6446609407 l 1,5,-1
 145.644660941 90 l 1,6,-1
 145.644660941 630 l 1,7,-1
 181 665.355339059 l 1,0,-1
80 884.355339059 m 1,8,-1
 289 910.355339059 l 1,9,-1
 324.355339059 875 l 1,10,-1
 324.355339059 865 l 1,11,-1
 289 829.644660941 l 1,12,-1
 80 803.644660941 l 1,13,-1
 44.6446609407 839 l 1,14,-1
 44.6446609407 849 l 1,15,-1
 80 884.355339059 l 1,8,-1
EndSplineSet
Validated: 524289
Substitution2: "'ss12' Style Set 12 in Latin lookup 26 subtable" Iacute.salt_v
Substitution2: "'ss01' Style Set 1 in Latin lookup 22 subtable" Iacute.salt_v
Substitution2: "'vert' Vertical Alternates in Latin lookup 21 subtable" Iacute.salt_v
Position2: "'ss11' Style Set 11 in Latin lookup 1 per glyph data 115" dx=455 dy=0 dh=909 dv=0
EndChar

StartChar: Iogonek.salt
Encoding: 57628 57628 155
Width: 371
GlyphClass: 1
Flags: W
LayerCount: 2
Fore
SplineSet
187 -151.355339059 m 2,0,1
 157.239130435 -151.355339059 157.239130435 -151.355339059 144.946597353 -139.062805978 c 2,2,-1
 109.591258294 -103.707466919 l 2,3,4
 98.3946609407 -92.5108695652 98.3946609407 -92.5108695652 98.3946609407 -66.21875 c 0,5,6
 98.3946609407 -54.875 98.3946609407 -54.875 100.644660941 -41 c 2,7,-1
 112.644660941 42 l 2,8,9
 116.644660941 66 116.644660941 66 122.644660941 76 c 0,10,11
 124.490814787 79.0769230769 124.490814787 79.0769230769 127.757086976 82.3431952663 c 2,12,-1
 149.644660941 104.230769231 l 1,13,-1
 149.644660941 630 l 1,14,-1
 185 665.355339059 l 1,15,-1
 195 665.355339059 l 1,16,-1
 230.355339059 630 l 1,17,-1
 230.355339059 90 l 1,18,-1
 195.680717809 55.3253787499 l 1,19,20
 194.471781434 49.9081334845 194.471781434 49.9081334845 181.355339059 -43 c 0,21,22
 179.900793605 -53.9090909091 179.900793605 -53.9090909091 179.900793605 -60.3986434847 c 128,-1,23
 179.900793605 -66.8881960603 179.900793605 -66.8881960603 180.160474378 -70.4246351382 c 0,24,25
 183.420218424 -70.6446609407 183.420218424 -70.6446609407 187 -70.6446609407 c 2,26,-1
 211 -70.6446609407 l 1,27,-1
 246.355339059 -106 l 1,28,-1
 246.355339059 -116 l 1,29,-1
 211 -151.355339059 l 1,30,-1
 187 -151.355339059 l 2,0,1
EndSplineSet
Validated: 524289
Substitution2: "'ss12' Style Set 12 in Latin lookup 26 subtable" Iogonek.salt_v
Substitution2: "'ss01' Style Set 1 in Latin lookup 22 subtable" Iogonek.salt_v
Substitution2: "'vert' Vertical Alternates in Latin lookup 21 subtable" Iogonek.salt_v
Position2: "'ss11' Style Set 11 in Latin lookup 1 per glyph data 115" dx=455 dy=0 dh=909 dv=0
EndChar

StartChar: L.salt
Encoding: 57630 57630 157
Width: 615
GlyphClass: 1
Flags: W
LayerCount: 2
Fore
SplineSet
223.355339059 135.355339059 m 1,0,-1
 497 135.355339059 l 1,1,-1
 532.355339059 100 l 1,2,-1
 532.355339059 90 l 1,3,-1
 497 54.6446609407 l 1,4,-1
 178 54.6446609407 l 1,5,-1
 142.644660941 90 l 1,6,-1
 142.644660941 630 l 1,7,-1
 178 665.355339059 l 1,8,-1
 188 665.355339059 l 1,9,-1
 223.355339059 630 l 1,10,-1
 223.355339059 135.355339059 l 1,0,-1
EndSplineSet
Validated: 524289
Substitution2: "'ss12' Style Set 12 in Latin lookup 26 subtable" L.salt_v
Substitution2: "'ss01' Style Set 1 in Latin lookup 22 subtable" L.salt_v
Substitution2: "'vert' Vertical Alternates in Latin lookup 21 subtable" L.salt_v
Position2: "'ss11' Style Set 11 in Latin lookup 1 per glyph data 84" dx=333 dy=0 dh=665 dv=0
EndChar

StartChar: Lslash.salt
Encoding: 57635 57635 162
Width: 625
GlyphClass: 1
Flags: W
LayerCount: 2
Fore
SplineSet
233.355339059 135.355339059 m 1,0,-1
 507 135.355339059 l 1,1,-1
 542.355339059 100 l 1,2,-1
 542.355339059 90 l 1,3,-1
 507 54.6446609407 l 1,4,-1
 188 54.6446609407 l 1,5,-1
 152.644660941 90 l 1,6,-1
 152.644660941 349.752104431 l 1,7,-1
 110 342.644660941 l 1,8,-1
 74.6446609407 378 l 1,9,-1
 74.6446609407 388 l 1,10,-1
 110 423.355339059 l 1,11,-1
 152.644660941 430.462782549 l 1,12,-1
 152.644660941 630 l 1,13,-1
 188 665.355339059 l 1,14,-1
 198 665.355339059 l 1,15,-1
 233.355339059 630 l 1,16,-1
 233.355339059 444.037447122 l 1,17,-1
 310 456.355339059 l 1,18,-1
 345.355339059 421 l 1,19,-1
 345.355339059 411 l 1,20,-1
 310 375.644660941 l 1,21,-1
 233.355339059 363.326769004 l 1,22,-1
 233.355339059 135.355339059 l 1,0,-1
EndSplineSet
Validated: 524289
Substitution2: "'ss12' Style Set 12 in Latin lookup 26 subtable" Lslash.salt_v
Substitution2: "'ss01' Style Set 1 in Latin lookup 22 subtable" Lslash.salt_v
Substitution2: "'vert' Vertical Alternates in Latin lookup 21 subtable" Lslash.salt_v
Position2: "'ss11' Style Set 11 in Latin lookup 1 per glyph data 82" dx=328 dy=0 dh=655 dv=0
EndChar

StartChar: M.salt
Encoding: 57636 57636 163
Width: 1070
GlyphClass: 1
Flags: W
LayerCount: 2
Fore
SplineSet
135.644660941 507 m 2,0,1
 135.644660941 565.536585366 135.644660941 565.536585366 172.765422392 602.657346817 c 0,2,3
 209.048780488 638.940704913 209.048780488 638.940704913 210 639.855339059 c 0,4,5
 249 677.355339059 249 677.355339059 356 677.355339059 c 0,6,7
 444 677.355339059 444 677.355339059 484.5 651.355339059 c 0,8,9
 496.863157895 643.418496954 496.863157895 643.418496954 506.384155125 633.897499724 c 2,10,-1
 535.119407895 605.162246954 l 1,11,-1
 563.40234375 633.445182809 l 2,12,13
 573.1875 643.230339059 573.1875 643.230339059 586 651.355339059 c 0,14,15
 627 677 627 677 715 677.355339059 c 0,16,17
 823.016393443 677.355339059 823.016393443 677.355339059 861.751948401 638.619784101 c 2,18,-1
 897.10728746 603.264445042 l 2,19,20
 934.355339059 566.016393443 934.355339059 566.016393443 934.355339059 507 c 2,21,-1
 934.355339059 90 l 1,22,-1
 899 54.6446609407 l 1,23,-1
 889 54.6446609407 l 1,24,-1
 853.644660941 90 l 1,25,-1
 853.644660941 507 l 2,26,27
 853.644660941 545.624452723 853.644660941 545.624452723 836.280992249 574.020991009 c 1,28,29
 797.598177022 596.650072099 797.598177022 596.650072099 717.487510956 596.650072099 c 0,30,31
 716.248708676 596.650072099 716.248708676 596.650072099 715 596.644660941 c 0,32,33
 632.518246871 596.644660941 632.518246871 596.644660941 592.71930273 573.635959206 c 1,34,35
 575.348353259 545.562969653 575.348353259 545.562969653 575.348353259 508.49050551 c 0,36,37
 575.348353259 507.747062344 575.348353259 507.747062344 575.355339059 507 c 2,38,-1
 575.355339059 90 l 1,39,-1
 540 54.6446609407 l 1,40,-1
 530 54.6446609407 l 1,41,-1
 494.644660941 90 l 1,42,-1
 494.644660941 507 l 2,43,44
 494.644660941 545.624452723 494.644660941 545.624452723 477.280992249 574.020991009 c 1,45,46
 438.598177022 596.650072099 438.598177022 596.650072099 358.487510956 596.650072099 c 0,47,48
 357.248708676 596.650072099 357.248708676 596.650072099 356 596.644660941 c 0,49,50
 273.518246871 596.644660941 273.518246871 596.644660941 233.71930273 573.635959206 c 1,51,52
 216.348353259 545.562969653 216.348353259 545.562969653 216.348353259 508.49050551 c 0,53,54
 216.348353259 507.747062344 216.348353259 507.747062344 216.355339059 507 c 2,55,-1
 216.355339059 90 l 1,56,-1
 181 54.6446609407 l 1,57,-1
 171 54.6446609407 l 1,58,-1
 135.644660941 90 l 1,59,-1
 135.644660941 507 l 2,0,1
EndSplineSet
Validated: 524289
Substitution2: "'ss12' Style Set 12 in Latin lookup 26 subtable" M.salt_v
Substitution2: "'ss01' Style Set 1 in Latin lookup 22 subtable" M.salt_v
Substitution2: "'vert' Vertical Alternates in Latin lookup 21 subtable" M.salt_v
Position2: "'ss11' Style Set 11 in Latin lookup 1 per glyph data 15" dx=105 dy=0 dh=210 dv=0
EndChar

StartChar: N.salt
Encoding: 57637 57637 164
Width: 746
GlyphClass: 1
Flags: W
LayerCount: 2
Fore
SplineSet
526.644660941 507 m 2,0,1
 526.644660941 543.886619122 526.644660941 543.886619122 509.5067161 571.444989798 c 1,2,3
 466.86606059 596.64466085 466.86606059 596.64466085 371.632276129 596.644660896 c 128,-1,4
 276.398491668 596.644660941 276.398491668 596.644660941 233.464383554 571.052755006 c 1,5,6
 216.348253323 544.539452871 216.348253323 544.539452871 216.348253323 508.4716619 c 0,7,8
 216.348253323 507.737808634 216.348253323 507.737808634 216.355339059 507 c 2,9,-1
 216.355339059 90 l 1,10,-1
 181 54.6446609407 l 1,11,-1
 171 54.6446609407 l 1,12,-1
 135.644660941 90 l 1,13,-1
 135.644660941 507 l 2,14,15
 135.644660941 562.813953488 135.644660941 562.813953488 171.988630654 599.157923202 c 0,16,17
 210.069767442 637.23905999 210.069767442 637.23905999 213 639.855339059 c 0,18,19
 255 677.355339059 255 677.355339059 372 677.355339059 c 128,-1,20
 489 677.355339059 489 677.355339059 530.5 639.855339059 c 0,21,22
 533.09375 637.511589059 533.09375 637.511589059 570.22454453 600.38079453 c 128,-1,23
 607.355339059 563.25 607.355339059 563.25 607.355339059 507 c 2,24,-1
 607.355339059 90 l 1,25,-1
 572 54.6446609407 l 1,26,-1
 562 54.6446609407 l 1,27,-1
 526.644660941 90 l 1,28,-1
 526.644660941 507 l 2,0,1
EndSplineSet
Validated: 524321
Substitution2: "'ss12' Style Set 12 in Latin lookup 26 subtable" N.salt_v
Substitution2: "'ss01' Style Set 1 in Latin lookup 22 subtable" N.salt_v
Substitution2: "'vert' Vertical Alternates in Latin lookup 21 subtable" N.salt_v
Position2: "'ss11' Style Set 11 in Latin lookup 1 per glyph data 38" dx=267 dy=0 dh=534 dv=0
EndChar

StartChar: W.salt
Encoding: 57642 57642 169
Width: 1070
GlyphClass: 1
Flags: W
LayerCount: 2
Fore
SplineSet
719 42.6446609407 m 0,0,1
 628 42.6446609407 628 42.6446609407 586.5 68.6446609407 c 0,2,3
 573.505050505 76.7860750821 573.505050505 76.7860750821 563.598714417 86.6924111702 c 2,4,-1
 534.883232323 115.407893264 l 1,5,-1
 506.6032 87.1278609407 l 2,6,7
 496.44 76.9646609407 496.44 76.9646609407 483 68.6446609407 c 0,8,9
 441 42.6446609407 441 42.6446609407 350 42.6446609407 c 0,10,11
 240 42.6446609407 240 42.6446609407 200.5 80.1446609407 c 0,12,13
 199.225806452 81.35433836 199.225806452 81.35433836 162.435233696 118.144911115 c 128,-1,14
 125.644660941 154.935483871 125.644660941 154.935483871 125.644660941 213 c 2,15,-1
 125.644660941 630 l 1,16,-1
 161 665.355339059 l 1,17,-1
 171 665.355339059 l 1,18,-1
 206.355339059 630 l 1,19,-1
 206.355339059 213 l 2,20,21
 206.355339059 174.957584022 206.355339059 174.957584022 223.661127623 146.837153486 c 1,22,23
 264.199539787 123.355339073 264.199539787 123.355339073 350.353085204 123.355339066 c 128,-1,24
 436.506630621 123.355339059 436.506630621 123.355339059 477.349040689 147.225272328 c 1,25,26
 494.644660771 175.219796418 494.644660771 175.219796418 494.644660941 213 c 2,27,-1
 494.644660941 630 l 1,28,-1
 530 665.355339059 l 1,29,-1
 540 665.355339059 l 1,30,-1
 575.355339059 630 l 1,31,-1
 575.355339059 213 l 2,32,33
 575.355339059 174.957584022 575.355339059 174.957584022 592.661127623 146.837153486 c 1,34,35
 633.199539787 123.355339073 633.199539787 123.355339073 719.353085204 123.355339066 c 128,-1,36
 805.506630621 123.355339059 805.506630621 123.355339059 846.349040689 147.225272328 c 1,37,38
 863.644660771 175.219796418 863.644660771 175.219796418 863.644660941 213 c 2,39,-1
 863.644660941 630 l 1,40,-1
 899 665.355339059 l 1,41,-1
 909 665.355339059 l 1,42,-1
 944.355339059 630 l 1,43,-1
 944.355339059 213 l 2,44,45
 944.355339059 155.4 944.355339059 155.4 907.491339059 118.536 c 128,-1,46
 870.6 81.6446609407 870.6 81.6446609407 869 80.1446609407 c 0,47,48
 829 42.6446609407 829 42.6446609407 719 42.6446609407 c 0,0,1
EndSplineSet
Validated: 524321
Substitution2: "'ss12' Style Set 12 in Latin lookup 26 subtable" W.salt_v
Substitution2: "'ss01' Style Set 1 in Latin lookup 22 subtable" W.salt_v
Substitution2: "'vert' Vertical Alternates in Latin lookup 21 subtable" W.salt_v
Position2: "'ss11' Style Set 11 in Latin lookup 1 per glyph data 15" dx=105 dy=0 dh=210 dv=0
EndChar

StartChar: X.salt
Encoding: 57647 57647 174
Width: 737
GlyphClass: 1
Flags: W
LayerCount: 2
Fore
SplineSet
133.644660941 256 m 2,0,1
 133.644660941 311.61682243 133.644660941 311.61682243 161.037883056 339.010044545 c 2,2,-1
 196.393222115 374.365383605 l 2,3,4
 210.160030698 388.132192187 210.160030698 388.132192187 231.097211816 394.314952895 c 1,5,-1
 164.644660941 630 l 1,6,-1
 200 665.355339059 l 1,7,-1
 210 665.355339059 l 1,8,-1
 245.355339059 630 l 1,9,-1
 310.386728422 399.355339059 l 1,10,-1
 427.613271578 399.355339059 l 1,11,-1
 492.644660941 630 l 1,12,-1
 528 665.355339059 l 1,13,-1
 538 665.355339059 l 1,14,-1
 573.355339059 630 l 1,15,-1
 506.902788184 394.314952895 l 1,16,17
 527.839969302 388.132192187 527.839969302 388.132192187 541.606777885 374.365383605 c 0,18,19
 578.18711476 337.785046729 578.18711476 337.785046729 579.355339059 336.5 c 0,20,21
 604.355339059 309 604.355339059 309 604.355339059 256 c 2,22,-1
 604.355339059 90 l 1,23,-1
 569 54.6446609407 l 1,24,-1
 559 54.6446609407 l 1,25,-1
 523.644660941 90 l 1,26,-1
 523.644660941 256 l 2,27,28
 523.644660941 288.345423641 523.644660941 288.345423641 513.427605955 310.24674663 c 1,29,30
 494.660822703 318.644660941 494.660822703 318.644660941 468 318.644660941 c 2,31,-1
 270 318.644660941 l 2,32,33
 243.339177297 318.644660941 243.339177297 318.644660941 224.572394045 310.24674663 c 1,34,35
 214.355339059 288.345423641 214.355339059 288.345423641 214.355339059 256 c 2,36,-1
 214.355339059 90 l 1,37,-1
 179 54.6446609407 l 1,38,-1
 169 54.6446609407 l 1,39,-1
 133.644660941 90 l 1,40,-1
 133.644660941 256 l 2,0,1
EndSplineSet
Validated: 524289
Substitution2: "'ss12' Style Set 12 in Latin lookup 26 subtable" X.salt_v
Substitution2: "'ss01' Style Set 1 in Latin lookup 22 subtable" X.salt_v
Substitution2: "'vert' Vertical Alternates in Latin lookup 21 subtable" X.salt_v
Position2: "'ss11' Style Set 11 in Latin lookup 1 per glyph data 42" dx=272 dy=0 dh=543 dv=0
EndChar

StartChar: Y.salt
Encoding: 57648 57648 175
Width: 706
GlyphClass: 1
Flags: W
LayerCount: 2
Fore
SplineSet
198.355339059 427 m 2,0,1
 198.355339059 390.113380878 198.355339059 390.113380878 215.4932839 362.555010202 c 1,2,3
 258.13393941 337.35533915 258.13393941 337.35533915 353.367723871 337.355339104 c 128,-1,4
 448.601508332 337.355339059 448.601508332 337.355339059 491.535616446 362.947244994 c 1,5,6
 508.651746677 389.460547129 508.651746677 389.460547129 508.651746677 425.5283381 c 0,7,8
 508.651746677 426.262191366 508.651746677 426.262191366 508.644660941 427 c 2,9,-1
 508.644660941 630 l 1,10,-1
 544 665.355339059 l 1,11,-1
 554 665.355339059 l 1,12,-1
 589.355339059 630 l 1,13,-1
 589.355339059 427 l 2,14,15
 589.355339059 370.75 589.355339059 370.75 552.880729684 334.275390625 c 0,16,17
 515.09375 296.488410941 515.09375 296.488410941 512.5 294.144660941 c 0,18,19
 477.849945407 262.834370645 477.849945407 262.834370645 393.355339059 257.666327773 c 1,20,-1
 393.355339059 90 l 1,21,-1
 358 54.6446609407 l 1,22,-1
 348 54.6446609407 l 1,23,-1
 312.644660941 90 l 1,24,-1
 312.644660941 257.936870348 l 1,25,26
 227.369878073 263.701809368 227.369878073 263.701809368 193.5 294.644660941 c 0,27,28
 191.267716535 296.684031019 191.267716535 296.684031019 154.633858268 333.34201551 c 128,-1,29
 118 370 118 370 117.644660941 427 c 2,30,-1
 117.644660941 630 l 1,31,-1
 153 665.355339059 l 1,32,-1
 163 665.355339059 l 1,33,-1
 198.355339059 630 l 1,34,-1
 198.355339059 427 l 2,0,1
EndSplineSet
Validated: 524321
Substitution2: "'ss12' Style Set 12 in Latin lookup 26 subtable" Y.salt_v
Substitution2: "'ss01' Style Set 1 in Latin lookup 22 subtable" Y.salt_v
Substitution2: "'vert' Vertical Alternates in Latin lookup 21 subtable" Y.salt_v
Position2: "'ss11' Style Set 11 in Latin lookup 1 per glyph data 58" dx=287 dy=0 dh=574 dv=0
EndChar

StartChar: AE.salt
Encoding: 57653 57653 180
Width: 1013
GlyphClass: 1
Flags: W
LayerCount: 2
Fore
SplineSet
603.355339059 134.355339059 m 1,0,-1
 875 134.355339059 l 1,1,-1
 910.355339059 99 l 1,2,-1
 910.355339059 89 l 1,3,-1
 875 53.6446609407 l 1,4,-1
 558 53.6446609407 l 1,5,-1
 522.644660941 89 l 1,6,-1
 522.644660941 235.644660941 l 1,7,-1
 215.355339059 235.644660941 l 1,8,-1
 215.355339059 89 l 1,9,-1
 180 53.6446609407 l 1,10,-1
 170 53.6446609407 l 1,11,-1
 134.644660941 89 l 1,12,-1
 134.644660941 495 l 2,13,14
 134.644660941 555 134.644660941 555 168.644660941 592.5 c 0,15,16
 169.80563655 593.780487805 169.80563655 593.780487805 205.593062178 629.567913432 c 128,-1,17
 241.380487805 665.355339059 241.380487805 665.355339059 337 665.355339059 c 2,18,-1
 874 665.355339059 l 1,19,-1
 909.355339059 630 l 1,20,-1
 909.355339059 620 l 1,21,-1
 874 584.644660941 l 1,22,-1
 603.355339059 584.644660941 l 1,23,-1
 603.355339059 403.355339059 l 1,24,-1
 794 403.355339059 l 1,25,-1
 829.355339059 368 l 1,26,-1
 829.355339059 358 l 1,27,-1
 794 322.644660941 l 1,28,-1
 603.355339059 322.644660941 l 1,29,-1
 603.355339059 134.355339059 l 1,0,-1
215.355339059 316.355339059 m 1,30,-1
 522.644660941 316.355339059 l 1,31,-1
 522.644660941 584.644660941 l 1,32,-1
 337 584.644660941 l 2,33,34
 268.047874521 584.644660941 268.047874521 584.644660941 232.627733237 565.679850326 c 1,35,36
 215.355339151 536.142369966 215.355339151 536.142369966 215.355339059 495 c 2,37,-1
 215.355339059 316.355339059 l 1,30,-1
EndSplineSet
Validated: 524289
Substitution2: "'ss12' Style Set 12 in Latin lookup 26 subtable" AE.salt_v
Substitution2: "'ss01' Style Set 1 in Latin lookup 22 subtable" AE.salt_v
Substitution2: "'vert' Vertical Alternates in Latin lookup 21 subtable" AE.salt_v
Position2: "'ss11' Style Set 11 in Latin lookup 1 per glyph data 19" dx=134 dy=0 dh=267 dv=0
EndChar

StartChar: ordfeminine
Encoding: 170 170 183
Width: 390
VWidth: 750
GlyphClass: 1
Flags: W
LayerCount: 2
Fore
SplineSet
337 55 m 1,0,-1
 337 49 l 1,1,2
 336 49 336 49 310 22 c 1,3,-1
 80 22 l 1,4,-1
 53 49 l 1,5,-1
 53 55 l 1,6,7
 54 55 54 55 80 81 c 1,8,-1
 310 81 l 1,9,-1
 337 55 l 1,0,-1
118 266 m 1,10,-1
 118 202 l 1,11,-1
 92 176 l 1,12,-1
 85 176 l 1,13,-1
 58 202 l 1,14,-1
 58 315 l 2,15,16
 58 343 58 343 67 366 c 2,17,-1
 101 453 l 2,18,19
 106 467 106 467 114 478 c 0,20,21
 115 480 115 480 116 481 c 2,22,-1
 143 507 l 2,23,24
 150 514 150 514 166 515 c 2,25,-1
 218 515 l 2,26,27
 233 515 233 515 241 507 c 0,28,29
 269 479 269 479 270 478 c 0,30,31
 278 468 278 468 284 452 c 2,32,-1
 321 366 l 2,33,34
 330 344 330 344 330 315 c 2,35,36
 330 314 330 314 330 202 c 1,37,-1
 303 176 l 1,38,-1
 296 176 l 1,39,-1
 270 202 l 1,40,-1
 270 266 l 1,41,-1
 118 266 l 1,10,-1
223 455 m 0,42,43
 222 455 222 455 220 455 c 128,-1,44
 218 455 218 455 218 455 c 2,45,-1
 167 455 l 2,46,47
 164 455 164 455 162 455 c 0,48,49
 161 453 161 453 126 364 c 0,50,51
 119 345 119 345 118 326 c 1,52,-1
 269 326 l 1,53,54
 268 344 268 344 261 364 c 1,55,56
 223 455 223 455 223 455 c 0,42,43
EndSplineSet
Validated: 1
Position2: "'ss11' Style Set 11 in Latin lookup 1 per glyph data 98" dx=285 dy=0 dh=570 dv=0
EndChar

StartChar: ordmasculine
Encoding: 186 186 184
Width: 393
VWidth: 750
GlyphClass: 1
Flags: W
LayerCount: 2
Fore
SplineSet
337 55 m 1,0,-1
 337 49 l 1,1,2
 336 49 336 49 310 22 c 1,3,-1
 80 22 l 1,4,-1
 53 49 l 1,5,-1
 53 55 l 1,6,7
 54 55 54 55 80 81 c 1,8,-1
 310 81 l 1,9,-1
 337 55 l 1,0,-1
332 267 m 2,10,11
 332 237 332 237 313 218 c 0,12,13
 285 190 285 190 282 188 c 0,14,15
 259 168 259 168 196.5 168 c 128,-1,16
 134 168 134 168 111 188 c 0,17,18
 110 189 110 189 82 218 c 0,19,20
 63 237 63 237 63 267 c 2,21,-1
 63 424 l 2,22,23
 63 455 63 455 82 474 c 0,24,25
 110 502 110 502 111 503 c 0,26,27
 133 523 133 523 196.5 523 c 128,-1,28
 260 523 260 523 282 503 c 0,29,30
 284 501 284 501 313 473 c 0,31,32
 332 454 332 454 332 424 c 2,33,-1
 332 267 l 2,10,11
123 267 m 2,34,35
 123 251 123 251 128 239 c 1,36,37
 150 228 150 228 194 228 c 0,38,39
 194 228 194 228 196 228 c 0,40,41
 242 228 242 228 266 240 c 1,42,43
 272 252 272 252 272 266 c 0,44,45
 272 267 272 267 272 267 c 2,46,-1
 272 424 l 2,47,48
 272 440 272 440 266 452 c 1,49,50
 243 463 243 463 197.5 463 c 128,-1,51
 152 463 152 463 129 452 c 1,52,53
 123 439 123 439 123 424 c 2,54,-1
 123 267 l 2,34,35
EndSplineSet
Validated: 1
Position2: "'ss11' Style Set 11 in Latin lookup 1 per glyph data 97" dx=284 dy=0 dh=566 dv=0
EndChar

StartChar: zero
Encoding: 48 48 185
Width: 727
GlyphClass: 1
Flags: W
LayerCount: 2
Fore
SplineSet
130.644660941 212 m 2,0,-1
 130.644660941 507 l 2,1,2
 130.644660941 565.487804878 130.644660941 565.487804878 161.612537205 596.455681142 c 2,3,-1
 196.967876264 631.811020202 l 2,4,5
 242.512195122 677.355339059 242.512195122 677.355339059 360.756097561 677.355339059 c 128,-1,6
 479 677.355339059 479 677.355339059 520.5 639.355339059 c 0,7,8
 522.824 637.227339059 522.824 637.227339059 560.08966953 599.96166953 c 128,-1,9
 597.355339059 562.696 597.355339059 562.696 597.355339059 507 c 2,10,-1
 597.355339059 212 l 2,11,12
 597.355339059 155.75 597.355339059 155.75 560.880729684 119.275390625 c 0,13,14
 523.09375 81.4884109407 523.09375 81.4884109407 520.5 79.1446609407 c 0,15,16
 479 41.6446609407 479 41.6446609407 363 41.6446609407 c 0,17,18
 242.512195122 41.6446609407 242.512195122 41.6446609407 196.967876264 87.1889797985 c 2,19,-1
 161.612537205 122.544318858 l 2,20,21
 130.644660941 153.512195122 130.644660941 153.512195122 130.644660941 212 c 2,0,-1
211.348154272 508.492288722 m 0,22,23
 211.348154272 507.748122435 211.348154272 507.748122435 211.355339059 507 c 2,24,-1
 211.355339059 212 l 2,25,26
 211.355339059 174.990166319 211.355339059 174.990166319 228.21871553 147.67677409 c 1,27,28
 270.66029726 122.355339327 270.66029726 122.355339327 363.717743251 122.355339193 c 128,-1,29
 456.775189243 122.355339059 456.775189243 122.355339059 499.856877985 148.470172995 c 1,30,31
 516.651876766 175.440955248 516.651876766 175.440955248 516.651876766 210.541397848 c 0,32,33
 516.651876766 211.268952505 516.651876766 211.268952505 516.644660941 212 c 2,34,-1
 516.644660941 507 l 2,35,36
 516.644660941 543.136567988 516.644660941 543.136567988 499.571984653 570.320391112 c 1,37,38
 456.465728492 596.644660831 456.465728492 596.644660831 363.563013343 596.644660886 c 128,-1,39
 270.660298194 596.644660941 270.660298194 596.644660941 228.218716453 571.323226762 c 1,40,41
 211.348154272 544.552462674 211.348154272 544.552462674 211.348154272 508.492288722 c 0,22,23
EndSplineSet
Validated: 524321
Substitution2: "'ss12' Style Set 12 in Latin lookup 26 subtable" zero.v
Substitution2: "'ss01' Style Set 1 in Latin lookup 22 subtable" zero.v
Substitution2: "'vert' Vertical Alternates in Latin lookup 21 subtable" zero.v
Substitution2: "'sinf' Scientific Inferiors in Latin lookup 4 subtable" zero.sinf
Substitution2: "'sups' Superscript in Latin lookup 3 subtable" zero.sups
Position2: "'ss11' Style Set 11 in Latin lookup 1 per glyph data 47" dx=277 dy=0 dh=553 dv=0
EndChar

StartChar: one
Encoding: 49 49 186
Width: 601
GlyphClass: 1
Flags: W
LayerCount: 2
Fore
SplineSet
272.644660941 130.355339059 m 1,0,-1
 272.644660941 584.644660941 l 1,1,-1
 158 584.644660941 l 1,2,-1
 122.644660941 620 l 1,3,-1
 122.644660941 630 l 1,4,-1
 158 665.355339059 l 1,5,-1
 318 665.355339059 l 1,6,-1
 353.355339059 630 l 1,7,-1
 353.355339059 130.355339059 l 1,8,-1
 472 130.355339059 l 1,9,-1
 507.355339059 95 l 1,10,-1
 507.355339059 85 l 1,11,-1
 472 49.6446609407 l 1,12,-1
 138 49.6446609407 l 1,13,-1
 102.644660941 85 l 1,14,-1
 102.644660941 95 l 1,15,-1
 138 130.355339059 l 1,16,-1
 272.644660941 130.355339059 l 1,0,-1
EndSplineSet
Validated: 524289
Substitution2: "'ss12' Style Set 12 in Latin lookup 26 subtable" one.v
Substitution2: "'ss01' Style Set 1 in Latin lookup 22 subtable" one.v
Substitution2: "'vert' Vertical Alternates in Latin lookup 21 subtable" one.v
Substitution2: "'sinf' Scientific Inferiors in Latin lookup 4 subtable" one.sinf
Substitution2: "'sups' Superscript in Latin lookup 3 subtable" one.sups
Position2: "'ss11' Style Set 11 in Latin lookup 1 per glyph data 87" dx=340 dy=0 dh=679 dv=0
EndChar

StartChar: two
Encoding: 50 50 187
Width: 639
GlyphClass: 1
Flags: W
LayerCount: 2
Fore
SplineSet
193.355339059 135.355339059 m 1,0,-1
 498 135.355339059 l 1,1,-1
 533.355339059 100 l 1,2,-1
 533.355339059 90 l 1,3,-1
 498 54.6446609407 l 1,4,-1
 149 54.6446609407 l 1,5,-1
 113.644660941 90 l 1,6,-1
 113.644660941 246 l 2,7,8
 113.644660941 289.641509434 113.644660941 289.641509434 131.444233742 307.441082236 c 2,9,-1
 166.799572802 342.796421295 l 2,10,11
 179.433962264 355.430810757 179.433962264 355.430810757 204 363.355339059 c 2,12,-1
 429.328376108 437.820081378 l 1,13,14
 430.644660941 444.293032174 430.644660941 444.293032174 430.644660941 452 c 2,15,-1
 430.644660941 543 l 2,16,17
 430.644660941 561.983155729 430.644660941 561.983155729 426.216794572 575.772083601 c 1,18,19
 403.046428558 584.644660941 403.046428558 584.644660941 369 584.644660941 c 2,20,-1
 168 584.644660941 l 1,21,-1
 132.644660941 620 l 1,22,-1
 132.644660941 630 l 1,23,-1
 168 665.355339059 l 1,24,-1
 369 665.355339059 l 2,25,26
 420 665.355339059 420 665.355339059 448 646.855339059 c 0,27,28
 452.470588235 643.901557547 452.470588235 643.901557547 456.227385072 640.14476071 c 2,29,-1
 491.582724131 604.789421651 l 2,30,31
 511 585 511 585 511.355339059 543 c 2,32,-1
 511.355339059 452 l 2,33,34
 511.355339059 429 511.355339059 429 501.855339059 416 c 0,35,36
 499.195339059 412.36 499.195339059 412.36 496.025739059 409.1904 c 2,37,-1
 460.6704 373.835060941 l 2,38,39
 452.52 365.684660941 452.52 365.684660941 441 360.644660941 c 1,40,-1
 208 283.644660941 l 2,41,42
 202.231673902 281.584544477 202.231673902 281.584544477 197.184841378 279.333444421 c 1,43,44
 193.355339059 266.061053811 193.355339059 266.061053811 193.355339059 246 c 2,45,-1
 193.355339059 135.355339059 l 1,0,-1
EndSplineSet
Validated: 524289
Substitution2: "'ss12' Style Set 12 in Latin lookup 26 subtable" two.v
Substitution2: "'ss01' Style Set 1 in Latin lookup 22 subtable" two.v
Substitution2: "'vert' Vertical Alternates in Latin lookup 21 subtable" two.v
Substitution2: "'sinf' Scientific Inferiors in Latin lookup 4 subtable" two.sinf
Substitution2: "'sups' Superscript in Latin lookup 3 subtable" two.sups
Position2: "'ss11' Style Set 11 in Latin lookup 1 per glyph data 77" dx=321 dy=0 dh=641 dv=0
EndChar

StartChar: three
Encoding: 51 51 188
Width: 637
GlyphClass: 1
Flags: W
LayerCount: 2
Fore
SplineSet
303 404.355339059 m 2,0,1
 347.496137933 404.355339059 347.496137933 404.355339059 373.009473693 415.767597155 c 1,2,3
 378.644660941 431.128832932 378.644660941 431.128832932 378.644660941 460 c 2,4,-1
 378.644660941 528 l 2,5,6
 378.644660941 552.922217725 378.644660941 552.922217725 368.843999223 572.739924139 c 1,7,8
 341.928265711 584.644660941 341.928265711 584.644660941 293 584.644660941 c 2,9,-1
 139 584.644660941 l 1,10,-1
 103.644660941 620 l 1,11,-1
 103.644660941 630 l 1,12,-1
 139 665.355339059 l 1,13,-1
 293 665.355339059 l 2,14,15
 368.513888889 665.355339059 368.513888889 665.355339059 399.212962963 634.656264985 c 0,16,17
 434.96645017 598.902777778 434.96645017 598.902777778 435.355339059 598.5 c 0,18,19
 449.355339059 584 449.355339059 584 454.355339059 565 c 128,-1,20
 459.355339059 546 459.355339059 546 459.355339059 524 c 2,21,-1
 459.355339059 460 l 2,22,23
 459.355339059 432 459.355339059 432 448.855339059 404.5 c 0,24,25
 445.889049966 396.731147613 445.889049966 396.731147613 440.169372674 390.358941414 c 1,26,27
 453.052510734 384.318701341 453.052510734 384.318701341 462.134038801 375.237173274 c 0,28,29
 497.926767631 339.444444444 497.926767631 339.444444444 498.355339059 339 c 0,30,31
 525 311 525 311 525.355339059 259 c 2,32,-1
 525.355339059 190 l 2,33,34
 525.355339059 168 525.355339059 168 520.444624774 149.830357143 c 128,-1,35
 515.533910488 131.660714286 515.533910488 131.660714286 502.808782937 118.935586735 c 0,36,37
 466.982142857 83.108946655 466.982142857 83.108946655 466.5 82.6446609407 c 0,38,39
 437.423076923 54.6446609407 437.423076923 54.6446609407 359 54.6446609407 c 2,40,-1
 139 54.6446609407 l 1,41,-1
 103.644660941 90 l 1,42,-1
 103.644660941 100 l 1,43,-1
 139 135.355339059 l 1,44,-1
 359 135.355339059 l 2,45,46
 409.28975838 135.355339059 409.28975838 135.355339059 436.199763962 146.370799513 c 1,47,48
 444.658452084 164.276977961 444.658452084 164.276977961 444.658452084 188.069035296 c 0,49,50
 444.658452084 189.029719445 444.658452084 189.029719445 444.644660941 190 c 2,51,-1
 444.644660941 259 l 2,52,53
 444.644660941 290.698573595 444.644660941 290.698573595 434.395705348 312.34915151 c 1,54,55
 410.314023615 323.644660941 410.314023615 323.644660941 372 323.644660941 c 2,56,-1
 220 323.644660941 l 1,57,-1
 184.644660941 359 l 1,58,-1
 184.644660941 369 l 1,59,-1
 220 404.355339059 l 1,60,-1
 303 404.355339059 l 2,0,1
EndSplineSet
Validated: 524289
Substitution2: "'ss12' Style Set 12 in Latin lookup 26 subtable" three.v
Substitution2: "'ss01' Style Set 1 in Latin lookup 22 subtable" three.v
Substitution2: "'vert' Vertical Alternates in Latin lookup 21 subtable" three.v
Substitution2: "'sinf' Scientific Inferiors in Latin lookup 4 subtable" three.sinf
Substitution2: "'sups' Superscript in Latin lookup 3 subtable" three.sups
Position2: "'ss11' Style Set 11 in Latin lookup 1 per glyph data 78" dx=322 dy=0 dh=643 dv=0
EndChar

StartChar: four
Encoding: 52 52 189
Width: 709
GlyphClass: 1
Flags: W
LayerCount: 2
Fore
SplineSet
486.644660941 312.355339059 m 1,0,-1
 486.644660941 630 l 1,1,-1
 522 665.355339059 l 1,2,-1
 532 665.355339059 l 1,3,-1
 567.355339059 630 l 1,4,-1
 567.355339059 90 l 1,5,-1
 532 54.6446609407 l 1,6,-1
 522 54.6446609407 l 1,7,-1
 486.644660941 90 l 1,8,-1
 486.644660941 231.644660941 l 1,9,-1
 283 231.644660941 l 2,10,11
 225.997619048 231.642279988 225.997619048 231.642279988 198.997619048 258.142279988 c 2,12,-1
 163.132824206 294.00707483 l 2,13,14
 136.644660941 320.495238095 136.644660941 320.495238095 136.644660941 372 c 2,15,-1
 136.644660941 630 l 1,16,-1
 172 665.355339059 l 1,17,-1
 182 665.355339059 l 1,18,-1
 217.355339059 630 l 1,19,-1
 217.355339059 372 l 2,20,21
 217.355339059 342.900497354 217.355339059 342.900497354 226.54350154 322.805393939 c 1,22,23
 248.990869347 312.355339059 248.990869347 312.355339059 283 312.355339059 c 2,24,-1
 486.644660941 312.355339059 l 1,0,-1
EndSplineSet
Validated: 524321
Substitution2: "'ss12' Style Set 12 in Latin lookup 26 subtable" four.v
Substitution2: "'ss01' Style Set 1 in Latin lookup 22 subtable" four.v
Substitution2: "'vert' Vertical Alternates in Latin lookup 21 subtable" four.v
Substitution2: "'sinf' Scientific Inferiors in Latin lookup 4 subtable" four.sinf
Substitution2: "'sups' Superscript in Latin lookup 3 subtable" four.sups
Position2: "'ss11' Style Set 11 in Latin lookup 1 per glyph data 56" dx=286 dy=0 dh=571 dv=0
EndChar

StartChar: five
Encoding: 53 53 190
Width: 647
GlyphClass: 1
Flags: W
LayerCount: 2
Fore
SplineSet
381 135.355339059 m 2,0,1
 419.142732237 135.355339059 419.142732237 135.355339059 442.439872408 145.097758853 c 1,2,3
 449.660612729 162.196337271 449.660612729 162.196337271 449.660612729 185.769716961 c 0,4,5
 449.660612729 186.877706536 449.660612729 186.877706536 449.644660941 188 c 2,6,-1
 449.644660941 276 l 2,7,8
 449.644660941 301.542462727 449.644660941 301.542462727 442.408705145 319.258279389 c 1,9,10
 421.126479484 328.644660941 421.126479484 328.644660941 390 328.644660941 c 2,11,-1
 174 328.644660941 l 1,12,-1
 138.644660941 364 l 1,13,-1
 138.644660941 630 l 1,14,-1
 174 665.355339059 l 1,15,-1
 478 665.355339059 l 1,16,-1
 513.355339059 630 l 1,17,-1
 513.355339059 620 l 1,18,-1
 478 584.644660941 l 1,19,-1
 219.355339059 584.644660941 l 1,20,-1
 219.355339059 409.355339059 l 1,21,-1
 390 409.355339059 l 2,22,23
 445.166666667 409.355339059 445.166666667 409.355339059 471.362654321 383.159351405 c 2,24,-1
 506.71799338 347.804012346 l 2,25,26
 530 324 530 324 530.355339059 276 c 2,27,-1
 530.355339059 188 l 2,28,29
 530.355339059 139.38317757 530.355339059 139.38317757 506.728472084 115.756310595 c 0,30,31
 470.214953271 79.2427917818 470.214953271 79.2427917818 469 78.1446609407 c 0,32,33
 443 55 443 55 381 54.6446609407 c 2,34,-1
 145 54.6446609407 l 1,35,-1
 109.644660941 90 l 1,36,-1
 109.644660941 100 l 1,37,-1
 145 135.355339059 l 1,38,-1
 381 135.355339059 l 2,0,1
EndSplineSet
Validated: 524289
Substitution2: "'ss12' Style Set 12 in Latin lookup 26 subtable" five.v
Substitution2: "'ss01' Style Set 1 in Latin lookup 22 subtable" five.v
Substitution2: "'vert' Vertical Alternates in Latin lookup 21 subtable" five.v
Substitution2: "'sinf' Scientific Inferiors in Latin lookup 4 subtable" five.sinf
Substitution2: "'sups' Superscript in Latin lookup 3 subtable" five.sups
Position2: "'ss11' Style Set 11 in Latin lookup 1 per glyph data 74" dx=317 dy=0 dh=633 dv=0
EndChar

StartChar: six
Encoding: 54 54 191
Width: 693
GlyphClass: 1
Flags: W
LayerCount: 2
Fore
SplineSet
359.5 116.355339059 m 128,-1,1
 395 116.355339059 395 116.355339059 425.5 119.355339059 c 0,2,3
 458.699534195 122.620867013 458.699534195 122.620867013 482.102162686 134.910602104 c 1,4,5
 492.644660941 155.481311574 492.644660941 155.481311574 492.644660941 187 c 2,6,-1
 492.644660941 275 l 2,7,8
 492.644660941 304.242200447 492.644660941 304.242200447 483.737303784 322.927533154 c 1,9,10
 460.964475769 334.446437152 460.964475769 334.446437152 428.982237885 336.045549046 c 128,-1,11
 397 337.644660941 397 337.644660941 364 337.644660941 c 128,-1,12
 331 337.644660941 331 337.644660941 298 336.644660941 c 0,13,14
 251.874229002 335.246910304 251.874229002 335.246910304 223.161452881 319.71700233 c 1,15,16
 215.355339059 302.761558075 215.355339059 302.761558075 215.355339059 278 c 2,17,-1
 215.355339059 187 l 2,18,19
 215.355339059 156.679466704 215.355339059 156.679466704 225.641105819 136.644700167 c 1,20,21
 250.927471593 122.998296187 250.927471593 122.998296187 287.463735797 119.676817623 c 128,-1,0
 324 116.355339059 324 116.355339059 359.5 116.355339059 c 128,-1,1
430.5 39.6446609407 m 0,22,23
 398 35.6446609407 398 35.6446609407 359.5 35.6446609407 c 128,-1,24
 321 35.6446609407 321 35.6446609407 286 39.1446609407 c 0,25,26
 225.975845411 45.1470763996 225.975845411 45.1470763996 197.608695652 73.5142261581 c 2,27,-1
 162.253356593 108.869565217 l 2,28,29
 154.818573984 116.304347826 154.818573984 116.304347826 149.144660941 125.5 c 0,30,31
 134.644660941 149 134.644660941 149 134.644660941 187 c 2,32,-1
 134.644660941 515 l 2,33,34
 134.644660941 571.571428571 134.644660941 571.571428571 160.726293594 597.653061224 c 2,35,-1
 196.081632653 633.008400284 l 2,36,37
 200.428571429 637.355339059 200.428571429 637.355339059 205.5 640.855339059 c 0,38,39
 241 665 241 665 304 665.355339059 c 2,40,-1
 480 665.355339059 l 1,41,-1
 515.355339059 630 l 1,42,-1
 515.355339059 620 l 1,43,-1
 480 584.644660941 l 1,44,-1
 304 584.644660941 l 2,45,46
 256.121240647 584.644660941 256.121240647 584.644660941 224.823221994 569.475047109 c 1,47,48
 215.355339059 547.960646821 215.355339059 547.960646821 215.355339059 515 c 2,49,-1
 215.355339059 400.041296091 l 1,50,51
 229.48331728 407.392669824 229.48331728 407.392669824 248 410.355339059 c 0,52,53
 298 418.355339059 298 418.355339059 364 418.355339059 c 0,54,55
 401 418.355339059 401 418.355339059 432.5 415.855339059 c 0,56,57
 486.658781075 411.557023101 486.658781075 411.557023101 512.262574365 385.953229811 c 2,58,-1
 547.617913424 350.597890752 l 2,59,60
 554.518129757 343.697674419 554.518129757 343.697674419 559.855339059 335 c 0,61,62
 573.355339059 313 573.355339059 313 573.355339059 275 c 2,63,-1
 573.355339059 187 l 2,64,65
 573.355339059 149 573.355339059 149 559.855339059 126 c 0,66,67
 553.89022278 115.837209302 553.89022278 115.837209302 545.87507946 107.822065982 c 2,68,-1
 510.5197404 72.4667269223 l 2,69,70
 484.321909425 46.2688959468 484.321909425 46.2688959468 430.5 39.6446609407 c 0,22,23
EndSplineSet
Validated: 524289
Substitution2: "'ss12' Style Set 12 in Latin lookup 26 subtable" six.v
Substitution2: "'ss01' Style Set 1 in Latin lookup 22 subtable" six.v
Substitution2: "'vert' Vertical Alternates in Latin lookup 21 subtable" six.v
Substitution2: "'sinf' Scientific Inferiors in Latin lookup 4 subtable" six.sinf
Substitution2: "'sups' Superscript in Latin lookup 3 subtable" six.sups
Position2: "'ss11' Style Set 11 in Latin lookup 1 per glyph data 62" dx=294 dy=0 dh=587 dv=0
EndChar

StartChar: seven
Encoding: 55 55 192
Width: 627
GlyphClass: 1
Flags: W
LayerCount: 2
Fore
SplineSet
187.644660941 240 m 2,0,1
 187.644660941 263 187.644660941 263 197.144660941 276 c 0,2,3
 199.804660941 279.64 199.804660941 279.64 202.974260941 282.8096 c 2,4,-1
 238.3296 318.164939059 l 2,5,6
 246.48 326.315339059 246.48 326.315339059 258 331.355339059 c 2,7,-1
 420.563882532 396.380892072 l 1,8,9
 421.644660941 402.534259145 421.644660941 402.534259145 421.644660941 410 c 2,10,-1
 421.644660941 584.644660941 l 1,11,-1
 128 584.644660941 l 1,12,-1
 92.6446609407 620 l 1,13,-1
 92.6446609407 630 l 1,14,-1
 128 665.355339059 l 1,15,-1
 467 665.355339059 l 1,16,-1
 502.355339059 630 l 1,17,-1
 502.355339059 410 l 2,18,19
 502.355339059 381.193548387 502.355339059 381.193548387 488.11912678 366.957336108 c 2,20,-1
 452.763787721 331.601997049 l 2,21,22
 444.774193548 323.612402876 444.774193548 323.612402876 432 318.644660941 c 2,23,-1
 269.587192838 253.679538076 l 1,24,25
 268.290338404 248.221859358 268.290338404 248.221859358 268.290338404 244.751169723 c 128,-1,26
 268.290338404 241.280480088 268.290338404 241.280480088 268.355339059 240 c 2,27,-1
 268.355339059 90 l 1,28,-1
 233 54.6446609407 l 1,29,-1
 223 54.6446609407 l 1,30,-1
 187.644660941 90 l 1,31,-1
 187.644660941 240 l 2,0,1
EndSplineSet
Validated: 524289
Substitution2: "'ss12' Style Set 12 in Latin lookup 26 subtable" seven.v
Substitution2: "'ss01' Style Set 1 in Latin lookup 22 subtable" seven.v
Substitution2: "'vert' Vertical Alternates in Latin lookup 21 subtable" seven.v
Substitution2: "'sinf' Scientific Inferiors in Latin lookup 4 subtable" seven.sinf
Substitution2: "'sups' Superscript in Latin lookup 3 subtable" seven.sups
Position2: "'ss11' Style Set 11 in Latin lookup 1 per glyph data 81" dx=327 dy=0 dh=653 dv=0
EndChar

StartChar: eight
Encoding: 56 56 193
Width: 711
GlyphClass: 1
Flags: W
LayerCount: 2
Fore
SplineSet
198.355339059 173 m 2,0,1
 198.355339059 153.935629066 198.355339059 153.935629066 206.709386166 138.114593911 c 1,2,3
 249.520143562 112.355339649 249.520143562 112.355339649 355.619295108 112.355339354 c 128,-1,4
 461.718446654 112.355339059 461.718446654 112.355339059 504.196003471 137.747514688 c 1,5,6
 512.658446422 153.369480156 512.658446422 153.369480156 512.658446422 171.529914281 c 0,7,8
 512.658446422 172.262889534 512.658446422 172.262889534 512.644660941 173 c 2,9,-1
 512.644660941 266 l 2,10,11
 512.644660941 285.805892518 512.644660941 285.805892518 503.628099764 302.323391839 c 1,12,13
 461.560352858 328.649331927 461.560352858 328.649331927 358.749704399 328.649331927 c 0,14,15
 357.380240977 328.649331927 357.380240977 328.649331927 356 328.644660941 c 0,16,17
 250.9762418 328.644660941 250.9762418 328.644660941 207.61021317 301.669404303 c 1,18,19
 198.355339101 284.948924339 198.355339101 284.948924339 198.355339059 265 c 2,20,-1
 198.355339059 173 l 2,0,1
234.355339059 455 m 2,21,22
 234.355339059 439.928175933 234.355339059 439.928175933 239.146703943 427.804884302 c 1,23,24
 278.152778863 409.355339418 278.152778863 409.355339418 355.719560434 409.355339239 c 128,-1,25
 433.286342004 409.355339059 433.286342004 409.355339059 471.81066899 427.539988076 c 1,26,27
 476.644660938 439.763295252 476.644660938 439.763295252 476.644660941 455 c 2,28,-1
 476.644660941 550 l 2,29,30
 476.644660941 571.044006162 476.644660941 571.044006162 469.45134285 587.015800755 c 1,31,32
 430.528590794 606.644660775 430.528590794 606.644660775 354.896026466 606.644660858 c 128,-1,33
 279.263462138 606.644660941 279.263462138 606.644660941 239.789762064 586.803409712 c 1,34,35
 234.355339101 573.949483506 234.355339101 573.949483506 234.355339059 558 c 2,36,-1
 234.355339059 455 l 2,21,22
175.75147929 75.7393354969 m 2,37,-1
 140.396140231 111.094674556 l 2,38,39
 131.490814787 120 131.490814787 120 126.644660941 130.5 c 0,40,41
 117.644660941 150 117.644660941 150 117.644660941 173 c 2,42,-1
 117.644660941 265 l 2,43,44
 117.642660941 303.002 117.642660941 303.002 145.142660941 331.002 c 2,45,-1
 180.942848 366.802187059 l 2,46,47
 187.094643196 372.953982255 187.094643196 372.953982255 195.416770726 378.227890215 c 1,48,-1
 175.144660941 398.5 l 2,49,50
 153.644660941 420 153.644660941 420 153.644660941 455 c 2,51,-1
 153.644660941 558 l 2,52,53
 153.644660941 592.129032258 153.644660941 592.129032258 175.66339143 614.147762747 c 2,54,-1
 211.018730489 649.503101806 l 2,55,56
 218.677419355 657.161790672 218.677419355 657.161790672 229 663.355339059 c 0,57,58
 269 687.355339059 269 687.355339059 356 687.355339059 c 0,59,60
 460.661654135 687.355339059 460.661654135 687.355339059 497.847588897 650.169404298 c 2,61,-1
 533.202927956 614.814065238 l 2,62,63
 557 591 557 591 557.355339059 550 c 2,64,-1
 557.355339059 455 l 2,65,66
 557.355339059 420 557.355339059 420 536.355339059 398.5 c 0,67,68
 526.612859254 388.757520195 526.612859254 388.757520195 516.347745704 378.486233805 c 1,69,70
 524.54556229 373.313776769 524.54556229 373.313776769 530.56512 367.294219059 c 2,71,-1
 565.920459059 331.93888 l 2,72,73
 593.355339059 304 593.355339059 304 593.355339059 266 c 2,74,-1
 593.355339059 173 l 2,75,76
 593.355339059 133.697368421 593.355339059 133.697368421 570.285048201 110.627077562 c 2,77,-1
 534.929709141 75.271738503 l 2,78,79
 491.302631579 31.6446609407 491.302631579 31.6446609407 355.574392713 31.6446609407 c 128,-1,80
 219.846153846 31.6446609407 219.846153846 31.6446609407 175.75147929 75.7393354969 c 2,37,-1
EndSplineSet
Validated: 524321
Substitution2: "'ss12' Style Set 12 in Latin lookup 26 subtable" eight.v
Substitution2: "'ss01' Style Set 1 in Latin lookup 22 subtable" eight.v
Substitution2: "'vert' Vertical Alternates in Latin lookup 21 subtable" eight.v
Substitution2: "'sinf' Scientific Inferiors in Latin lookup 4 subtable" eight.sinf
Substitution2: "'sups' Superscript in Latin lookup 3 subtable" eight.sups
Position2: "'ss11' Style Set 11 in Latin lookup 1 per glyph data 55" dx=285 dy=0 dh=569 dv=0
EndChar

StartChar: nine
Encoding: 57 57 194
Width: 693
GlyphClass: 1
Flags: W
LayerCount: 2
Fore
SplineSet
329 382.355339059 m 128,-1,1
 362 382.355339059 362 382.355339059 395 383.355339059 c 0,2,3
 441.125770998 384.753089696 441.125770998 384.753089696 469.838547119 400.28299767 c 1,4,5
 477.644660941 417.238441925 477.644660941 417.238441925 477.644660941 442 c 2,6,-1
 477.644660941 533 l 2,7,8
 477.644660941 563.320533296 477.644660941 563.320533296 467.358894181 583.355299833 c 1,9,10
 442.072528407 597.001703813 442.072528407 597.001703813 405.536264203 600.323182377 c 128,-1,11
 369 603.644660941 369 603.644660941 333.5 603.644660941 c 128,-1,12
 298 603.644660941 298 603.644660941 267.5 600.644660941 c 0,13,14
 234.300465805 597.379132987 234.300465805 597.379132987 210.897837314 585.089397896 c 1,15,16
 200.355339059 564.518688426 200.355339059 564.518688426 200.355339059 533 c 2,17,-1
 200.355339059 445 l 2,18,19
 200.355339059 415.757799553 200.355339059 415.757799553 209.262696216 397.072466846 c 1,20,21
 232.035524231 385.553562848 232.035524231 385.553562848 264.017762115 383.954450954 c 128,-1,0
 296 382.355339059 296 382.355339059 329 382.355339059 c 128,-1,1
389 135.355339059 m 2,22,23
 436.878759353 135.355339059 436.878759353 135.355339059 468.176778006 150.524952891 c 1,24,25
 477.657066019 171.250294516 477.657066019 171.250294516 477.657066019 202.70995037 c 0,26,27
 477.657066019 203.847952191 477.657066019 203.847952191 477.644660941 205 c 2,28,-1
 477.644660941 319.958703909 l 1,29,30
 463.51668272 312.607330176 463.51668272 312.607330176 445 309.644660941 c 0,31,32
 395 301.644660941 395 301.644660941 329 301.644660941 c 0,33,34
 292 301.644660941 292 301.644660941 260.5 304.144660941 c 0,35,36
 206.341218925 308.442976899 206.341218925 308.442976899 180.737425635 334.046770189 c 2,37,-1
 145.382086576 369.402109248 l 2,38,39
 138.481870243 376.302325581 138.481870243 376.302325581 133.144660941 385 c 0,40,41
 119.644660941 407 119.644660941 407 119.644660941 445 c 2,42,-1
 119.644660941 533 l 2,43,44
 119.644660941 571 119.644660941 571 133.144660941 594 c 0,45,46
 139.10977722 604.162790698 139.10977722 604.162790698 147.12492054 612.177934018 c 2,47,-1
 182.4802596 647.533273078 l 2,48,49
 208.678090575 673.731104053 208.678090575 673.731104053 262.5 680.355339059 c 0,50,51
 295 684.355339059 295 684.355339059 333.5 684.355339059 c 128,-1,52
 372 684.355339059 372 684.355339059 407 680.855339059 c 0,53,54
 467.024154589 674.8529236 467.024154589 674.8529236 495.391304348 646.485773842 c 2,55,-1
 530.746643407 611.130434783 l 2,56,57
 538.181426016 603.695652174 538.181426016 603.695652174 543.855339059 594.5 c 0,58,59
 558.355339059 571 558.355339059 571 558.355339059 533 c 2,60,-1
 558.355339059 205 l 2,61,62
 558.355339059 148.428571429 558.355339059 148.428571429 532.273706406 122.346938776 c 2,63,-1
 496.918367347 86.9915997162 l 2,64,65
 492.571428571 82.6446609407 492.571428571 82.6446609407 487.5 79.1446609407 c 0,66,67
 452 54.6446609407 452 54.6446609407 389 54.6446609407 c 2,68,-1
 213 54.6446609407 l 1,69,-1
 177.644660941 90 l 1,70,-1
 177.644660941 100 l 1,71,-1
 213 135.355339059 l 1,72,-1
 389 135.355339059 l 2,22,23
EndSplineSet
Validated: 524289
Substitution2: "'ss12' Style Set 12 in Latin lookup 26 subtable" nine.v
Substitution2: "'ss01' Style Set 1 in Latin lookup 22 subtable" nine.v
Substitution2: "'vert' Vertical Alternates in Latin lookup 21 subtable" nine.v
Substitution2: "'sinf' Scientific Inferiors in Latin lookup 4 subtable" nine.sinf
Substitution2: "'sups' Superscript in Latin lookup 3 subtable" nine.sups
Position2: "'ss11' Style Set 11 in Latin lookup 1 per glyph data 62" dx=294 dy=0 dh=587 dv=0
EndChar

StartChar: underscore
Encoding: 95 95 195
Width: 734
GlyphClass: 1
Flags: W
LayerCount: 2
Fore
SplineSet
609.355339059 5 m 1,0,-1
 609.355339059 -5 l 1,1,-1
 574 -40.3553390593 l 1,2,-1
 160 -40.3553390593 l 1,3,-1
 124.644660941 -5 l 1,4,-1
 124.644660941 5 l 1,5,-1
 160 40.3553390593 l 1,6,-1
 574 40.3553390593 l 1,7,-1
 609.355339059 5 l 1,0,-1
EndSplineSet
Validated: 524289
Position2: "'ss11' Style Set 11 in Latin lookup 1 per glyph data 44" dx=273 dy=0 dh=546 dv=0
EndChar

StartChar: hyphen
Encoding: 45 45 196
Width: 420
GlyphClass: 1
Flags: W
LayerCount: 2
Fore
SplineSet
325.355339059 365 m 1,0,-1
 325.355339059 355 l 1,1,-1
 290 319.644660941 l 1,2,-1
 130 319.644660941 l 1,3,-1
 94.6446609407 355 l 1,4,-1
 94.6446609407 365 l 1,5,-1
 130 400.355339059 l 1,6,-1
 290 400.355339059 l 1,7,-1
 325.355339059 365 l 1,0,-1
EndSplineSet
Validated: 524289
Substitution2: "'ss10' Style Set 10 in Latin lookup 25 subtable" hyphen.v
Substitution2: "'ss01' Style Set 1 in Latin lookup 22 subtable" hyphen.v
Substitution2: "'vert' Vertical Alternates in Latin lookup 21 subtable" hyphen.v
Position2: "'ss11' Style Set 11 in Latin lookup 1 per glyph data 113" dx=430 dy=0 dh=860 dv=0
EndChar

StartChar: endash
Encoding: 8211 8211 197
Width: 734
GlyphClass: 1
Flags: W
LayerCount: 2
Fore
SplineSet
609.355339059 365 m 1,0,-1
 609.355339059 355 l 1,1,-1
 574 319.644660941 l 1,2,-1
 160 319.644660941 l 1,3,-1
 124.644660941 355 l 1,4,-1
 124.644660941 365 l 1,5,-1
 160 400.355339059 l 1,6,-1
 574 400.355339059 l 1,7,-1
 609.355339059 365 l 1,0,-1
EndSplineSet
Validated: 524289
Substitution2: "'ss10' Style Set 10 in Latin lookup 25 subtable" endash.v
Substitution2: "'ss01' Style Set 1 in Latin lookup 22 subtable" endash.v
Substitution2: "'vert' Vertical Alternates in Latin lookup 21 subtable" endash.v
Position2: "'ss11' Style Set 11 in Latin lookup 1 per glyph data 44" dx=273 dy=0 dh=546 dv=0
EndChar

StartChar: emdash
Encoding: 8212 8212 198
Width: 1134
GlyphClass: 1
Flags: W
LayerCount: 2
Fore
SplineSet
1009.35533906 365 m 1,0,-1
 1009.35533906 355 l 1,1,-1
 974 319.644660941 l 1,2,-1
 160 319.644660941 l 1,3,-1
 124.644660941 355 l 1,4,-1
 124.644660941 365 l 1,5,-1
 160 400.355339059 l 1,6,-1
 974 400.355339059 l 1,7,-1
 1009.35533906 365 l 1,0,-1
EndSplineSet
Validated: 524289
Substitution2: "'ss10' Style Set 10 in Latin lookup 25 subtable" emdash.v
Substitution2: "'ss01' Style Set 1 in Latin lookup 22 subtable" emdash.v
Substitution2: "'vert' Vertical Alternates in Latin lookup 21 subtable" emdash.v
Position2: "'ss11' Style Set 11 in Latin lookup 1 per glyph data 13" dx=73 dy=0 dh=146 dv=0
EndChar

StartChar: parenleft
Encoding: 40 40 199
Width: 429
GlyphClass: 1
Flags: W
LayerCount: 2
Fore
SplineSet
121.644660941 595 m 2,0,1
 121.644660941 650.846153846 121.644660941 650.846153846 147.061820704 676.263313609 c 2,2,-1
 182.417159763 711.618652669 l 2,3,4
 187.038461538 716.239954444 187.038461538 716.239954444 192.5 719.855339059 c 0,5,6
 228 743.355339059 228 743.355339059 294 743.355339059 c 1,7,-1
 329.355339059 708 l 1,8,-1
 329.355339059 698 l 1,9,-1
 294 662.644660941 l 1,10,11
 243.20305188 662.644660941 243.20305188 662.644660941 211.40019914 647.592736301 c 1,12,13
 202.355339059 626.696284616 202.355339059 626.696284616 202.355339059 595 c 2,14,-1
 202.355339059 124 l 2,15,16
 202.355339059 92.5220253307 202.355339059 92.5220253307 211.409179015 71.6956270319 c 1,17,18
 243.278498777 56.3474725019 243.278498777 56.3474725019 291.794714946 56.3474725019 c 0,19,20
 292.893091365 56.3474725019 292.893091365 56.3474725019 294 56.3553390593 c 2,21,-1
 329.355339059 21 l 1,22,-1
 329.355339059 11 l 1,23,-1
 294 -24.3553390593 l 1,24,25
 229 -24.3553390593 229 -24.3553390593 193 -0.855339059327 c 0,26,27
 187.267515924 2.88669915723 187.267515924 2.88669915723 182.447847783 7.70636729793 c 2,28,-1
 147.092508724 43.0617063573 l 2,29,30
 121.644660941 68.5095541401 121.644660941 68.5095541401 121.644660941 124 c 2,31,-1
 121.644660941 595 l 2,0,1
EndSplineSet
Validated: 524289
Substitution2: "'ss10' Style Set 10 in Latin lookup 25 subtable" parenleft.v
Substitution2: "'ss01' Style Set 1 in Latin lookup 22 subtable" parenleft.v
Substitution2: "'vert' Vertical Alternates in Latin lookup 21 subtable" parenleft.v
Position2: "'ss11' Style Set 11 in Latin lookup 1 per glyph data 110" dx=426 dy=0 dh=851 dv=0
EndChar

StartChar: parenright
Encoding: 41 41 200
Width: 429
GlyphClass: 1
Flags: W
LayerCount: 2
Fore
SplineSet
307.355339059 124 m 2,0,1
 307.355339059 68.5095541401 307.355339059 68.5095541401 281.907491276 43.0617063573 c 2,2,-1
 246.552152217 7.70636729793 l 2,3,4
 241.732484076 2.88669915723 241.732484076 2.88669915723 236 -0.855339059327 c 0,5,6
 200 -24.3553390593 200 -24.3553390593 135 -24.3553390593 c 1,7,-1
 99.6446609407 11 l 1,8,-1
 99.6446609407 21 l 1,9,-1
 135 56.3553390593 l 1,10,11
 185.42653442 56.3553390593 185.42653442 56.3553390593 217.590821113 71.6956271504 c 1,12,13
 226.644660941 92.5220254413 226.644660941 92.5220254413 226.644660941 124 c 2,14,-1
 226.644660941 595 l 2,15,16
 226.644660941 626.696284635 226.644660941 626.696284635 217.599800839 647.592736321 c 1,17,18
 186.712359735 662.65267141 186.712359735 662.65267141 137.289544433 662.65267141 c 0,19,20
 136.149701755 662.65267141 136.149701755 662.65267141 135 662.644660941 c 2,21,-1
 99.6446609407 698 l 1,22,-1
 99.6446609407 708 l 1,23,-1
 135 743.355339059 l 1,24,25
 201 743.355339059 201 743.355339059 236.5 719.855339059 c 0,26,27
 241.961538462 716.239954444 241.961538462 716.239954444 246.582840237 711.618652669 c 2,28,-1
 281.938179296 676.263313609 l 2,29,30
 307.355339059 650.846153846 307.355339059 650.846153846 307.355339059 595 c 2,31,-1
 307.355339059 124 l 2,0,1
EndSplineSet
Validated: 524289
Substitution2: "'ss10' Style Set 10 in Latin lookup 25 subtable" parenright.v
Substitution2: "'ss01' Style Set 1 in Latin lookup 22 subtable" parenright.v
Substitution2: "'vert' Vertical Alternates in Latin lookup 21 subtable" parenright.v
Position2: "'ss11' Style Set 11 in Latin lookup 1 per glyph data 110" dx=426 dy=0 dh=851 dv=0
EndChar

StartChar: bracketleft
Encoding: 91 91 201
Width: 429
GlyphClass: 1
Flags: W
LayerCount: 2
Fore
SplineSet
202.355339059 662.644660941 m 1,0,-1
 202.355339059 56.3553390593 l 1,1,-1
 294 56.3553390593 l 1,2,-1
 329.355339059 21 l 1,3,-1
 329.355339059 11 l 1,4,-1
 294 -24.3553390593 l 1,5,-1
 157 -24.3553390593 l 1,6,-1
 121.644660941 11 l 1,7,-1
 121.644660941 708 l 1,8,-1
 157 743.355339059 l 1,9,-1
 294 743.355339059 l 1,10,-1
 329.355339059 708 l 1,11,-1
 329.355339059 698 l 1,12,-1
 294 662.644660941 l 1,13,-1
 202.355339059 662.644660941 l 1,0,-1
EndSplineSet
Validated: 524289
Substitution2: "'ss10' Style Set 10 in Latin lookup 25 subtable" bracketleft.v
Substitution2: "'ss01' Style Set 1 in Latin lookup 22 subtable" bracketleft.v
Substitution2: "'vert' Vertical Alternates in Latin lookup 21 subtable" bracketleft.v
Position2: "'ss11' Style Set 11 in Latin lookup 1 per glyph data 110" dx=426 dy=0 dh=851 dv=0
EndChar

StartChar: bracketright
Encoding: 93 93 202
Width: 429
GlyphClass: 1
Flags: W
LayerCount: 2
Fore
SplineSet
226.644660941 56.3553390593 m 1,0,-1
 226.644660941 662.644660941 l 1,1,-1
 135 662.644660941 l 1,2,-1
 99.6446609407 698 l 1,3,-1
 99.6446609407 708 l 1,4,-1
 135 743.355339059 l 1,5,-1
 272 743.355339059 l 1,6,-1
 307.355339059 708 l 1,7,-1
 307.355339059 11 l 1,8,-1
 272 -24.3553390593 l 1,9,-1
 135 -24.3553390593 l 1,10,-1
 99.6446609407 11 l 1,11,-1
 99.6446609407 21 l 1,12,-1
 135 56.3553390593 l 1,13,-1
 226.644660941 56.3553390593 l 1,0,-1
EndSplineSet
Validated: 524289
Substitution2: "'ss10' Style Set 10 in Latin lookup 25 subtable" bracketright.v
Substitution2: "'ss01' Style Set 1 in Latin lookup 22 subtable" bracketright.v
Substitution2: "'vert' Vertical Alternates in Latin lookup 21 subtable" bracketright.v
Position2: "'ss11' Style Set 11 in Latin lookup 1 per glyph data 110" dx=426 dy=0 dh=851 dv=0
EndChar

StartChar: braceleft
Encoding: 123 123 203
Width: 455
GlyphClass: 1
Flags: W
LayerCount: 2
Fore
SplineSet
157.644660941 124 m 2,0,-1
 157.644660941 251.443414425 l 1,1,2
 151.211476864 255.433184077 151.211476864 255.433184077 146 260.644660941 c 2,3,-1
 110.644660941 296 l 2,4,5
 94 313 94 313 93.6446609407 344 c 2,6,-1
 93.6446609407 372 l 2,7,8
 93.6446609407 403.507692308 93.6446609407 403.507692308 110.125607686 419.988639053 c 0,9,10
 145.738461538 455.601492905 145.738461538 455.601492905 148.474969201 458.257515049 c 128,-1,11
 151.211476864 460.913537192 151.211476864 460.913537192 157.644660941 464.797016852 c 1,12,-1
 157.644660941 595 l 2,13,14
 157.644660941 652.941605839 157.644660941 652.941605839 183.443478139 678.740423038 c 0,15,16
 221.051094891 716.348039789 221.051094891 716.348039789 223.5 718.355339059 c 0,17,18
 254 743.355339059 254 743.355339059 320 743.355339059 c 1,19,-1
 355.355339059 708 l 1,20,-1
 355.355339059 698 l 1,21,-1
 320 662.644660941 l 1,22,23
 274.907261653 662.644660941 274.907261653 662.644660941 247.606380007 650.218602292 c 1,24,25
 238.342663953 629.756877214 238.342663953 629.756877214 238.342663953 597.409328179 c 0,26,27
 238.342663953 596.212795496 238.342663953 596.212795496 238.355339059 595 c 2,28,-1
 238.355339059 433 l 1,29,-1
 203 397.644660941 l 1,30,31
 187.943326966 395.923898308 187.943326966 395.923898308 176.68046598 392.259963651 c 1,32,33
 174.355339059 383.212368495 174.355339059 383.212368495 174.355339059 372 c 2,34,-1
 174.355339059 344 l 2,35,36
 174.355339059 332.901305181 174.355339059 332.901305181 176.712118907 323.923712225 c 1,37,38
 188.00930414 320.118950337 188.00930414 320.118950337 203 318.355339059 c 1,39,-1
 238.355339059 283 l 1,40,-1
 238.355339059 124 l 2,41,42
 238.355339059 92.162235601 238.355339059 92.162235601 249.226512882 70.2584748673 c 1,43,44
 276.43494126 56.3553390593 276.43494126 56.3553390593 320 56.3553390593 c 1,45,-1
 355.355339059 21 l 1,46,-1
 355.355339059 11 l 1,47,-1
 320 -24.3553390593 l 1,48,49
 251.85 -24.3553390593 251.85 -24.3553390593 220.9775 6.51716094067 c 2,50,-1
 185.622160941 41.8725 l 2,51,52
 157.644660941 69.85 157.644660941 69.85 157.644660941 124 c 2,0,-1
EndSplineSet
Validated: 524289
Substitution2: "'ss10' Style Set 10 in Latin lookup 25 subtable" braceleft.v
Substitution2: "'ss01' Style Set 1 in Latin lookup 22 subtable" braceleft.v
Substitution2: "'vert' Vertical Alternates in Latin lookup 21 subtable" braceleft.v
Position2: "'ss11' Style Set 11 in Latin lookup 1 per glyph data 108" dx=413 dy=0 dh=825 dv=0
EndChar

StartChar: braceright
Encoding: 125 125 204
Width: 455
GlyphClass: 1
Flags: W
LayerCount: 2
Fore
SplineSet
297.355339059 124 m 2,0,1
 297.355339059 69.85 297.355339059 69.85 269.377839059 41.8725 c 0,2,3
 232.55 5.04466094067 232.55 5.04466094067 231 3.64466094067 c 0,4,5
 200 -24.3553390593 200 -24.3553390593 135 -24.3553390593 c 1,6,-1
 99.6446609407 11 l 1,7,-1
 99.6446609407 21 l 1,8,-1
 135 56.3553390593 l 1,9,10
 178.565058786 56.3553390593 178.565058786 56.3553390593 205.773487165 70.2584749177 c 1,11,12
 216.655562984 91.3329552872 216.655562984 91.3329552872 216.655562984 122.046093002 c 0,13,14
 216.655562984 123.01821833 216.655562984 123.01821833 216.644660941 124 c 2,15,-1
 216.644660941 283 l 1,16,-1
 252 318.355339059 l 1,17,18
 266.99069586 320.118950337 266.99069586 320.118950337 278.287881093 323.923712225 c 1,19,20
 280.644660941 332.901305181 280.644660941 332.901305181 280.644660941 344 c 2,21,-1
 280.644660941 372 l 2,22,23
 280.644660941 383.212368495 280.644660941 383.212368495 278.31953402 392.259963651 c 1,24,25
 267.056673034 395.923898308 267.056673034 395.923898308 252 397.644660941 c 1,26,-1
 216.644660941 433 l 1,27,-1
 216.644660941 595 l 2,28,29
 216.644660941 628.614362805 216.644660941 628.614362805 207.393620003 650.218602282 c 1,30,31
 180.092738355 662.644660938 180.092738355 662.644660938 135 662.644660941 c 1,32,-1
 99.6446609407 698 l 1,33,-1
 99.6446609407 708 l 1,34,-1
 135 743.355339059 l 1,35,36
 206.941605839 743.355339059 206.941605839 743.355339059 236.201182801 714.095762097 c 2,37,-1
 271.556521861 678.740423038 l 2,38,39
 297.355339059 652.941605839 297.355339059 652.941605839 297.355339059 595 c 2,40,-1
 297.355339059 464.797016852 l 1,41,42
 304.194670734 460.668360633 304.194670734 460.668360633 309.519053254 455.343978113 c 2,43,-1
 344.874392314 419.988639053 l 2,44,45
 361.355339059 403.507692308 361.355339059 403.507692308 361.355339059 372 c 2,46,-1
 361.355339059 344 l 2,47,48
 361.355339059 313 361.355339059 313 344.355339059 296 c 2,49,-1
 309 260.644660941 l 2,50,51
 303.788523136 255.433184077 303.788523136 255.433184077 297.355339059 251.443414425 c 1,52,-1
 297.355339059 124 l 2,0,1
EndSplineSet
Validated: 524289
Substitution2: "'ss10' Style Set 10 in Latin lookup 25 subtable" braceright.v
Substitution2: "'ss01' Style Set 1 in Latin lookup 22 subtable" braceright.v
Substitution2: "'vert' Vertical Alternates in Latin lookup 21 subtable" braceright.v
Position2: "'ss11' Style Set 11 in Latin lookup 1 per glyph data 108" dx=413 dy=0 dh=825 dv=0
EndChar

StartChar: numbersign
Encoding: 35 35 205
Width: 750
GlyphClass: 1
Flags: W
LayerCount: 2
Fore
SplineSet
246.188020274 184.644660941 m 1,0,-1
 232.355339059 90 l 1,1,-1
 197 54.6446609407 l 1,2,-1
 187 54.6446609407 l 1,3,-1
 151.644660941 90 l 1,4,-1
 165.477342155 184.644660941 l 1,5,-1
 125 184.644660941 l 1,6,-1
 89.6446609407 220 l 1,7,-1
 89.6446609407 230 l 1,8,-1
 125 265.355339059 l 1,9,-1
 176.714483145 265.355339059 l 1,10,-1
 204.574838736 459.644660941 l 1,11,-1
 161 459.644660941 l 1,12,-1
 125.644660941 495 l 1,13,-1
 125.644660941 505 l 1,14,-1
 161 540.355339059 l 1,15,-1
 215.735829765 540.355339059 l 1,16,-1
 228.644660941 630 l 1,17,-1
 264 665.355339059 l 1,18,-1
 274 665.355339059 l 1,19,-1
 309.355339059 630 l 1,20,-1
 296.446507884 540.355339059 l 1,21,-1
 504.735829765 540.355339059 l 1,22,-1
 517.644660941 630 l 1,23,-1
 553 665.355339059 l 1,24,-1
 563 665.355339059 l 1,25,-1
 598.355339059 630 l 1,26,-1
 585.446507884 540.355339059 l 1,27,-1
 625 540.355339059 l 1,28,-1
 660.355339059 505 l 1,29,-1
 660.355339059 495 l 1,30,-1
 625 459.644660941 l 1,31,-1
 574.285516855 459.644660941 l 1,32,-1
 546.425161264 265.355339059 l 1,33,-1
 589 265.355339059 l 1,34,-1
 624.355339059 230 l 1,35,-1
 624.355339059 220 l 1,36,-1
 589 184.644660941 l 1,37,-1
 535.188020274 184.644660941 l 1,38,-1
 521.355339059 90 l 1,39,-1
 486 54.6446609407 l 1,40,-1
 476 54.6446609407 l 1,41,-1
 440.644660941 90 l 1,42,-1
 454.477342155 184.644660941 l 1,43,-1
 246.188020274 184.644660941 l 1,0,-1
465.714483145 265.355339059 m 1,44,-1
 493.574838736 459.644660941 l 1,45,-1
 285.285516855 459.644660941 l 1,46,-1
 257.425161264 265.355339059 l 1,47,-1
 465.714483145 265.355339059 l 1,44,-1
EndSplineSet
Validated: 524289
Position2: "'ss11' Style Set 11 in Latin lookup 1 per glyph data 36" dx=265 dy=0 dh=530 dv=0
EndChar

StartChar: percent
Encoding: 37 37 206
Width: 1031
GlyphClass: 1
Flags: W
LayerCount: 2
Fore
SplineSet
966.355339059 280 m 2,0,-1
 966.355339059 134 l 2,1,2
 966.355339059 97.3861386139 966.355339059 97.3861386139 947.867151627 78.8979511813 c 2,3,-1
 912.511812567 43.5426121219 l 2,4,5
 888.613861386 19.6446609407 888.613861386 19.6446609407 821 19.6446609407 c 0,6,7
 753.097087379 19.6446609407 753.097087379 19.6446609407 728.474314261 44.2674340578 c 2,8,-1
 693.118975202 79.6227731172 l 2,9,10
 674.644660941 98.0970873786 674.644660941 98.0970873786 674.644660941 134 c 2,11,-1
 674.644660941 280 l 2,12,13
 674.644660941 316.254901961 674.644660941 316.254901961 693.482992352 335.093233372 c 2,14,-1
 728.838331411 370.448572431 l 2,15,16
 753.745098039 395.355339059 753.745098039 395.355339059 821 395.355339059 c 0,17,18
 887.98 395.355339059 887.98 395.355339059 912.1402 371.195139059 c 2,19,-1
 947.495539059 335.8398 l 2,20,21
 966.355339059 316.98 966.355339059 316.98 966.355339059 280 c 2,0,-1
459 54.6446609407 m 1,22,-1
 449 54.6446609407 l 1,23,-1
 413.644660941 90 l 1,24,-1
 546.644660941 630 l 1,25,-1
 582 665.355339059 l 1,26,-1
 592 665.355339059 l 1,27,-1
 627.355339059 630 l 1,28,-1
 494.355339059 90 l 1,29,-1
 459 54.6446609407 l 1,22,-1
366.355339059 583 m 2,30,-1
 366.355339059 437 l 2,31,32
 366.355339059 400.386138614 366.355339059 400.386138614 347.867151627 381.897951181 c 2,33,-1
 312.511812567 346.542612122 l 2,34,35
 288.613861386 322.644660941 288.613861386 322.644660941 221 322.644660941 c 0,36,37
 153.097087379 322.644660941 153.097087379 322.644660941 128.474314261 347.267434058 c 2,38,-1
 93.1189752021 382.622773117 l 2,39,40
 74.6446609407 401.097087379 74.6446609407 401.097087379 74.6446609407 437 c 2,41,-1
 74.6446609407 583 l 2,42,43
 74.6446609407 619.254901961 74.6446609407 619.254901961 93.4829923517 638.093233372 c 2,44,-1
 128.838331411 673.448572431 l 2,45,46
 153.330518559 697.940759579 153.330518559 697.940759579 221 698.355339059 c 0,47,48
 287.98 698.355339059 287.98 698.355339059 312.1402 674.195139059 c 2,49,-1
 347.495539059 638.8398 l 2,50,51
 366.355339059 619.98 366.355339059 619.98 366.355339059 583 c 2,30,-1
758.610871374 108.978084798 m 1,52,53
 782.332389381 100.355339059 782.332389381 100.355339059 820.702499694 100.355339059 c 128,-1,54
 859.072610007 100.355339059 859.072610007 100.355339059 882.376909261 108.71476024 c 1,55,56
 885.644660941 119.756848685 885.644660941 119.756848685 885.644660941 134 c 2,57,-1
 885.644660941 280 l 2,58,59
 885.644660941 294.717440576 885.644660941 294.717440576 882.155657062 306.088285594 c 1,60,61
 858.892149392 314.644660941 858.892149392 314.644660941 820.701945003 314.644660941 c 128,-1,62
 782.511740614 314.644660941 782.511740614 314.644660941 758.83124704 305.8169544 c 1,63,64
 755.355339059 294.542153951 755.355339059 294.542153951 755.355339059 280 c 2,65,-1
 755.355339059 134 l 2,66,67
 755.355339059 119.926386888 755.355339059 119.926386888 758.610871374 108.978084798 c 1,52,53
158.610871374 411.978084798 m 1,68,69
 182.332389381 403.355339059 182.332389381 403.355339059 220.702499694 403.355339059 c 128,-1,70
 259.072610007 403.355339059 259.072610007 403.355339059 282.376909261 411.71476024 c 1,71,72
 285.676398549 421.99204292 285.676398549 421.99204292 285.676398549 434.520797359 c 0,73,74
 285.676398549 435.749570287 285.676398549 435.749570287 285.644660941 437 c 2,75,-1
 285.644660941 583 l 2,76,77
 285.644660941 597.717440576 285.644660941 597.717440576 282.155657062 609.088285594 c 1,78,79
 258.892149392 617.644660941 258.892149392 617.644660941 220.701945003 617.644660941 c 128,-1,80
 182.511740614 617.644660941 182.511740614 617.644660941 158.83124704 608.8169544 c 1,81,82
 155.325179439 598.91809563 155.325179439 598.91809563 155.325179439 585.516134259 c 0,83,84
 155.325179439 584.273134187 155.325179439 584.273134187 155.355339059 583 c 2,85,-1
 155.355339059 437 l 2,86,87
 155.355339059 422.926386888 155.355339059 422.926386888 158.610871374 411.978084798 c 1,68,69
EndSplineSet
Validated: 524289
Substitution2: "'ss12' Style Set 12 in Latin lookup 26 subtable" percent.v
Substitution2: "'ss01' Style Set 1 in Latin lookup 22 subtable" percent.v
Substitution2: "'vert' Vertical Alternates in Latin lookup 21 subtable" percent.v
Position2: "'ss11' Style Set 11 in Latin lookup 1 per glyph data 17" dx=125 dy=0 dh=249 dv=0
EndChar

StartChar: perthousand
Encoding: 8240 8240 207
Width: 1417
GlyphClass: 1
Flags: W
LayerCount: 2
Fore
SplineSet
964.355339059 280 m 2,0,-1
 964.355339059 134 l 2,1,2
 964.355339059 97.3861386139 964.355339059 97.3861386139 945.867151627 78.8979511813 c 2,3,-1
 910.511812567 43.5426121219 l 2,4,5
 886.613861386 19.6446609407 886.613861386 19.6446609407 819 19.6446609407 c 0,6,7
 751.097087379 19.6446609407 751.097087379 19.6446609407 726.474314261 44.2674340578 c 2,8,-1
 691.118975202 79.6227731172 l 2,9,10
 672.644660941 98.0970873786 672.644660941 98.0970873786 672.644660941 134 c 2,11,-1
 672.644660941 280 l 2,12,13
 672.644660941 316.254901961 672.644660941 316.254901961 691.482992352 335.093233372 c 2,14,-1
 726.838331411 370.448572431 l 2,15,16
 751.745098039 395.355339059 751.745098039 395.355339059 819 395.355339059 c 0,17,18
 885.98 395.355339059 885.98 395.355339059 910.1402 371.195139059 c 2,19,-1
 945.495539059 335.8398 l 2,20,21
 964.355339059 316.98 964.355339059 316.98 964.355339059 280 c 2,0,-1
1361.35533906 280 m 2,22,-1
 1361.35533906 134 l 2,23,24
 1361.35533906 97.3861386139 1361.35533906 97.3861386139 1342.86715163 78.8979511813 c 2,25,-1
 1307.51181257 43.5426121219 l 2,26,27
 1283.61386139 19.6446609407 1283.61386139 19.6446609407 1216 19.6446609407 c 0,28,29
 1148.09708738 19.6446609407 1148.09708738 19.6446609407 1123.47431426 44.2674340578 c 2,30,-1
 1088.1189752 79.6227731172 l 2,31,32
 1069.64466094 98.0970873786 1069.64466094 98.0970873786 1069.64466094 134 c 2,33,-1
 1069.64466094 280 l 2,34,35
 1069.64466094 316.254901961 1069.64466094 316.254901961 1088.48299235 335.093233372 c 2,36,-1
 1123.83833141 370.448572431 l 2,37,38
 1148.74509804 395.355339059 1148.74509804 395.355339059 1216 395.355339059 c 0,39,40
 1282.98 395.355339059 1282.98 395.355339059 1307.1402 371.195139059 c 2,41,-1
 1342.49553906 335.8398 l 2,42,43
 1361.35533906 316.98 1361.35533906 316.98 1361.35533906 280 c 2,22,-1
459 54.6446609407 m 1,44,-1
 449 54.6446609407 l 1,45,-1
 413.644660941 90 l 1,46,-1
 546.644660941 630 l 1,47,-1
 582 665.355339059 l 1,48,-1
 592 665.355339059 l 1,49,-1
 627.355339059 630 l 1,50,-1
 494.355339059 90 l 1,51,-1
 459 54.6446609407 l 1,44,-1
366.355339059 583 m 2,52,-1
 366.355339059 437 l 2,53,54
 366.355339059 400.386138614 366.355339059 400.386138614 347.867151627 381.897951181 c 2,55,-1
 312.511812567 346.542612122 l 2,56,57
 288.613861386 322.644660941 288.613861386 322.644660941 221 322.644660941 c 0,58,59
 153.097087379 322.644660941 153.097087379 322.644660941 128.474314261 347.267434058 c 2,60,-1
 93.1189752021 382.622773117 l 2,61,62
 74.6446609407 401.097087379 74.6446609407 401.097087379 74.6446609407 437 c 2,63,-1
 74.6446609407 583 l 2,64,65
 74.6446609407 619.254901961 74.6446609407 619.254901961 93.4829923517 638.093233372 c 2,66,-1
 128.838331411 673.448572431 l 2,67,68
 153.330518559 697.940759579 153.330518559 697.940759579 221 698.355339059 c 0,69,70
 287.98 698.355339059 287.98 698.355339059 312.1402 674.195139059 c 2,71,-1
 347.495539059 638.8398 l 2,72,73
 366.355339059 619.98 366.355339059 619.98 366.355339059 583 c 2,52,-1
756.610871374 108.978084798 m 1,74,75
 780.332389381 100.355339059 780.332389381 100.355339059 818.702499694 100.355339059 c 128,-1,76
 857.072610007 100.355339059 857.072610007 100.355339059 880.376909261 108.71476024 c 1,77,78
 883.644660941 119.756848685 883.644660941 119.756848685 883.644660941 134 c 2,79,-1
 883.644660941 280 l 2,80,81
 883.644660941 294.717440576 883.644660941 294.717440576 880.155657062 306.088285594 c 1,82,83
 856.892149392 314.644660941 856.892149392 314.644660941 818.701945003 314.644660941 c 128,-1,84
 780.511740614 314.644660941 780.511740614 314.644660941 756.83124704 305.8169544 c 1,85,86
 753.355339059 294.542153951 753.355339059 294.542153951 753.355339059 280 c 2,87,-1
 753.355339059 134 l 2,88,89
 753.355339059 119.926386888 753.355339059 119.926386888 756.610871374 108.978084798 c 1,74,75
1153.61087137 108.978084798 m 1,90,91
 1177.33238938 100.355339059 1177.33238938 100.355339059 1215.70249969 100.355339059 c 128,-1,92
 1254.07261001 100.355339059 1254.07261001 100.355339059 1277.37690926 108.71476024 c 1,93,94
 1280.64466094 119.756848685 1280.64466094 119.756848685 1280.64466094 134 c 2,95,-1
 1280.64466094 280 l 2,96,97
 1280.64466094 294.717440576 1280.64466094 294.717440576 1277.15565706 306.088285594 c 1,98,99
 1253.89214939 314.644660941 1253.89214939 314.644660941 1215.701945 314.644660941 c 128,-1,100
 1177.51174061 314.644660941 1177.51174061 314.644660941 1153.83124704 305.8169544 c 1,101,102
 1150.35533906 294.542153951 1150.35533906 294.542153951 1150.35533906 280 c 2,103,-1
 1150.35533906 134 l 2,104,105
 1150.35533906 119.926386888 1150.35533906 119.926386888 1153.61087137 108.978084798 c 1,90,91
158.610871374 411.978084798 m 1,106,107
 182.332389381 403.355339059 182.332389381 403.355339059 220.702499694 403.355339059 c 128,-1,108
 259.072610007 403.355339059 259.072610007 403.355339059 282.376909261 411.71476024 c 1,109,110
 285.676398549 421.99204292 285.676398549 421.99204292 285.676398549 434.520797359 c 0,111,112
 285.676398549 435.749570287 285.676398549 435.749570287 285.644660941 437 c 2,113,-1
 285.644660941 583 l 2,114,115
 285.644660941 597.717440576 285.644660941 597.717440576 282.155657062 609.088285594 c 1,116,117
 258.892149392 617.644660941 258.892149392 617.644660941 220.701945003 617.644660941 c 128,-1,118
 182.511740614 617.644660941 182.511740614 617.644660941 158.83124704 608.8169544 c 1,119,120
 155.325179439 598.91809563 155.325179439 598.91809563 155.325179439 585.516134259 c 0,121,122
 155.325179439 584.273134187 155.325179439 584.273134187 155.355339059 583 c 2,123,-1
 155.355339059 437 l 2,124,125
 155.355339059 422.926386888 155.355339059 422.926386888 158.610871374 411.978084798 c 1,106,107
EndSplineSet
Validated: 524289
Substitution2: "'ss12' Style Set 12 in Latin lookup 26 subtable" perthousand.v
Substitution2: "'ss01' Style Set 1 in Latin lookup 22 subtable" perthousand.v
Substitution2: "'vert' Vertical Alternates in Latin lookup 21 subtable" perthousand.v
Position2: "'ss11' Style Set 11 in Latin lookup 1 per glyph data 0" dx=-69 dy=0 dh=-137 dv=0
EndChar

StartChar: quotesingle
Encoding: 39 39 208
Width: 356
GlyphClass: 1
Flags: W
LayerCount: 2
Fore
SplineSet
173 665.355339059 m 1,0,-1
 183 665.355339059 l 1,1,-1
 218.355339059 630 l 1,2,-1
 218.355339059 435 l 1,3,-1
 183 399.644660941 l 1,4,-1
 173 399.644660941 l 1,5,-1
 137.644660941 435 l 1,6,-1
 137.644660941 630 l 1,7,-1
 173 665.355339059 l 1,0,-1
EndSplineSet
Validated: 524289
Substitution2: "'ss12' Style Set 12 in Latin lookup 26 subtable" quotesingle.v
Substitution2: "'ss01' Style Set 1 in Latin lookup 22 subtable" quotesingle.v
Substitution2: "'vert' Vertical Alternates in Latin lookup 21 subtable" quotesingle.v
Position2: "'ss11' Style Set 11 in Latin lookup 1 per glyph data 117" dx=462 dy=0 dh=924 dv=0
EndChar

StartChar: quotedbl
Encoding: 34 34 209
Width: 646
GlyphClass: 1
Flags: W
LayerCount: 2
Fore
SplineSet
163 665.355339059 m 1,0,-1
 173 665.355339059 l 1,1,-1
 208.355339059 630 l 1,2,-1
 208.355339059 435 l 1,3,-1
 173 399.644660941 l 1,4,-1
 163 399.644660941 l 1,5,-1
 127.644660941 435 l 1,6,-1
 127.644660941 630 l 1,7,-1
 163 665.355339059 l 1,0,-1
473 665.355339059 m 1,8,-1
 483 665.355339059 l 1,9,-1
 518.355339059 630 l 1,10,-1
 518.355339059 435 l 1,11,-1
 483 399.644660941 l 1,12,-1
 473 399.644660941 l 1,13,-1
 437.644660941 435 l 1,14,-1
 437.644660941 630 l 1,15,-1
 473 665.355339059 l 1,8,-1
EndSplineSet
Validated: 524289
Substitution2: "'ss12' Style Set 12 in Latin lookup 26 subtable" quotedbl.v
Substitution2: "'ss01' Style Set 1 in Latin lookup 22 subtable" quotedbl.v
Substitution2: "'vert' Vertical Alternates in Latin lookup 21 subtable" quotedbl.v
Position2: "'ss11' Style Set 11 in Latin lookup 1 per glyph data 75" dx=317 dy=0 dh=634 dv=0
EndChar

StartChar: quoteleft
Encoding: 8216 8216 210
Width: 384
GlyphClass: 1
Flags: W
LayerCount: 2
Fore
SplineSet
89.6446609407 569 m 2,0,1
 89.6446609407 613.547368421 89.6446609407 613.547368421 112.152804985 636.055512465 c 0,2,3
 148.242105263 672.144812744 148.242105263 672.144812744 149 672.855339059 c 0,4,5
 173 695.355339059 173 695.355339059 213 695.355339059 c 2,6,-1
 259 695.355339059 l 1,7,-1
 294.355339059 660 l 1,8,-1
 294.355339059 650 l 1,9,-1
 259 614.644660941 l 1,10,-1
 213 614.644660941 l 2,11,12
 192.661721469 614.644660941 192.661721469 614.644660941 177.111007447 608.101656111 c 1,13,14
 170.355339059 591.687388378 170.355339059 591.687388378 170.355339059 569 c 2,15,-1
 170.355339059 495.355339059 l 1,16,-1
 259 495.355339059 l 1,17,-1
 294.355339059 460 l 1,18,-1
 294.355339059 450 l 1,19,-1
 259 414.644660941 l 1,20,-1
 125 414.644660941 l 1,21,-1
 89.6446609407 450 l 1,22,-1
 89.6446609407 569 l 2,0,1
EndSplineSet
Validated: 524289
Substitution2: "'ss12' Style Set 12 in Latin lookup 26 subtable" quoteleft.v
Substitution2: "'ss01' Style Set 1 in Latin lookup 22 subtable" quoteleft.v
Substitution2: "'vert' Vertical Alternates in Latin lookup 21 subtable" quoteleft.v
Substitution2: "'ss07' Style Set 7 in Latin lookup 15 subtable" quoteleft.salt
Position2: "'ss11' Style Set 11 in Latin lookup 1 per glyph data 114" dx=448 dy=0 dh=896 dv=0
EndChar

StartChar: quoteright
Encoding: 8217 8217 211
Width: 384
GlyphClass: 1
Flags: W
LayerCount: 2
Fore
SplineSet
294.355339059 496 m 2,0,1
 294.355339059 451.452631579 294.355339059 451.452631579 271.847195015 428.944487535 c 0,2,3
 235.757894737 392.855187256 235.757894737 392.855187256 235 392.144660941 c 0,4,5
 211 369.644660941 211 369.644660941 171 369.644660941 c 2,6,-1
 125 369.644660941 l 1,7,-1
 89.6446609407 405 l 1,8,-1
 89.6446609407 415 l 1,9,-1
 125 450.355339059 l 1,10,-1
 171 450.355339059 l 2,11,12
 191.338278531 450.355339059 191.338278531 450.355339059 206.888992553 456.898343889 c 1,13,14
 213.66157227 472.233688481 213.66157227 472.233688481 213.66157227 493.826388509 c 0,15,16
 213.66157227 494.905381855 213.66157227 494.905381855 213.644660941 496 c 2,17,-1
 213.644660941 569.644660941 l 1,18,-1
 125 569.644660941 l 1,19,-1
 89.6446609407 605 l 1,20,-1
 89.6446609407 615 l 1,21,-1
 125 650.355339059 l 1,22,-1
 259 650.355339059 l 1,23,-1
 294.355339059 615 l 1,24,-1
 294.355339059 496 l 2,0,1
EndSplineSet
Validated: 524321
Substitution2: "'ss12' Style Set 12 in Latin lookup 26 subtable" quoteright.v
Substitution2: "'ss01' Style Set 1 in Latin lookup 22 subtable" quoteright.v
Substitution2: "'vert' Vertical Alternates in Latin lookup 21 subtable" quoteright.v
Substitution2: "'ss07' Style Set 7 in Latin lookup 15 subtable" quoteright.salt
Position2: "'ss11' Style Set 11 in Latin lookup 1 per glyph data 114" dx=448 dy=0 dh=896 dv=0
EndChar

StartChar: quoteleft.salt
Encoding: 57656 57656 212
Width: 307
GlyphClass: 1
Flags: W
LayerCount: 2
Fore
SplineSet
68.6446609407 610 m 2,0,1
 68.6446609407 639 68.6446609407 639 82.1446609407 661.5 c 0,2,3
 85.3420293617 666.828947368 85.3420293617 666.828947368 89.4088576166 670.895775623 c 2,4,-1
 124.764196676 706.251114683 l 2,5,6
 137.868421053 719.355339059 137.868421053 719.355339059 160 719.355339059 c 2,7,-1
 201 719.355339059 l 1,8,-1
 236.355339059 684 l 1,9,-1
 236.355339059 674 l 1,10,-1
 201 638.644660941 l 1,11,-1
 160 638.644660941 l 2,12,13
 156.455933087 638.644660941 156.455933087 638.644660941 153.203267693 638.25277614 c 0,14,15
 149.355339059 625.134178903 149.355339059 625.134178903 149.355339059 610 c 2,16,-1
 149.355339059 569.355339059 l 1,17,-1
 202 569.355339059 l 1,18,-1
 237.355339059 534 l 1,19,-1
 237.355339059 524 l 1,20,-1
 202 488.644660941 l 1,21,-1
 104 488.644660941 l 1,22,-1
 68.6446609407 524 l 1,23,-1
 68.6446609407 610 l 2,0,1
EndSplineSet
Validated: 524289
Substitution2: "'ss12' Style Set 12 in Latin lookup 26 subtable" quoteleft.salt_v
Substitution2: "'ss01' Style Set 1 in Latin lookup 22 subtable" quoteleft.salt_v
Substitution2: "'vert' Vertical Alternates in Latin lookup 21 subtable" quoteleft.salt_v
Position2: "'ss11' Style Set 11 in Latin lookup 1 per glyph data 123" dx=486 dy=0 dh=972 dv=0
EndChar

StartChar: quoteright.salt
Encoding: 57657 57657 213
Width: 307
GlyphClass: 1
Flags: W
LayerCount: 2
Fore
SplineSet
238.355339059 560 m 2,0,1
 238.355339059 531 238.355339059 531 224.855339059 508.5 c 0,2,3
 221.657970638 503.171052632 221.657970638 503.171052632 217.591142383 499.104224377 c 2,4,-1
 182.235803324 463.748885317 l 2,5,6
 169 451 169 451 147 450.644660941 c 2,7,-1
 106 450.644660941 l 1,8,-1
 70.6446609407 486 l 1,9,-1
 70.6446609407 496 l 1,10,-1
 106 531.355339059 l 1,11,-1
 147 531.355339059 l 2,12,13
 150.544066913 531.355339059 150.544066913 531.355339059 153.796732307 531.74722386 c 0,14,15
 157.644660941 544.865821097 157.644660941 544.865821097 157.644660941 560 c 2,16,-1
 157.644660941 600.644660941 l 1,17,-1
 105 600.644660941 l 1,18,-1
 69.6446609407 636 l 1,19,-1
 69.6446609407 646 l 1,20,-1
 105 681.355339059 l 1,21,-1
 203 681.355339059 l 1,22,-1
 238.355339059 646 l 1,23,-1
 238.355339059 560 l 2,0,1
EndSplineSet
Validated: 524289
Substitution2: "'ss12' Style Set 12 in Latin lookup 26 subtable" quoteright.salt_v
Substitution2: "'ss01' Style Set 1 in Latin lookup 22 subtable" quoteright.salt_v
Substitution2: "'vert' Vertical Alternates in Latin lookup 21 subtable" quoteright.salt_v
Position2: "'ss11' Style Set 11 in Latin lookup 1 per glyph data 123" dx=486 dy=0 dh=972 dv=0
EndChar

StartChar: quotedblleft
Encoding: 8220 8220 214
Width: 684
GlyphClass: 1
Flags: W
LayerCount: 2
Fore
SplineSet
79.6446609407 569 m 2,0,1
 79.6446609407 613.547368421 79.6446609407 613.547368421 102.152804985 636.055512465 c 0,2,3
 138.242105263 672.144812744 138.242105263 672.144812744 139 672.855339059 c 0,4,5
 163 695.355339059 163 695.355339059 203 695.355339059 c 2,6,-1
 249 695.355339059 l 1,7,-1
 284.355339059 660 l 1,8,-1
 284.355339059 650 l 1,9,-1
 249 614.644660941 l 1,10,-1
 203 614.644660941 l 2,11,12
 182.661721469 614.644660941 182.661721469 614.644660941 167.111007447 608.101656111 c 1,13,14
 160.355339059 591.687388378 160.355339059 591.687388378 160.355339059 569 c 2,15,-1
 160.355339059 495.355339059 l 1,16,-1
 249 495.355339059 l 1,17,-1
 284.355339059 460 l 1,18,-1
 284.355339059 450 l 1,19,-1
 249 414.644660941 l 1,20,-1
 115 414.644660941 l 1,21,-1
 79.6446609407 450 l 1,22,-1
 79.6446609407 569 l 2,0,1
399.644660941 569 m 2,23,24
 399.644660941 613.547368421 399.644660941 613.547368421 422.152804985 636.055512465 c 0,25,26
 458.242105263 672.144812744 458.242105263 672.144812744 459 672.855339059 c 0,27,28
 483 695.355339059 483 695.355339059 523 695.355339059 c 2,29,-1
 569 695.355339059 l 1,30,-1
 604.355339059 660 l 1,31,-1
 604.355339059 650 l 1,32,-1
 569 614.644660941 l 1,33,-1
 523 614.644660941 l 2,34,35
 502.661721469 614.644660941 502.661721469 614.644660941 487.111007447 608.101656111 c 1,36,37
 480.355339059 591.687388378 480.355339059 591.687388378 480.355339059 569 c 2,38,-1
 480.355339059 495.355339059 l 1,39,-1
 569 495.355339059 l 1,40,-1
 604.355339059 460 l 1,41,-1
 604.355339059 450 l 1,42,-1
 569 414.644660941 l 1,43,-1
 435 414.644660941 l 1,44,-1
 399.644660941 450 l 1,45,-1
 399.644660941 569 l 2,23,24
EndSplineSet
Validated: 524289
Substitution2: "'ss12' Style Set 12 in Latin lookup 26 subtable" quotedblleft.v
Substitution2: "'ss01' Style Set 1 in Latin lookup 22 subtable" quotedblleft.v
Substitution2: "'vert' Vertical Alternates in Latin lookup 21 subtable" quotedblleft.v
Position2: "'ss11' Style Set 11 in Latin lookup 1 per glyph data 65" dx=298 dy=0 dh=596 dv=0
EndChar

StartChar: quotedblright
Encoding: 8221 8221 215
Width: 684
GlyphClass: 1
Flags: W
LayerCount: 2
Fore
SplineSet
284.355339059 496 m 2,0,1
 284.355339059 451.452631579 284.355339059 451.452631579 261.847195015 428.944487535 c 0,2,3
 225.757894737 392.855187256 225.757894737 392.855187256 225 392.144660941 c 0,4,5
 201 369.644660941 201 369.644660941 161 369.644660941 c 2,6,-1
 115 369.644660941 l 1,7,-1
 79.6446609407 405 l 1,8,-1
 79.6446609407 415 l 1,9,-1
 115 450.355339059 l 1,10,-1
 161 450.355339059 l 2,11,12
 181.338278531 450.355339059 181.338278531 450.355339059 196.888992553 456.898343889 c 1,13,14
 203.66157227 472.233688481 203.66157227 472.233688481 203.66157227 493.826388509 c 0,15,16
 203.66157227 494.905381855 203.66157227 494.905381855 203.644660941 496 c 2,17,-1
 203.644660941 569.644660941 l 1,18,-1
 115 569.644660941 l 1,19,-1
 79.6446609407 605 l 1,20,-1
 79.6446609407 615 l 1,21,-1
 115 650.355339059 l 1,22,-1
 249 650.355339059 l 1,23,-1
 284.355339059 615 l 1,24,-1
 284.355339059 496 l 2,0,1
604.355339059 496 m 2,25,26
 604.355339059 451.452631579 604.355339059 451.452631579 581.847195015 428.944487535 c 0,27,28
 545.757894737 392.855187256 545.757894737 392.855187256 545 392.144660941 c 0,29,30
 521 369.644660941 521 369.644660941 481 369.644660941 c 2,31,-1
 435 369.644660941 l 1,32,-1
 399.644660941 405 l 1,33,-1
 399.644660941 415 l 1,34,-1
 435 450.355339059 l 1,35,-1
 481 450.355339059 l 2,36,37
 501.338278531 450.355339059 501.338278531 450.355339059 516.888992553 456.898343889 c 1,38,39
 523.66157227 472.233688481 523.66157227 472.233688481 523.66157227 493.826388509 c 0,40,41
 523.66157227 494.905381855 523.66157227 494.905381855 523.644660941 496 c 2,42,-1
 523.644660941 569.644660941 l 1,43,-1
 435 569.644660941 l 1,44,-1
 399.644660941 605 l 1,45,-1
 399.644660941 615 l 1,46,-1
 435 650.355339059 l 1,47,-1
 569 650.355339059 l 1,48,-1
 604.355339059 615 l 1,49,-1
 604.355339059 496 l 2,25,26
EndSplineSet
Validated: 524321
Substitution2: "'ss12' Style Set 12 in Latin lookup 26 subtable" quotedblright.v
Substitution2: "'ss01' Style Set 1 in Latin lookup 22 subtable" quotedblright.v
Substitution2: "'vert' Vertical Alternates in Latin lookup 21 subtable" quotedblright.v
Position2: "'ss11' Style Set 11 in Latin lookup 1 per glyph data 65" dx=298 dy=0 dh=596 dv=0
EndChar

StartChar: quotesinglbase
Encoding: 8218 8218 216
Width: 384
GlyphClass: 1
Flags: W
LayerCount: 2
Fore
SplineSet
294.355339059 51 m 2,0,1
 294.355339059 6.45263157895 294.355339059 6.45263157895 271.847195015 -16.0555124654 c 0,2,3
 235.757894737 -52.1448127435 235.757894737 -52.1448127435 235 -52.8553390593 c 0,4,5
 211 -75.3553390593 211 -75.3553390593 171 -75.3553390593 c 2,6,-1
 125 -75.3553390593 l 1,7,-1
 89.6446609407 -40 l 1,8,-1
 89.6446609407 -30 l 1,9,-1
 125 5.35533905933 l 1,10,-1
 171 5.35533905933 l 2,11,12
 191.338278531 5.35533905933 191.338278531 5.35533905933 206.888992553 11.8983438889 c 1,13,14
 213.66157227 27.2336884805 213.66157227 27.2336884805 213.66157227 48.826388509 c 0,15,16
 213.66157227 49.9053818547 213.66157227 49.9053818547 213.644660941 51 c 2,17,-1
 213.644660941 124.644660941 l 1,18,-1
 125 124.644660941 l 1,19,-1
 89.6446609407 160 l 1,20,-1
 89.6446609407 170 l 1,21,-1
 125 205.355339059 l 1,22,-1
 259 205.355339059 l 1,23,-1
 294.355339059 170 l 1,24,-1
 294.355339059 51 l 2,0,1
EndSplineSet
Validated: 524321
Substitution2: "'ss12' Style Set 12 in Latin lookup 26 subtable" quotesinglbase.v
Substitution2: "'ss01' Style Set 1 in Latin lookup 22 subtable" quotesinglbase.v
Substitution2: "'vert' Vertical Alternates in Latin lookup 21 subtable" quotesinglbase.v
Position2: "'ss11' Style Set 11 in Latin lookup 1 per glyph data 114" dx=448 dy=0 dh=896 dv=0
EndChar

